<svg width="40" height="40" viewBox="0 0 40 40" fill="none" xmlns="http://www.w3.org/2000/svg">
<path d="M9 9.00302L31 31.003" stroke="#5C5C5C" stroke-width="2" stroke-linecap="round" stroke-linejoin="round"/>
<path d="M23 17.343V12.003C23.0007 11.2591 22.725 10.5413 22.2264 9.98922C21.7277 9.4371 21.0417 9.08996 20.3015 9.0152C19.5613 8.94043 18.8197 9.14336 18.2207 9.58461C17.6217 10.0259 17.208 10.6739 17.06 11.403M17 17.003V20.003C17.0005 20.596 17.1768 21.1755 17.5064 21.6684C17.8361 22.1612 18.3045 22.5453 18.8523 22.7722C19.4002 22.999 20.0029 23.0584 20.5845 22.9429C21.1661 22.8273 21.7005 22.542 22.12 22.123L17 17.003Z" stroke="#5C5C5C" stroke-width="2" stroke-linecap="round" stroke-linejoin="round"/>
<path d="M25 24.953C24.0238 25.9494 22.7721 26.6315 21.4056 26.9116C20.0391 27.1918 18.62 27.0572 17.3305 26.5253C16.041 25.9934 14.9398 25.0883 14.1682 23.9262C13.3966 22.7641 12.9898 21.3979 13 20.003V18.003M27 18.003V20.003C26.9996 20.4155 26.9628 20.8271 26.89 21.233" stroke="#5C5C5C" stroke-width="2" stroke-linecap="round" stroke-linejoin="round"/>
<path d="M20 27.003V31.003" stroke="#5C5C5C" stroke-width="2" stroke-linecap="round" stroke-linejoin="round"/>
<path d="M16 31.003H24" stroke="#5C5C5C" stroke-width="2" stroke-linecap="round" stroke-linejoin="round"/>
</svg>
