<svg id="svg" version="1.1" xmlns="http://www.w3.org/2000/svg" xmlns:xlink="http://www.w3.org/1999/xlink" width="80" height="407.14285714285717" viewBox="0, 0, 400,407.14285714285717"><g id="svgg"><path id="path0" d="M157.200 1.577 C 157.200 2.495,157.576 3.791,158.100 4.677 L 159.000 6.200 159.000 76.800 C 159.000 157.302,159.337 149.919,155.600 151.188 C 153.666 151.846,7.830 151.666,4.900 151.003 C 3.619 150.713,3.600 150.730,3.600 152.155 L 3.600 153.600 1.800 153.600 L 0.000 153.600 0.000 203.400 L 0.000 253.200 1.773 253.200 C 3.411 253.200,3.557 253.284,3.673 254.300 L 3.800 255.400 7.800 255.381 C 91.898 254.990,154.930 255.199,156.275 255.873 C 159.383 257.430,159.155 251.626,159.154 329.200 C 159.153 372.807,159.008 398.936,158.759 400.200 C 158.542 401.300,158.262 403.235,158.135 404.500 L 157.904 406.800 205.407 406.800 L 252.910 406.800 252.632 403.731 C 252.479 402.043,252.184 400.345,251.977 399.957 C 251.445 398.963,251.468 262.000,252.000 262.000 C 252.220 262.000,252.400 261.581,252.400 261.070 C 252.400 260.558,252.850 259.717,253.400 259.200 C 253.950 258.683,254.400 258.027,254.400 257.742 C 254.400 257.457,255.384 256.758,256.588 256.188 L 258.775 255.154 329.388 255.188 L 400.000 255.222 400.000 203.406 L 400.000 151.590 329.559 151.606 L 259.119 151.622 256.959 150.633 C 255.772 150.089,254.800 149.494,254.800 149.311 C 254.800 149.128,254.260 148.387,253.600 147.664 C 252.692 146.671,252.400 145.967,252.400 144.775 C 252.400 143.909,252.220 143.200,252.000 143.200 C 251.290 143.200,251.494 9.158,252.208 6.200 C 252.527 4.880,252.790 2.945,252.794 1.900 L 252.800 0.000 205.000 0.000 L 157.200 0.000 157.200 1.577 M259.314 1.800 C 259.317 2.900,259.395 3.303,259.487 2.695 C 259.579 2.086,259.577 1.186,259.482 0.695 C 259.387 0.203,259.311 0.700,259.314 1.800 M260.000 1.800 C 260.000 2.790,260.180 3.600,260.400 3.600 C 260.620 3.600,260.800 2.790,260.800 1.800 C 260.800 0.810,260.620 0.000,260.400 0.000 C 260.180 0.000,260.000 0.810,260.000 1.800 M367.601 75.599 C 367.079 76.573,364.738 77.794,362.673 78.169 C 361.833 78.322,360.375 79.035,359.432 79.755 C 358.490 80.474,356.862 81.303,355.816 81.596 C 354.298 82.021,353.832 82.363,353.509 83.289 C 353.063 84.568,350.655 86.289,348.788 86.662 C 348.135 86.793,347.600 87.016,347.600 87.157 C 347.600 87.298,346.517 87.844,345.194 88.370 C 343.470 89.054,342.560 89.694,341.983 90.628 C 341.192 91.907,337.117 94.400,335.816 94.400 C 335.477 94.400,335.200 94.560,335.200 94.755 C 335.200 94.951,334.528 95.237,333.707 95.391 C 331.533 95.799,330.895 96.246,330.010 97.979 C 329.129 99.708,326.631 101.134,322.900 102.041 C 321.745 102.322,320.800 102.678,320.800 102.832 C 320.800 102.987,320.320 103.234,319.733 103.381 C 319.147 103.528,317.718 104.628,316.559 105.824 C 315.400 107.021,314.180 108.000,313.847 108.000 C 312.722 108.000,306.800 110.032,306.800 110.417 C 306.800 110.628,306.518 110.800,306.174 110.800 C 305.558 110.800,303.802 112.598,302.978 114.074 C 302.403 115.104,298.830 117.600,297.930 117.600 C 297.528 117.600,297.200 117.749,297.200 117.932 C 297.200 118.669,304.110 119.542,306.800 119.145 C 308.230 118.934,321.048 118.662,335.285 118.542 C 360.062 118.332,361.181 118.291,361.407 117.579 C 361.537 117.170,362.218 116.375,362.921 115.812 C 363.625 115.249,364.420 114.608,364.689 114.388 C 364.959 114.168,367.119 113.348,369.489 112.565 C 373.603 111.206,373.900 111.031,375.974 108.741 C 378.998 105.403,380.535 104.682,385.200 104.417 L 389.000 104.200 389.117 100.861 C 389.268 96.548,389.136 96.400,385.151 96.400 L 382.000 96.400 382.000 89.800 C 382.000 83.487,381.961 83.161,381.100 82.305 C 380.605 81.813,379.895 80.735,379.522 79.910 C 379.032 78.828,378.338 78.165,377.024 77.527 C 376.023 77.040,375.109 76.343,374.993 75.977 C 374.839 75.494,374.113 75.242,372.332 75.056 C 368.613 74.667,368.066 74.730,367.601 75.599 M20.211 96.749 C 18.290 97.161,18.012 98.257,18.006 105.449 L 18.000 111.898 16.500 112.151 C 14.398 112.506,13.320 113.483,12.422 115.846 L 11.646 117.887 15.123 117.964 C 20.663 118.088,38.786 118.710,46.113 119.028 C 56.421 119.475,58.378 118.506,52.588 115.821 C 50.919 115.047,50.409 114.544,49.588 112.860 C 49.045 111.744,48.390 110.824,48.133 110.816 C 47.877 110.807,47.600 110.600,47.519 110.356 C 47.437 110.112,45.397 109.494,42.985 108.983 C 38.586 108.050,35.601 107.045,35.598 106.495 C 35.590 105.061,31.979 102.352,29.565 101.969 C 26.601 101.499,25.805 100.760,25.408 98.113 L 25.151 96.400 23.275 96.447 C 22.244 96.473,20.865 96.609,20.211 96.749 M52.000 287.629 C 50.350 288.060,48.940 288.590,48.867 288.807 C 48.793 289.023,48.394 289.200,47.979 289.200 C 47.558 289.200,46.649 289.964,45.918 290.934 C 44.706 292.543,42.284 294.000,40.824 294.000 C 39.537 294.000,35.760 296.174,34.992 297.356 C 34.548 298.040,33.468 298.936,32.592 299.347 C 31.716 299.758,30.910 300.232,30.800 300.401 C 29.857 301.845,24.878 303.265,21.459 303.064 L 17.918 302.856 18.061 306.010 C 18.237 309.876,18.353 309.998,22.147 310.285 L 25.200 310.515 25.200 313.895 C 25.200 316.920,25.283 317.297,25.987 317.481 C 26.419 317.594,26.890 318.072,27.033 318.543 C 27.508 320.110,29.174 321.929,30.549 322.383 C 32.124 322.903,32.400 323.742,32.400 328.001 C 32.400 331.393,32.773 331.743,36.598 331.936 C 39.224 332.068,39.504 332.008,39.697 331.272 C 39.944 330.328,42.118 329.606,44.727 329.602 C 46.274 329.600,48.654 328.395,49.605 327.132 C 49.718 326.982,50.708 326.644,51.805 326.381 C 53.680 325.931,56.000 324.203,56.000 323.257 C 56.000 322.501,58.496 320.787,60.234 320.350 C 61.205 320.105,62.000 319.779,62.000 319.626 C 62.000 319.472,63.017 319.025,64.260 318.634 C 65.950 318.101,66.999 317.423,68.414 315.947 C 70.112 314.175,73.502 312.400,75.185 312.400 C 75.603 312.400,76.951 311.394,77.749 310.488 C 80.632 307.213,83.684 305.450,87.977 304.581 C 89.196 304.335,92.800 301.172,92.800 300.350 C 92.800 300.211,95.005 299.335,97.700 298.403 C 102.214 296.842,102.705 296.572,103.934 294.970 C 104.668 294.014,105.613 293.123,106.034 292.989 C 106.455 292.855,106.800 292.585,106.800 292.389 C 106.800 292.193,107.565 291.824,108.500 291.569 C 115.690 289.608,116.269 289.087,112.906 287.600 C 110.131 286.372,56.708 286.397,52.000 287.629 M363.528 287.145 C 361.544 287.334,360.579 287.641,359.784 288.335 L 358.713 289.270 359.754 289.810 C 360.326 290.107,362.438 290.666,364.446 291.052 C 366.454 291.439,368.301 291.945,368.549 292.178 C 368.797 292.411,369.762 293.096,370.693 293.701 C 371.644 294.320,372.493 295.231,372.631 295.782 C 372.888 296.803,373.675 297.178,378.505 298.577 C 380.034 299.019,381.026 299.574,381.451 300.222 C 381.978 301.026,382.422 301.200,383.946 301.202 C 386.400 301.205,388.661 301.861,388.968 302.660 C 389.266 303.436,394.907 303.252,395.721 302.440 C 396.048 302.114,396.242 299.642,396.330 294.681 L 396.461 287.400 391.930 287.351 C 389.439 287.324,382.630 287.209,376.800 287.096 C 370.970 286.982,364.997 287.004,363.528 287.145 M39.630 337.899 C 39.883 338.305,40.450 338.664,40.890 338.697 C 41.330 338.730,41.625 338.712,41.545 338.657 C 39.670 337.371,39.179 337.176,39.630 337.899 " stroke="none" fill="#fc0505" fill-rule="evenodd"></path><path id="path1" d="M146.800 1.800 L 146.800 3.600 138.500 3.624 C 125.769 3.660,125.599 3.716,125.298 7.928 L 125.099 10.714 126.322 10.983 C 128.316 11.421,128.695 12.732,129.607 22.342 C 130.681 33.665,130.002 86.400,128.781 86.400 C 128.572 86.400,128.400 86.669,128.400 86.999 C 128.400 87.328,127.758 88.308,126.974 89.176 C 125.478 90.832,124.823 90.910,123.533 89.588 C 123.166 89.212,121.951 88.575,120.833 88.173 C 119.715 87.771,118.800 87.312,118.800 87.153 C 118.800 86.994,118.215 86.735,117.500 86.579 C 115.175 86.069,112.017 84.343,111.499 83.298 C 111.168 82.631,110.057 81.876,108.200 81.058 C 106.660 80.379,105.167 79.598,104.881 79.322 C 104.596 79.046,103.696 78.516,102.881 78.144 C 101.088 77.326,99.600 76.051,99.600 75.332 C 99.600 74.705,97.097 73.515,93.900 72.621 C 92.635 72.267,91.600 71.825,91.600 71.637 C 91.600 71.450,91.059 71.073,90.398 70.799 C 89.737 70.525,88.698 69.739,88.089 69.051 C 86.890 67.697,83.954 66.001,81.400 65.186 C 80.363 64.855,78.919 63.781,77.297 62.137 C 75.920 60.742,74.570 59.594,74.297 59.587 C 73.251 59.559,69.764 57.295,69.006 56.150 C 68.112 54.801,64.712 54.041,58.077 53.707 C 53.758 53.490,53.600 53.629,53.600 57.649 L 53.600 60.800 50.414 60.800 C 46.585 60.800,46.400 61.002,46.400 65.174 L 46.400 68.000 43.224 68.000 C 39.498 68.000,39.703 67.791,39.357 71.938 L 39.085 75.200 36.619 75.200 C 32.705 75.200,32.693 75.220,32.257 82.757 C 31.840 89.970,32.204 89.325,28.600 89.248 C 25.273 89.177,25.280 89.169,25.237 93.171 C 25.193 97.296,24.879 97.005,29.800 97.396 C 33.060 97.655,35.600 98.305,35.600 98.880 C 35.600 99.056,35.831 99.200,36.113 99.200 C 36.883 99.200,40.578 101.678,41.868 103.059 C 42.978 104.246,45.496 105.281,48.500 105.785 C 49.325 105.923,50.000 106.189,50.000 106.375 C 50.000 106.561,50.495 106.835,51.100 106.984 C 52.495 107.327,55.976 109.653,55.990 110.252 C 55.995 110.500,56.852 111.400,57.894 112.252 C 58.935 113.103,60.587 114.565,61.565 115.500 C 62.543 116.435,63.491 117.200,63.672 117.200 C 64.692 117.200,63.886 118.729,61.495 121.328 C 59.922 123.038,58.713 123.149,41.373 123.176 C 22.362 123.206,20.296 122.879,18.584 119.568 C 18.032 118.501,17.797 118.400,15.870 118.400 C 14.709 118.400,13.560 118.200,13.315 117.955 C 12.761 117.401,11.883 117.883,12.270 118.528 C 12.468 118.858,12.369 118.851,11.940 118.503 C 10.988 117.733,10.800 118.279,10.800 121.812 L 10.800 125.090 8.558 125.353 C 4.113 125.876,3.996 126.182,3.721 138.033 C 3.548 145.461,3.608 147.085,4.055 147.169 C 6.686 147.661,153.889 147.729,154.500 147.238 C 155.072 146.779,155.200 146.027,155.200 143.138 C 155.200 141.046,155.363 139.600,155.600 139.600 C 155.865 139.600,156.000 118.733,156.000 77.800 C 156.000 41.031,155.853 16.000,155.637 16.000 C 155.437 16.000,155.252 13.750,155.226 10.999 C 155.201 8.248,155.004 5.537,154.790 4.973 C 154.575 4.409,154.400 3.060,154.400 1.974 L 154.400 0.000 150.600 0.000 L 146.800 0.000 146.800 1.800 M259.861 4.174 C 258.451 5.263,258.371 9.623,258.487 78.523 L 258.600 146.046 259.600 146.814 C 260.577 147.565,262.183 147.582,330.300 147.591 L 400.000 147.600 400.000 136.200 L 400.000 124.800 398.241 124.800 L 396.482 124.800 396.341 115.014 C 396.175 103.511,396.363 104.005,392.035 103.695 L 389.200 103.493 389.191 105.046 C 389.177 107.513,388.229 108.371,385.016 108.826 C 382.189 109.227,381.200 109.695,381.200 110.634 C 381.200 112.536,376.717 115.451,371.097 117.202 C 370.490 117.391,369.523 118.106,368.947 118.790 C 368.371 119.475,367.157 120.411,366.250 120.871 C 365.342 121.331,364.497 121.868,364.371 122.063 C 363.682 123.130,299.049 123.842,294.694 122.831 C 291.718 122.140,288.887 118.327,290.314 116.931 C 290.725 116.529,291.554 115.539,292.155 114.731 C 292.756 113.923,293.818 113.063,294.515 112.820 C 296.185 112.238,298.394 110.717,298.397 110.147 C 298.402 109.441,300.872 107.200,301.647 107.200 C 302.030 107.200,302.581 106.965,302.871 106.677 C 303.162 106.390,305.083 105.625,307.139 104.977 C 309.824 104.132,310.968 103.575,311.196 103.000 C 311.863 101.327,315.451 99.200,317.608 99.200 C 318.044 99.200,318.400 99.044,318.400 98.854 C 318.400 98.663,319.525 98.098,320.900 97.597 C 322.275 97.096,323.635 96.352,323.923 95.943 C 324.210 95.534,324.705 95.200,325.023 95.200 C 325.340 95.200,325.600 94.933,325.600 94.606 C 325.600 93.905,328.128 92.164,329.700 91.781 C 330.305 91.634,330.800 91.353,330.800 91.157 C 330.800 90.960,331.088 90.800,331.440 90.800 C 332.721 90.800,334.713 89.527,335.386 88.279 C 336.124 86.909,338.810 85.398,342.800 84.110 C 344.010 83.720,345.090 83.289,345.200 83.154 C 345.310 83.019,345.805 82.781,346.300 82.627 C 346.795 82.472,347.200 82.200,347.200 82.021 C 347.200 80.915,350.459 78.481,353.060 77.645 C 356.727 76.466,357.726 75.554,358.581 72.609 C 359.722 68.680,360.460 67.936,363.146 68.006 C 367.085 68.110,366.840 68.263,366.195 66.100 C 365.540 63.905,364.168 62.543,362.253 62.183 L 360.908 61.931 360.696 58.521 C 360.428 54.225,360.120 53.878,356.399 53.668 C 353.760 53.519,353.600 53.455,353.600 52.555 C 353.600 52.030,353.460 51.600,353.289 51.600 C 353.119 51.600,353.046 50.897,353.128 50.038 C 353.241 48.853,353.075 48.275,352.438 47.638 C 351.519 46.719,349.208 46.479,349.188 47.300 C 349.181 47.577,348.994 47.488,348.768 47.100 C 348.539 46.707,347.887 46.400,347.280 46.400 L 346.200 46.399 346.278 49.900 C 346.395 55.085,345.824 55.789,339.100 58.752 C 338.055 59.213,337.200 59.772,337.200 59.995 C 337.200 60.218,336.965 60.400,336.678 60.400 C 336.392 60.400,335.546 61.030,334.800 61.800 C 334.054 62.570,333.253 63.203,333.022 63.207 C 332.790 63.211,332.189 63.647,331.687 64.177 C 331.185 64.707,329.250 65.739,327.388 66.470 C 325.526 67.202,324.002 67.991,324.001 68.225 C 324.000 68.781,321.887 70.800,321.307 70.800 C 321.059 70.800,320.605 71.053,320.296 71.361 C 319.987 71.670,318.939 72.196,317.967 72.531 C 314.927 73.576,311.600 75.173,311.600 75.586 C 311.600 75.803,310.655 76.707,309.500 77.594 C 308.345 78.481,307.183 79.385,306.917 79.603 C 306.651 79.821,306.201 80.000,305.917 80.000 C 304.852 80.001,300.400 82.386,300.400 82.956 C 300.400 83.801,298.598 84.954,295.600 86.026 C 294.170 86.537,292.910 87.080,292.800 87.233 C 292.618 87.487,289.765 88.392,289.133 88.398 C 288.700 88.401,285.768 85.462,285.264 84.519 C 284.639 83.353,284.632 26.271,285.255 22.200 C 285.491 20.660,285.800 17.510,285.942 15.200 C 286.148 11.854,286.322 10.998,286.800 10.991 C 288.417 10.967,286.336 7.281,284.051 6.122 C 283.099 5.639,282.083 4.919,281.793 4.522 C 281.071 3.534,261.100 3.216,259.861 4.174 M3.629 267.451 C 3.675 281.077,3.663 281.037,7.945 281.673 L 10.800 282.097 10.824 286.348 C 10.870 294.609,11.286 295.489,15.322 295.866 L 18.000 296.116 18.006 298.558 C 18.010 300.000,18.148 300.787,18.343 300.479 C 18.525 300.192,18.837 299.989,19.037 300.026 C 19.236 300.064,20.703 300.073,22.297 300.047 L 25.193 300.000 26.517 297.308 C 27.663 294.979,28.107 294.481,29.821 293.608 C 30.909 293.054,31.890 292.499,32.000 292.375 C 32.239 292.106,35.978 290.651,38.150 289.982 C 39.002 289.720,39.783 289.211,39.886 288.853 C 40.142 287.954,43.068 285.647,44.349 285.334 C 44.927 285.192,45.490 284.960,45.600 284.818 C 45.710 284.676,47.381 284.040,49.313 283.404 C 51.246 282.769,53.023 282.014,53.262 281.725 C 53.613 281.302,58.615 281.200,79.049 281.200 C 92.992 281.200,104.400 281.055,104.400 280.879 C 104.400 280.702,107.505 280.145,111.300 279.640 L 118.200 278.723 120.346 279.574 C 123.732 280.916,124.037 281.490,123.763 286.000 L 123.531 289.800 121.753 291.488 C 119.893 293.254,118.008 294.010,113.287 294.880 C 111.151 295.274,110.612 295.553,109.687 296.743 C 107.448 299.627,106.472 300.343,102.863 301.753 C 101.247 302.384,99.391 303.422,98.738 304.061 C 97.049 305.712,94.813 307.083,93.300 307.395 C 92.585 307.543,92.000 307.829,92.000 308.032 C 92.000 308.234,91.544 308.400,90.987 308.400 C 89.355 308.400,85.852 310.448,84.689 312.082 C 84.102 312.906,83.025 313.830,82.295 314.135 C 81.565 314.439,80.705 314.939,80.384 315.244 C 80.063 315.550,78.507 316.229,76.926 316.754 C 74.591 317.529,73.966 317.916,73.590 318.825 C 72.907 320.473,72.139 320.999,68.600 322.241 C 66.840 322.858,65.184 323.575,64.920 323.833 C 64.655 324.092,63.808 324.422,63.036 324.567 C 62.089 324.745,61.338 325.247,60.725 326.115 C 59.001 328.556,57.914 329.225,54.000 330.257 C 49.900 331.337,48.835 331.988,48.569 333.575 C 48.339 334.947,47.578 337.040,46.781 338.495 C 46.361 339.261,46.258 344.365,46.643 345.367 C 46.838 345.875,47.550 346.000,50.243 346.000 L 53.600 346.000 53.600 348.974 C 53.600 356.706,54.856 359.118,59.218 359.758 L 61.036 360.024 61.148 356.712 C 61.274 352.988,61.648 352.301,63.948 351.567 C 64.747 351.312,65.571 350.945,65.780 350.752 C 65.989 350.558,66.549 350.400,67.025 350.400 C 67.501 350.400,68.569 349.860,69.400 349.200 C 70.231 348.540,71.030 348.000,71.176 348.000 C 71.322 348.000,72.253 347.235,73.246 346.300 C 76.731 343.017,77.798 342.313,81.096 341.120 C 83.748 340.160,84.544 339.682,85.021 338.760 C 85.381 338.064,86.450 337.185,87.709 336.550 C 88.859 335.970,89.890 335.364,90.000 335.203 C 90.110 335.042,91.772 334.316,93.694 333.589 C 95.616 332.862,97.285 331.982,97.404 331.633 C 97.724 330.693,100.758 328.615,102.700 328.005 C 103.635 327.712,104.400 327.323,104.400 327.141 C 104.400 326.960,104.985 326.563,105.700 326.259 C 106.415 325.956,107.645 324.983,108.433 324.097 C 110.004 322.329,111.983 321.201,114.900 320.411 C 115.945 320.128,116.800 319.739,116.800 319.548 C 116.800 319.357,117.079 319.200,117.420 319.200 C 118.657 319.200,120.540 317.985,123.462 315.300 C 124.000 314.805,124.712 314.400,125.043 314.400 C 125.628 314.400,128.000 316.694,128.000 317.261 C 128.000 317.416,128.237 317.781,128.526 318.071 C 129.839 319.391,130.000 323.046,130.003 351.567 C 130.007 389.032,129.542 395.097,126.615 395.832 C 125.663 396.071,125.602 396.227,125.738 398.044 C 125.819 399.120,125.760 400.000,125.607 400.000 C 125.226 400.000,125.392 402.333,125.800 402.703 C 125.980 402.866,126.014 402.685,125.876 402.300 C 125.738 401.915,125.799 401.600,126.013 401.600 C 126.226 401.600,126.400 401.881,126.400 402.224 C 126.400 402.567,126.580 402.736,126.800 402.600 C 127.020 402.464,127.200 402.543,127.200 402.776 C 127.200 403.057,129.362 403.200,133.600 403.200 L 140.000 403.200 140.000 405.000 L 140.000 406.800 147.150 406.800 L 154.301 406.800 154.554 404.500 C 154.694 403.235,154.920 400.895,155.057 399.300 C 155.193 397.705,155.462 396.400,155.653 396.400 C 155.848 396.400,155.990 366.663,155.978 328.500 L 155.956 260.600 154.878 259.800 C 153.807 259.005,153.332 259.001,79.200 259.200 C 37.014 259.313,4.383 259.248,4.100 259.051 C 3.704 258.775,3.606 260.528,3.629 267.451 M259.800 259.562 L 258.600 260.265 258.600 330.850 C 258.600 397.400,258.640 401.496,259.300 402.504 C 259.685 403.091,260.000 404.298,260.000 405.186 L 260.000 406.800 264.000 406.800 L 268.000 406.800 268.000 405.060 L 268.000 403.319 277.205 403.102 C 288.712 402.831,288.384 402.977,288.967 397.900 C 289.180 396.045,289.159 396.000,288.092 395.994 C 286.124 395.983,285.949 395.606,285.565 390.554 C 285.367 387.939,285.120 385.133,285.016 384.317 C 284.913 383.501,284.817 369.191,284.803 352.517 C 284.775 319.865,284.801 319.414,286.847 317.007 C 289.370 314.038,289.698 314.005,292.129 316.476 C 292.970 317.330,294.365 318.313,295.229 318.658 C 296.093 319.004,296.800 319.447,296.800 319.643 C 296.800 319.840,297.156 320.000,297.591 320.000 C 299.341 320.000,302.971 321.874,305.145 323.900 C 306.385 325.055,307.534 326.000,307.699 326.000 C 307.865 326.000,308.328 326.328,308.729 326.729 C 309.130 327.130,310.705 327.956,312.229 328.564 C 315.187 329.744,316.400 330.589,316.400 331.472 C 316.400 332.033,316.733 332.198,321.170 333.833 C 322.584 334.353,323.845 334.950,323.974 335.158 C 324.103 335.366,324.679 335.655,325.255 335.799 C 325.831 335.944,327.468 337.173,328.893 338.531 C 331.022 340.559,331.931 341.128,333.985 341.718 C 335.790 342.236,336.982 342.903,338.276 344.118 C 339.262 345.043,340.343 345.955,340.679 346.145 C 341.015 346.335,341.598 346.785,341.974 347.145 C 342.350 347.505,343.223 348.290,343.913 348.889 C 344.603 349.488,345.450 350.523,345.794 351.189 C 346.139 351.855,346.641 352.428,346.910 352.463 C 348.436 352.658,349.875 352.768,354.243 353.027 C 360.380 353.390,360.800 353.122,360.800 348.857 L 360.800 346.114 363.133 345.870 C 366.983 345.468,367.309 345.110,367.795 340.748 L 368.046 338.495 370.247 338.313 C 373.128 338.074,374.042 337.182,374.315 334.345 C 374.558 331.816,374.867 331.454,377.386 330.742 C 380.609 329.832,381.559 327.764,381.880 320.953 L 382.052 317.306 384.482 317.086 C 387.722 316.792,388.490 316.019,388.721 312.816 C 388.856 310.961,388.769 310.393,388.348 310.368 C 388.047 310.351,386.576 310.275,385.079 310.200 C 381.791 310.035,381.656 309.933,380.024 306.392 C 378.529 303.148,377.880 302.694,373.101 301.553 C 371.363 301.138,369.681 300.538,369.364 300.221 C 369.046 299.903,368.088 299.251,367.233 298.771 C 366.379 298.291,365.459 297.484,365.188 296.978 C 364.687 296.042,362.678 295.184,357.676 293.772 C 356.288 293.380,354.994 292.763,354.800 292.400 C 354.606 292.038,353.717 291.236,352.824 290.617 L 351.200 289.491 351.200 285.658 C 351.200 279.930,354.633 278.180,363.029 279.628 C 367.659 280.426,368.000 280.508,368.000 280.820 C 368.000 280.994,374.165 281.234,381.700 281.354 C 389.235 281.475,396.435 281.686,397.700 281.823 L 400.000 282.074 400.000 270.637 L 400.000 259.200 331.033 259.200 C 293.101 259.200,261.826 259.123,261.533 259.029 C 261.240 258.935,260.460 259.175,259.800 259.562 M36.000 332.353 C 36.000 332.548,36.706 333.344,37.568 334.124 C 38.431 334.903,39.211 335.959,39.302 336.470 C 39.394 336.982,39.454 336.185,39.437 334.700 L 39.405 332.000 37.702 332.000 C 36.766 332.000,36.000 332.159,36.000 332.353 " stroke="none" fill="#faf8f8" fill-rule="evenodd"></path><path id="path2" d="M111.786 11.361 C 111.176 11.807,110.988 12.541,110.866 14.961 L 110.713 18.000 104.645 18.000 C 97.044 18.000,97.004 18.021,96.614 22.189 L 96.332 25.200 93.266 25.214 C 86.415 25.245,83.573 26.590,82.990 30.077 C 82.628 32.244,82.391 32.386,79.129 32.394 C 75.611 32.402,75.200 32.818,75.200 36.371 L 75.200 39.086 71.945 39.309 C 68.065 39.575,68.014 39.631,68.006 43.667 C 68.002 45.741,67.838 46.799,67.500 46.935 C 67.178 47.065,67.230 47.148,67.644 47.168 C 68.174 47.194,68.300 47.779,68.361 50.500 C 68.449 54.469,69.213 55.421,74.223 57.798 C 75.880 58.584,77.340 59.500,77.468 59.833 C 77.763 60.601,82.150 63.600,82.978 63.600 C 83.320 63.600,83.600 63.756,83.600 63.948 C 83.600 64.139,84.685 64.766,86.012 65.341 C 87.338 65.917,88.839 66.803,89.346 67.310 C 90.636 68.600,93.986 70.653,95.300 70.959 C 95.905 71.100,96.400 71.378,96.400 71.576 C 96.400 71.774,96.930 72.053,97.577 72.195 C 98.840 72.472,101.649 74.344,103.076 75.859 C 103.557 76.370,104.911 77.213,106.085 77.732 C 107.258 78.251,108.489 78.929,108.820 79.238 C 109.150 79.547,110.316 80.250,111.410 80.800 C 112.505 81.350,113.984 82.378,114.699 83.086 C 115.649 84.026,117.030 84.694,119.846 85.574 C 121.963 86.236,123.918 87.082,124.190 87.454 C 124.933 88.470,125.703 87.928,126.911 85.541 L 128.000 83.389 128.005 54.794 C 128.011 22.741,127.590 12.847,126.156 11.413 C 125.297 10.554,112.950 10.510,111.786 11.361 M287.824 11.241 C 287.374 12.519,287.167 21.755,286.970 49.500 C 286.841 67.634,286.616 78.800,286.381 78.800 C 286.171 78.800,286.000 79.610,286.000 80.600 C 286.000 81.590,286.180 82.400,286.400 82.400 C 286.620 82.400,286.800 82.608,286.800 82.862 C 286.800 83.712,288.831 86.000,289.586 86.000 C 290.695 86.000,296.800 83.590,296.800 83.152 C 296.800 82.945,297.115 82.658,297.500 82.514 C 298.121 82.283,301.077 80.163,301.600 79.575 C 301.710 79.451,302.939 78.929,304.331 78.414 C 306.067 77.773,307.198 77.054,307.931 76.126 C 309.110 74.634,311.392 73.169,313.700 72.423 C 314.525 72.156,315.200 71.775,315.200 71.577 C 315.200 71.378,315.695 71.096,316.300 70.951 C 318.097 70.519,320.101 69.358,321.724 67.810 C 322.562 67.010,324.317 65.893,325.624 65.326 C 326.931 64.759,328.000 64.139,328.000 63.948 C 328.000 63.756,328.237 63.600,328.528 63.600 C 329.069 63.600,332.313 61.290,333.973 59.723 C 334.994 58.759,338.540 56.977,340.289 56.549 C 340.900 56.399,341.490 56.169,341.600 56.038 C 341.710 55.907,342.655 55.382,343.700 54.872 C 344.819 54.325,345.607 53.668,345.618 53.272 C 345.628 52.902,345.735 50.520,345.856 47.977 C 346.224 40.213,345.818 39.822,336.900 39.342 L 332.000 39.078 332.000 35.963 C 332.000 32.335,332.069 32.404,328.187 32.110 L 325.200 31.885 325.200 29.968 C 325.200 25.670,324.627 25.215,319.200 25.203 C 316.890 25.197,314.055 25.080,312.900 24.941 L 310.800 24.689 310.800 22.118 C 310.800 18.193,310.604 18.000,306.610 18.000 L 303.249 18.000 302.973 16.100 C 302.340 11.753,301.490 11.298,293.310 10.923 C 288.980 10.725,287.985 10.782,287.824 11.241 M61.700 46.900 C 61.755 47.175,61.575 47.355,61.300 47.300 C 60.593 47.159,60.677 47.867,61.400 48.145 C 61.765 48.285,62.000 48.145,62.000 47.787 C 62.000 47.464,62.191 47.200,62.424 47.200 C 62.657 47.200,62.736 47.020,62.600 46.800 C 62.248 46.230,61.581 46.304,61.700 46.900 M123.146 318.586 C 122.123 319.555,120.580 320.340,117.946 321.231 C 113.384 322.775,112.975 322.983,111.204 324.662 C 110.432 325.394,109.585 325.995,109.323 325.997 C 109.060 325.998,108.602 326.347,108.306 326.771 C 108.009 327.194,106.366 328.158,104.655 328.913 C 102.645 329.800,101.146 330.769,100.417 331.653 C 99.796 332.406,98.324 333.465,97.144 334.007 C 95.965 334.548,94.910 335.094,94.800 335.219 C 94.690 335.343,93.181 336.063,91.446 336.819 C 89.712 337.574,88.028 338.596,87.704 339.091 C 87.042 340.100,83.253 342.400,82.251 342.400 C 81.893 342.400,81.600 342.535,81.599 342.700 C 81.599 342.865,80.596 343.524,79.371 344.164 C 78.146 344.804,76.685 345.929,76.124 346.664 C 75.564 347.399,74.958 348.000,74.779 348.000 C 74.335 348.000,70.384 350.434,69.430 351.295 C 69.006 351.677,68.016 352.095,67.230 352.223 C 61.900 353.091,61.601 353.202,61.574 354.328 C 61.560 354.918,61.455 356.539,61.340 357.931 C 61.152 360.214,61.204 360.454,61.866 360.385 C 62.270 360.343,63.815 360.329,65.300 360.354 L 68.000 360.400 68.000 363.586 C 68.000 367.415,68.202 367.600,72.374 367.600 L 75.200 367.600 75.200 370.810 C 75.200 374.584,75.448 374.800,79.779 374.800 L 82.307 374.800 82.473 377.405 C 82.723 381.342,84.136 381.993,92.447 381.998 L 96.295 382.000 96.490 385.041 C 96.724 388.695,96.830 388.786,100.873 388.794 C 104.228 388.801,104.076 388.683,104.571 391.636 C 105.061 394.552,108.759 395.999,115.725 396.001 L 119.400 396.002 120.400 397.901 C 121.137 399.301,121.872 400.038,123.196 400.706 L 124.993 401.612 125.298 400.506 C 125.466 399.898,125.568 398.733,125.524 397.917 C 125.475 396.995,125.700 396.152,126.118 395.690 C 127.507 394.155,127.676 390.430,127.872 356.913 C 128.044 327.402,127.998 323.788,127.415 321.713 C 125.983 316.616,125.554 316.302,123.146 318.586 M288.882 317.705 C 288.338 318.364,286.800 322.784,286.800 323.686 C 286.800 324.079,286.620 324.400,286.400 324.400 C 286.180 324.400,286.000 325.300,286.000 326.400 C 286.000 327.500,286.166 328.400,286.368 328.400 C 286.588 328.400,286.813 340.966,286.927 359.500 C 287.102 387.972,287.212 392.408,287.814 395.100 C 288.012 395.984,288.121 396.000,293.958 396.000 C 303.001 396.000,303.045 395.979,303.473 391.398 L 303.716 388.800 306.758 388.792 C 313.970 388.773,316.597 387.865,317.015 385.245 C 317.572 381.759,317.312 382.000,320.519 382.000 C 323.962 382.000,325.200 381.362,325.200 379.588 C 325.200 377.694,328.350 374.800,330.411 374.800 C 331.285 374.800,332.000 374.643,332.000 374.452 C 332.000 374.260,332.917 373.981,334.037 373.833 C 336.297 373.533,337.824 372.355,338.184 370.634 C 338.303 370.066,338.488 369.171,338.596 368.647 C 338.774 367.780,339.056 367.670,341.762 367.416 C 345.347 367.081,345.807 366.662,346.176 363.400 C 346.621 359.471,346.717 359.385,349.743 360.200 C 350.372 360.370,351.002 360.349,351.143 360.154 C 351.284 359.959,351.760 359.800,352.200 359.800 C 352.841 359.800,352.976 359.574,352.879 358.664 C 352.803 357.946,352.913 357.623,353.179 357.787 C 353.422 357.937,353.600 357.698,353.600 357.224 C 353.600 355.297,349.968 356.513,349.489 358.600 C 349.388 359.040,349.342 358.897,349.386 358.282 C 349.430 357.668,349.317 357.072,349.133 356.959 C 348.950 356.845,348.779 357.258,348.754 357.876 C 348.728 358.494,348.628 358.700,348.531 358.334 C 348.434 357.968,348.083 357.564,347.751 357.437 C 347.302 357.264,347.210 357.400,347.390 357.969 C 347.523 358.389,347.447 358.847,347.221 358.987 C 346.967 359.144,346.910 358.978,347.073 358.555 C 347.227 358.152,347.175 357.968,346.945 358.110 C 346.710 358.256,346.529 357.369,346.489 355.876 L 346.422 353.400 344.115 351.313 C 342.846 350.166,341.044 348.834,340.111 348.354 C 339.178 347.874,338.153 347.082,337.833 346.594 C 337.184 345.604,333.988 343.600,333.057 343.600 C 332.727 343.600,332.208 343.351,331.903 343.046 C 331.599 342.742,330.607 342.114,329.698 341.650 C 328.790 341.187,327.593 340.213,327.039 339.487 C 326.340 338.571,325.046 337.750,322.816 336.807 C 321.047 336.059,319.600 335.337,319.600 335.203 C 319.600 335.068,318.722 334.642,317.648 334.256 C 316.575 333.870,315.283 333.115,314.779 332.577 C 314.274 332.040,313.622 331.600,313.330 331.600 C 313.039 331.600,312.800 331.424,312.800 331.208 C 312.800 330.993,311.384 330.122,309.654 329.274 C 307.923 328.426,306.258 327.528,305.954 327.280 C 305.649 327.031,304.770 326.312,304.000 325.681 C 303.230 325.051,302.285 324.420,301.900 324.280 C 301.515 324.140,301.200 323.864,301.200 323.668 C 301.200 323.141,298.134 321.693,295.485 320.968 C 294.212 320.620,292.862 320.021,292.485 319.638 C 290.937 318.065,289.306 317.190,288.882 317.705 M351.028 353.646 C 351.125 353.803,350.979 354.023,350.702 354.134 C 350.343 354.279,350.335 354.346,350.676 354.368 C 350.938 354.386,351.264 354.220,351.400 354.000 C 351.536 353.780,351.837 353.600,352.068 353.600 C 352.299 353.600,352.064 353.954,351.544 354.387 C 350.856 354.960,350.763 355.188,351.200 355.227 C 351.530 355.256,351.350 355.424,350.800 355.600 C 349.959 355.869,350.077 355.927,351.545 355.960 C 353.261 355.999,353.288 355.980,353.116 354.810 C 353.020 354.155,353.135 353.535,353.371 353.431 C 353.607 353.328,353.137 353.269,352.326 353.302 C 351.515 353.334,350.931 353.489,351.028 353.646 M352.552 358.618 C 352.669 358.924,352.565 359.298,352.321 359.449 C 352.031 359.628,351.991 359.539,352.204 359.194 C 352.439 358.813,352.350 358.733,351.886 358.912 C 351.406 359.096,351.302 358.985,351.479 358.480 C 351.674 357.926,351.618 357.892,351.179 358.300 C 350.520 358.911,350.000 358.945,350.000 358.376 C 350.000 358.143,350.168 358.056,350.372 358.183 C 350.577 358.309,350.853 358.238,350.985 358.024 C 351.294 357.524,352.275 357.896,352.552 358.618 " stroke="none" fill="#17175b" fill-rule="evenodd"></path><path id="path3" d="M154.400 1.974 C 154.400 3.060,154.575 4.409,154.790 4.973 C 155.004 5.537,155.201 8.248,155.226 10.999 C 155.252 13.750,155.437 16.000,155.637 16.000 C 155.853 16.000,156.000 41.031,156.000 77.800 C 156.000 118.733,155.865 139.600,155.600 139.600 C 155.363 139.600,155.200 141.046,155.200 143.138 C 155.200 146.027,155.072 146.779,154.500 147.238 C 153.820 147.784,6.127 147.735,4.409 147.188 C 4.029 147.067,3.770 147.320,3.682 147.900 C 3.547 148.784,3.617 148.800,7.692 148.800 C 10.477 148.800,12.004 148.964,12.340 149.300 C 12.735 149.695,27.635 149.823,83.554 149.911 L 154.267 150.021 155.517 148.911 C 157.689 146.979,157.601 150.001,157.588 78.274 C 157.575 9.132,157.504 5.801,156.002 4.202 C 155.463 3.628,155.200 2.799,155.200 1.674 C 155.200 0.753,155.020 0.000,154.800 0.000 C 154.580 0.000,154.400 0.888,154.400 1.974 M258.800 3.947 C 256.298 4.580,256.211 4.764,256.066 9.771 C 255.992 12.317,255.767 14.400,255.566 14.400 C 255.346 14.400,255.200 39.938,255.200 78.200 C 255.200 120.467,255.335 142.000,255.600 142.000 C 255.822 142.000,256.000 143.055,256.000 144.364 C 256.000 146.552,256.097 146.807,257.300 147.770 C 258.015 148.343,258.866 149.034,259.190 149.306 C 259.652 149.693,274.968 149.822,329.890 149.903 L 400.000 150.007 400.000 148.803 L 400.000 147.600 330.300 147.591 C 262.183 147.582,260.577 147.565,259.600 146.814 L 258.600 146.046 258.487 78.523 C 258.371 9.616,258.452 5.253,259.861 4.185 C 260.645 3.591,260.415 3.539,258.800 3.947 M126.103 11.360 C 127.595 12.852,128.011 22.365,128.005 54.794 L 128.000 83.389 126.911 85.541 C 125.703 87.928,124.933 88.470,124.190 87.454 C 123.918 87.082,121.963 86.236,119.846 85.574 C 117.030 84.694,115.649 84.026,114.699 83.086 C 113.984 82.378,112.505 81.350,111.410 80.800 C 110.316 80.250,109.150 79.547,108.820 79.238 C 108.489 78.929,107.258 78.251,106.085 77.732 C 104.911 77.213,103.557 76.370,103.076 75.859 C 101.649 74.344,98.840 72.472,97.577 72.195 C 96.930 72.053,96.400 71.774,96.400 71.576 C 96.400 71.378,95.905 71.100,95.300 70.959 C 93.986 70.653,90.636 68.600,89.346 67.310 C 88.839 66.803,87.338 65.917,86.012 65.341 C 84.685 64.766,83.600 64.139,83.600 63.948 C 83.600 63.756,83.320 63.600,82.978 63.600 C 82.150 63.600,77.763 60.601,77.468 59.833 C 77.340 59.500,75.880 58.584,74.223 57.798 C 69.213 55.421,68.449 54.469,68.361 50.500 C 68.300 47.767,68.177 47.199,67.644 47.194 C 67.082 47.189,67.076 47.138,67.600 46.800 C 68.068 46.498,67.957 46.411,67.100 46.406 C 66.319 46.402,65.998 46.603,65.994 47.100 C 65.989 47.648,65.913 47.681,65.642 47.255 C 65.351 46.794,65.263 46.794,65.080 47.255 C 64.929 47.635,64.854 47.588,64.832 47.100 C 64.813 46.699,64.501 46.413,64.100 46.432 C 63.682 46.450,63.601 46.544,63.900 46.665 C 64.175 46.776,64.400 47.042,64.400 47.257 C 64.400 47.472,64.210 47.530,63.977 47.386 C 63.246 46.934,61.591 46.890,61.328 47.316 C 61.184 47.549,61.274 47.602,61.538 47.438 C 61.815 47.267,62.000 47.413,62.000 47.800 C 62.000 48.156,61.839 48.348,61.642 48.226 C 61.445 48.104,61.165 48.315,61.019 48.695 C 60.873 49.074,60.926 49.442,61.135 49.512 C 61.371 49.590,61.356 50.062,61.097 50.749 C 60.094 53.405,62.099 54.734,67.233 54.815 C 67.872 54.826,68.472 55.258,69.000 56.090 C 69.754 57.276,73.211 59.558,74.297 59.587 C 74.570 59.594,75.920 60.742,77.297 62.137 C 78.919 63.781,80.363 64.855,81.400 65.186 C 83.954 66.001,86.890 67.697,88.089 69.051 C 88.698 69.739,89.737 70.525,90.398 70.799 C 91.059 71.073,91.600 71.450,91.600 71.637 C 91.600 71.825,92.635 72.267,93.900 72.621 C 97.097 73.515,99.600 74.705,99.600 75.332 C 99.600 76.051,101.088 77.326,102.881 78.144 C 103.696 78.516,104.596 79.046,104.881 79.322 C 105.167 79.598,106.660 80.379,108.200 81.058 C 110.057 81.876,111.168 82.631,111.499 83.298 C 112.017 84.343,115.175 86.069,117.500 86.579 C 118.215 86.735,118.800 86.994,118.800 87.153 C 118.800 87.312,119.715 87.771,120.833 88.173 C 121.951 88.575,123.166 89.212,123.533 89.588 C 124.823 90.910,125.478 90.832,126.974 89.176 C 127.758 88.308,128.400 87.328,128.400 86.999 C 128.400 86.669,128.572 86.400,128.781 86.400 C 130.005 86.400,130.682 33.598,129.603 22.342 C 128.687 12.789,128.351 11.590,126.419 10.996 C 125.503 10.715,125.482 10.739,126.103 11.360 M286.178 11.389 C 286.108 11.615,285.954 13.600,285.836 15.800 C 285.719 18.000,285.453 20.880,285.245 22.200 C 284.668 25.869,284.685 83.437,285.264 84.519 C 285.768 85.462,288.700 88.401,289.133 88.398 C 289.765 88.392,292.618 87.487,292.800 87.233 C 292.910 87.080,294.170 86.537,295.600 86.026 C 298.598 84.954,300.400 83.801,300.400 82.956 C 300.400 82.386,304.852 80.001,305.917 80.000 C 306.201 80.000,306.651 79.821,306.917 79.603 C 307.183 79.385,308.345 78.481,309.500 77.594 C 310.655 76.707,311.600 75.803,311.600 75.586 C 311.600 75.173,314.927 73.576,317.967 72.531 C 318.939 72.196,319.987 71.670,320.296 71.361 C 320.605 71.053,321.081 70.800,321.354 70.800 C 321.924 70.800,323.999 68.745,324.001 68.178 C 324.002 67.970,325.526 67.202,327.388 66.470 C 329.250 65.739,331.185 64.707,331.687 64.177 C 332.189 63.647,332.790 63.211,333.022 63.207 C 333.253 63.203,334.054 62.570,334.800 61.800 C 335.546 61.030,336.392 60.400,336.678 60.400 C 336.965 60.400,337.200 60.218,337.200 59.995 C 337.200 59.772,338.055 59.213,339.100 58.752 C 345.704 55.842,346.314 55.109,346.342 50.053 C 346.371 44.807,345.757 47.221,345.625 52.872 C 345.605 53.744,345.246 54.117,343.700 54.872 C 342.655 55.382,341.710 55.907,341.600 56.038 C 341.490 56.169,340.900 56.399,340.289 56.549 C 338.540 56.977,334.994 58.759,333.973 59.723 C 332.313 61.290,329.069 63.600,328.528 63.600 C 328.237 63.600,328.000 63.756,328.000 63.948 C 328.000 64.139,326.931 64.759,325.624 65.326 C 324.317 65.893,322.562 67.010,321.724 67.810 C 320.101 69.358,318.097 70.519,316.300 70.951 C 315.695 71.096,315.200 71.378,315.200 71.577 C 315.200 71.775,314.525 72.156,313.700 72.423 C 311.392 73.169,309.110 74.634,307.931 76.126 C 307.198 77.054,306.067 77.773,304.331 78.414 C 302.939 78.929,301.710 79.451,301.600 79.575 C 300.976 80.278,297.980 82.400,297.611 82.400 C 297.371 82.400,297.075 82.660,296.953 82.978 C 296.718 83.592,290.846 86.000,289.586 86.000 C 288.831 86.000,286.800 83.712,286.800 82.862 C 286.800 82.608,286.620 82.400,286.400 82.400 C 286.180 82.400,286.000 81.590,286.000 80.600 C 286.000 79.610,286.171 78.800,286.381 78.800 C 286.616 78.800,286.838 67.639,286.962 49.500 C 287.073 33.385,287.306 18.099,287.481 15.532 C 287.783 11.116,287.759 10.866,287.053 10.920 C 286.643 10.952,286.249 11.162,286.178 11.389 M360.067 69.106 C 359.632 69.717,358.963 71.294,358.581 72.609 C 357.726 75.554,356.727 76.466,353.060 77.645 C 350.459 78.481,347.200 80.915,347.200 82.021 C 347.200 82.200,346.795 82.472,346.300 82.627 C 345.805 82.781,345.310 83.019,345.200 83.154 C 345.090 83.289,344.010 83.720,342.800 84.110 C 338.810 85.398,336.124 86.909,335.386 88.279 C 334.713 89.527,332.721 90.800,331.440 90.800 C 331.088 90.800,330.800 90.960,330.800 91.157 C 330.800 91.353,330.305 91.634,329.700 91.781 C 328.128 92.164,325.600 93.905,325.600 94.606 C 325.600 94.933,325.340 95.200,325.023 95.200 C 324.705 95.200,324.210 95.534,323.923 95.943 C 323.635 96.352,322.275 97.096,320.900 97.597 C 319.525 98.098,318.400 98.663,318.400 98.854 C 318.400 99.044,318.044 99.200,317.608 99.200 C 315.451 99.200,311.863 101.327,311.196 103.000 C 310.968 103.575,309.824 104.132,307.139 104.977 C 305.083 105.625,303.162 106.390,302.871 106.677 C 302.581 106.965,302.030 107.200,301.647 107.200 C 300.872 107.200,298.402 109.441,298.397 110.147 C 298.394 110.717,296.185 112.238,294.515 112.820 C 293.818 113.063,292.756 113.923,292.155 114.731 C 291.554 115.539,290.725 116.529,290.314 116.931 C 288.887 118.327,291.718 122.140,294.694 122.831 C 299.049 123.842,363.682 123.130,364.371 122.063 C 364.497 121.868,365.342 121.331,366.250 120.871 C 367.157 120.411,368.371 119.475,368.947 118.790 C 369.523 118.106,370.490 117.391,371.097 117.202 C 376.717 115.451,381.200 112.536,381.200 110.634 C 381.200 109.695,382.189 109.227,385.016 108.826 C 388.093 108.391,389.175 107.508,389.191 105.424 C 389.199 104.321,389.165 104.295,388.644 105.008 C 388.207 105.605,387.454 105.804,385.144 105.930 L 382.200 106.091 379.186 109.226 C 376.819 111.688,375.681 112.549,373.886 113.236 C 372.629 113.717,371.600 114.266,371.600 114.456 C 371.600 114.645,371.338 114.800,371.018 114.800 C 369.973 114.800,365.175 117.299,364.771 118.054 C 363.541 120.353,362.989 120.399,336.522 120.410 C 323.145 120.416,310.400 120.599,308.200 120.818 C 301.497 121.484,292.982 119.821,293.687 117.983 C 293.867 117.515,297.238 114.800,297.639 114.800 C 298.067 114.800,300.856 111.814,301.321 110.859 C 301.744 109.988,308.760 106.800,310.253 106.800 C 310.554 106.800,310.800 106.652,310.800 106.471 C 310.800 106.290,311.565 105.758,312.500 105.289 C 313.435 104.821,314.759 103.844,315.442 103.118 C 316.396 102.106,317.638 101.492,320.793 100.474 C 324.891 99.151,325.373 98.845,329.330 95.040 C 329.765 94.621,331.489 93.710,333.160 93.014 C 334.833 92.318,336.920 91.077,337.800 90.255 C 338.680 89.432,339.985 88.508,340.700 88.200 C 341.415 87.893,342.000 87.471,342.000 87.264 C 342.000 87.057,343.475 86.373,345.278 85.744 C 347.813 84.859,348.914 84.223,350.135 82.935 C 351.004 82.019,352.409 80.957,353.257 80.574 C 354.106 80.192,354.800 79.726,354.800 79.539 C 354.800 79.353,355.025 79.196,355.300 79.192 C 356.010 79.180,360.800 76.057,360.800 75.606 C 360.800 75.400,362.375 75.179,364.300 75.116 L 367.800 75.000 367.838 72.721 C 367.859 71.442,367.705 70.476,367.488 70.521 C 367.274 70.564,367.009 70.350,366.898 70.044 C 366.781 69.722,366.874 69.599,367.120 69.751 C 367.354 69.895,367.643 69.854,367.763 69.659 C 367.884 69.465,367.630 69.327,367.201 69.353 C 366.771 69.379,366.433 69.220,366.450 69.000 C 366.466 68.780,366.642 68.645,366.840 68.700 C 367.038 68.755,367.200 68.640,367.200 68.443 C 367.200 67.394,360.867 67.982,360.067 69.106 M25.436 97.350 C 25.850 98.429,27.541 99.206,30.045 99.468 C 31.980 99.670,32.874 100.009,34.254 101.062 C 35.218 101.798,36.107 102.400,36.229 102.400 C 36.352 102.400,36.895 102.927,37.437 103.571 C 37.979 104.215,39.228 105.050,40.211 105.426 C 41.195 105.801,42.000 106.250,42.000 106.423 C 42.000 106.595,42.585 106.863,43.300 107.017 C 47.842 107.998,49.644 108.858,52.113 111.221 C 53.481 112.530,54.870 113.709,55.200 113.841 C 55.530 113.973,56.608 114.981,57.595 116.082 L 59.391 118.083 58.195 119.046 C 55.876 120.915,53.259 121.097,35.200 120.639 C 23.961 120.354,20.554 119.951,18.990 118.721 C 18.229 118.122,17.528 117.990,15.711 118.104 L 13.400 118.249 15.690 118.324 C 17.782 118.393,18.032 118.501,18.584 119.568 C 20.296 122.879,22.362 123.206,41.373 123.176 C 58.713 123.149,59.922 123.038,61.495 121.328 C 63.886 118.729,64.692 117.200,63.672 117.200 C 63.491 117.200,62.543 116.435,61.565 115.500 C 60.587 114.565,58.935 113.103,57.894 112.252 C 56.852 111.400,55.995 110.500,55.990 110.252 C 55.976 109.653,52.495 107.327,51.100 106.984 C 50.495 106.835,50.000 106.561,50.000 106.375 C 50.000 106.189,49.325 105.923,48.500 105.785 C 45.496 105.281,42.978 104.246,41.868 103.059 C 40.578 101.678,36.883 99.200,36.113 99.200 C 35.831 99.200,35.600 99.056,35.600 98.880 C 35.600 98.305,33.060 97.655,29.800 97.396 C 28.040 97.256,26.286 97.053,25.903 96.945 C 25.405 96.804,25.271 96.921,25.436 97.350 M3.606 257.651 C 3.596 259.434,2.246 259.406,79.200 259.200 C 153.332 259.001,153.807 259.005,154.878 259.800 L 155.956 260.600 155.978 328.500 C 155.990 366.663,155.848 396.400,155.653 396.400 C 155.462 396.400,155.193 397.705,155.057 399.300 C 154.920 400.895,154.694 403.235,154.554 404.500 C 154.320 406.627,154.362 406.800,155.112 406.800 C 155.784 406.800,155.958 406.474,156.128 404.900 C 156.241 403.855,156.615 401.830,156.959 400.400 C 157.750 397.106,157.943 261.427,157.159 259.874 C 156.916 259.393,156.166 258.500,155.492 257.889 L 154.267 256.779 83.034 256.967 C 43.855 257.070,10.109 257.268,8.042 257.407 C 5.141 257.602,4.208 257.539,3.948 257.130 C 3.717 256.766,3.610 256.929,3.606 257.651 M259.693 257.067 C 258.410 257.584,256.000 260.193,256.000 261.066 C 256.000 261.580,255.820 262.000,255.600 262.000 C 255.335 262.000,255.205 284.757,255.214 329.500 C 255.229 400.464,255.238 400.853,256.954 402.749 C 257.331 403.166,257.600 404.157,257.600 405.131 C 257.600 406.719,257.658 406.800,258.800 406.800 C 260.253 406.800,260.534 404.387,259.300 402.504 C 258.640 401.496,258.600 397.399,258.600 330.823 L 258.600 260.211 259.668 259.699 C 260.524 259.289,274.593 259.189,330.368 259.197 L 400.000 259.207 400.000 258.003 L 400.000 256.800 330.100 256.832 C 291.655 256.849,259.972 256.955,259.693 257.067 M110.400 279.712 C 107.210 280.164,104.540 280.683,104.467 280.867 C 104.393 281.050,92.940 281.200,79.016 281.200 C 58.610 281.200,53.613 281.302,53.262 281.725 C 53.023 282.014,51.246 282.769,49.313 283.404 C 47.381 284.040,45.710 284.676,45.600 284.818 C 45.490 284.960,44.927 285.192,44.349 285.334 C 43.068 285.647,40.142 287.954,39.886 288.853 C 39.783 289.211,39.002 289.720,38.150 289.982 C 35.978 290.651,32.239 292.106,32.000 292.375 C 31.890 292.499,30.909 293.054,29.821 293.608 C 28.107 294.481,27.663 294.979,26.517 297.308 L 25.193 300.000 22.297 300.047 C 20.703 300.073,19.236 300.064,19.037 300.026 C 18.625 299.949,18.015 300.781,18.006 301.433 C 17.999 301.915,17.878 301.890,21.903 302.237 L 24.806 302.486 28.015 299.234 C 30.996 296.213,36.483 292.800,38.360 292.800 C 38.602 292.800,38.800 292.634,38.800 292.431 C 38.800 292.228,39.433 291.853,40.207 291.598 C 40.981 291.342,42.286 290.496,43.107 289.717 C 45.233 287.700,45.796 287.391,49.600 286.155 C 51.470 285.547,53.090 284.928,53.200 284.778 C 53.310 284.628,67.989 284.420,85.820 284.315 L 118.240 284.124 118.976 286.428 C 120.003 289.642,118.870 290.963,114.300 291.879 C 113.695 292.001,113.200 292.241,113.200 292.413 C 113.200 292.585,112.260 292.967,111.111 293.262 C 109.487 293.678,108.498 294.301,106.674 296.058 C 104.980 297.690,103.642 298.568,101.864 299.213 C 100.509 299.704,99.310 300.230,99.200 300.381 C 99.090 300.532,98.177 301.048,97.171 301.529 C 96.166 302.009,94.642 303.026,93.785 303.789 C 92.927 304.551,91.770 305.342,91.213 305.547 C 90.656 305.752,89.075 306.320,87.700 306.809 C 86.325 307.298,85.200 307.822,85.200 307.975 C 85.200 308.128,84.525 308.636,83.700 309.104 C 82.875 309.571,81.570 310.557,80.800 311.293 C 80.030 312.029,78.050 313.239,76.400 313.983 C 74.750 314.727,73.310 315.440,73.200 315.568 C 73.090 315.695,72.100 316.505,71.000 317.366 C 69.900 318.227,68.806 319.164,68.570 319.447 C 68.333 319.731,66.773 320.409,65.103 320.954 C 60.969 322.303,59.867 322.928,57.947 325.011 C 57.040 325.995,56.051 326.800,55.749 326.800 C 55.447 326.800,55.200 326.965,55.200 327.167 C 55.200 327.369,54.345 327.843,53.300 328.221 C 50.531 329.223,47.892 330.445,47.169 331.061 C 46.788 331.386,45.445 331.617,43.769 331.645 C 39.769 331.713,38.031 333.049,39.513 334.916 C 39.724 335.182,39.848 335.703,39.788 336.072 C 39.713 336.538,39.872 336.671,40.305 336.504 C 40.718 336.346,40.833 336.423,40.642 336.732 C 40.478 336.998,40.579 337.203,40.876 337.206 C 41.293 337.211,41.290 337.282,40.857 337.556 C 40.476 337.798,40.447 337.982,40.760 338.175 C 41.005 338.327,41.309 338.181,41.436 337.851 C 41.565 337.515,41.931 337.352,42.267 337.481 C 42.682 337.640,42.727 337.798,42.413 337.992 C 42.164 338.146,42.553 338.264,43.280 338.253 C 44.006 338.242,45.098 338.365,45.706 338.526 C 46.672 338.781,46.864 338.677,47.215 337.709 C 47.436 337.099,47.780 336.240,47.979 335.800 C 48.179 335.360,48.447 334.359,48.575 333.575 C 48.835 331.987,49.895 331.338,54.000 330.257 C 57.914 329.225,59.001 328.556,60.725 326.115 C 61.338 325.247,62.089 324.745,63.036 324.567 C 63.808 324.422,64.655 324.092,64.920 323.833 C 65.184 323.575,66.840 322.858,68.600 322.241 C 72.139 320.999,72.907 320.473,73.590 318.825 C 73.966 317.916,74.591 317.529,76.926 316.754 C 78.507 316.229,80.063 315.550,80.384 315.244 C 80.705 314.939,81.565 314.439,82.295 314.135 C 83.025 313.830,84.102 312.906,84.689 312.082 C 85.852 310.448,89.355 308.400,90.987 308.400 C 91.544 308.400,92.000 308.234,92.000 308.032 C 92.000 307.829,92.585 307.543,93.300 307.395 C 94.813 307.083,97.049 305.712,98.738 304.061 C 99.391 303.422,101.247 302.384,102.863 301.753 C 106.472 300.343,107.448 299.627,109.687 296.743 C 110.612 295.553,111.151 295.274,113.287 294.880 C 118.008 294.010,119.893 293.254,121.753 291.488 L 123.531 289.800 123.763 286.000 C 124.176 279.222,121.790 278.100,110.400 279.712 M356.147 279.546 C 351.909 279.985,351.200 280.853,351.200 285.605 L 351.200 289.491 352.824 290.617 C 353.717 291.236,354.606 292.038,354.800 292.400 C 354.994 292.763,356.288 293.380,357.676 293.772 C 362.678 295.184,364.687 296.042,365.188 296.978 C 365.459 297.484,366.379 298.291,367.233 298.771 C 368.088 299.251,369.046 299.903,369.364 300.221 C 369.681 300.538,371.363 301.138,373.101 301.553 C 377.880 302.694,378.529 303.148,380.024 306.392 C 381.666 309.954,381.766 310.027,385.248 310.180 C 388.470 310.321,389.760 309.752,388.512 308.740 C 387.943 308.278,387.891 308.287,388.154 308.800 C 388.323 309.130,388.087 308.975,387.630 308.456 C 387.149 307.909,386.800 307.734,386.800 308.041 C 386.800 308.443,386.650 308.421,386.181 307.952 C 385.717 307.488,385.126 307.399,383.830 307.595 L 382.098 307.858 381.887 305.524 C 381.655 302.970,380.943 302.046,378.500 301.128 C 377.785 300.859,377.200 300.510,377.200 300.351 C 377.200 300.193,376.642 299.941,375.959 299.791 C 373.799 299.317,370.394 297.563,369.764 296.600 C 369.068 295.539,365.701 293.838,362.903 293.134 C 361.856 292.871,360.762 292.418,360.471 292.128 C 360.181 291.837,359.727 291.600,359.464 291.600 C 357.917 291.600,356.053 289.610,356.416 288.344 C 357.544 284.413,359.371 283.443,364.600 284.001 C 366.580 284.213,372.100 284.389,376.867 284.393 C 383.064 284.398,385.577 284.532,385.688 284.863 C 385.791 285.174,387.542 285.358,391.038 285.426 L 396.234 285.528 396.217 283.664 L 396.200 281.801 394.400 281.530 C 393.410 281.381,387.065 281.246,380.300 281.230 C 373.535 281.213,368.000 281.056,368.000 280.880 C 368.000 280.011,360.172 279.130,356.147 279.546 M123.462 315.300 C 120.540 317.985,118.657 319.200,117.420 319.200 C 117.079 319.200,116.800 319.357,116.800 319.548 C 116.800 319.739,115.945 320.128,114.900 320.411 C 111.983 321.201,110.004 322.329,108.433 324.097 C 107.645 324.983,106.415 325.956,105.700 326.259 C 104.985 326.563,104.400 326.960,104.400 327.141 C 104.400 327.323,103.635 327.712,102.700 328.005 C 100.758 328.615,97.724 330.693,97.404 331.633 C 97.285 331.982,95.616 332.862,93.694 333.589 C 91.772 334.316,90.110 335.042,90.000 335.203 C 89.890 335.364,88.859 335.970,87.709 336.550 C 86.450 337.185,85.381 338.064,85.021 338.760 C 84.544 339.682,83.748 340.160,81.096 341.120 C 77.798 342.313,76.731 343.017,73.246 346.300 C 72.253 347.235,71.322 348.000,71.176 348.000 C 71.030 348.000,70.231 348.540,69.400 349.200 C 68.569 349.860,67.501 350.400,67.025 350.400 C 66.549 350.400,65.989 350.558,65.780 350.752 C 65.571 350.945,64.747 351.312,63.948 351.567 C 61.921 352.214,61.107 353.230,61.308 354.863 L 61.472 356.200 61.536 354.728 C 61.605 353.132,61.581 353.143,67.230 352.223 C 68.016 352.095,69.006 351.677,69.430 351.295 C 70.384 350.434,74.335 348.000,74.779 348.000 C 74.958 348.000,75.564 347.399,76.124 346.664 C 76.685 345.929,78.146 344.804,79.371 344.164 C 80.596 343.524,81.599 342.865,81.599 342.700 C 81.600 342.535,81.893 342.400,82.251 342.400 C 83.253 342.400,87.042 340.100,87.704 339.091 C 88.028 338.596,89.712 337.574,91.446 336.819 C 93.181 336.063,94.690 335.343,94.800 335.219 C 94.910 335.094,95.965 334.548,97.144 334.007 C 98.324 333.465,99.796 332.406,100.417 331.653 C 101.146 330.769,102.645 329.800,104.655 328.913 C 106.366 328.158,108.009 327.194,108.306 326.771 C 108.602 326.347,109.060 325.998,109.323 325.997 C 109.585 325.995,110.432 325.394,111.204 324.662 C 112.975 322.983,113.384 322.775,117.946 321.231 C 120.580 320.340,122.123 319.555,123.146 318.586 C 125.554 316.302,125.983 316.616,127.415 321.713 C 128.831 326.755,127.863 393.637,126.348 395.463 C 125.826 396.092,126.161 396.156,127.165 395.619 C 129.543 394.346,130.000 387.268,130.000 351.708 C 130.000 323.040,129.840 319.392,128.526 318.071 C 128.237 317.781,128.000 317.416,128.000 317.261 C 128.000 316.694,125.628 314.400,125.043 314.400 C 124.712 314.400,124.000 314.805,123.462 315.300 M288.544 315.172 C 284.608 318.946,284.773 317.306,284.803 352.517 C 284.817 369.191,284.913 383.501,285.016 384.317 C 285.120 385.133,285.367 387.939,285.565 390.554 C 285.920 395.226,286.186 395.978,287.490 395.994 C 287.806 395.998,287.911 395.609,287.786 394.900 C 287.679 394.295,287.483 393.080,287.352 392.200 C 287.220 391.320,287.028 376.605,286.924 359.500 C 286.812 340.964,286.588 328.400,286.368 328.400 C 286.166 328.400,286.000 327.500,286.000 326.400 C 286.000 325.300,286.180 324.400,286.400 324.400 C 286.620 324.400,286.800 324.079,286.800 323.686 C 286.800 322.784,288.338 318.364,288.882 317.705 C 289.306 317.190,290.937 318.065,292.485 319.638 C 292.862 320.021,294.212 320.620,295.485 320.968 C 298.319 321.743,301.072 323.090,301.360 323.841 C 301.478 324.149,301.782 324.400,302.035 324.400 C 302.288 324.400,303.148 324.946,303.947 325.614 C 304.746 326.282,305.649 327.031,305.954 327.280 C 306.258 327.528,307.923 328.426,309.654 329.274 C 311.384 330.122,312.800 330.993,312.800 331.208 C 312.800 331.424,313.039 331.600,313.330 331.600 C 313.622 331.600,314.274 332.040,314.779 332.577 C 315.283 333.115,316.575 333.870,317.648 334.256 C 318.722 334.642,319.600 335.068,319.600 335.203 C 319.600 335.337,321.047 336.059,322.816 336.807 C 325.046 337.750,326.340 338.571,327.039 339.487 C 327.593 340.213,328.790 341.187,329.698 341.650 C 330.607 342.114,331.599 342.742,331.903 343.046 C 332.208 343.351,332.727 343.600,333.057 343.600 C 333.988 343.600,337.184 345.604,337.833 346.594 C 338.153 347.082,339.178 347.874,340.111 348.354 C 341.044 348.834,342.846 350.166,344.115 351.313 L 346.422 353.400 346.489 355.876 C 346.529 357.369,346.710 358.256,346.945 358.110 C 347.175 357.968,347.227 358.152,347.073 358.555 C 346.910 358.978,346.967 359.144,347.221 358.987 C 347.447 358.847,347.523 358.389,347.390 357.969 C 347.210 357.400,347.302 357.264,347.751 357.437 C 348.083 357.564,348.434 357.968,348.531 358.334 C 348.628 358.700,348.728 358.494,348.754 357.876 C 348.779 357.258,348.950 356.845,349.133 356.959 C 349.317 357.072,349.431 357.668,349.388 358.282 C 349.345 358.907,349.384 359.022,349.478 358.542 C 349.709 357.356,350.774 356.492,352.200 356.333 C 353.351 356.205,354.394 353.600,353.295 353.600 C 353.099 353.600,353.018 354.140,353.115 354.800 C 353.288 355.982,353.264 355.999,351.545 355.960 C 350.077 355.927,349.959 355.869,350.800 355.600 C 351.350 355.424,351.530 355.256,351.200 355.227 C 350.763 355.188,350.856 354.960,351.544 354.387 C 352.064 353.954,352.299 353.600,352.068 353.600 C 351.837 353.600,351.536 353.780,351.400 354.000 C 351.264 354.220,350.938 354.386,350.676 354.368 C 350.335 354.346,350.343 354.279,350.702 354.134 C 350.979 354.023,351.086 353.739,350.941 353.504 C 350.795 353.269,350.848 353.182,351.057 353.312 C 351.267 353.441,351.700 353.382,352.019 353.180 C 352.426 352.922,352.062 352.798,350.800 352.764 C 349.810 352.737,348.730 352.675,348.400 352.626 C 348.070 352.577,347.490 352.506,347.110 352.468 C 346.731 352.431,346.139 351.855,345.794 351.189 C 345.450 350.523,344.603 349.488,343.913 348.889 C 343.223 348.290,342.350 347.505,341.974 347.145 C 341.598 346.785,341.015 346.335,340.679 346.145 C 340.343 345.955,339.262 345.043,338.276 344.118 C 336.982 342.903,335.790 342.236,333.985 341.718 C 331.931 341.128,331.022 340.559,328.893 338.531 C 327.468 337.173,325.831 335.944,325.255 335.799 C 324.679 335.655,324.103 335.366,323.974 335.158 C 323.845 334.950,322.584 334.353,321.170 333.833 C 316.733 332.198,316.400 332.033,316.400 331.472 C 316.400 330.589,315.187 329.744,312.229 328.564 C 310.705 327.956,309.130 327.130,308.729 326.729 C 308.328 326.328,307.865 326.000,307.699 326.000 C 307.534 326.000,306.385 325.055,305.145 323.900 C 302.971 321.874,299.341 320.000,297.591 320.000 C 297.156 320.000,296.800 319.840,296.800 319.643 C 296.800 319.447,296.093 319.004,295.229 318.658 C 294.365 318.313,292.970 317.330,292.129 316.476 C 290.220 314.535,289.486 314.268,288.544 315.172 M350.985 358.024 C 350.853 358.238,350.577 358.309,350.372 358.183 C 350.168 358.056,350.000 358.143,350.000 358.376 C 350.000 358.945,350.520 358.911,351.179 358.300 C 351.618 357.892,351.674 357.926,351.479 358.480 C 351.302 358.985,351.406 359.096,351.886 358.912 C 352.350 358.733,352.439 358.813,352.204 359.194 C 351.991 359.539,352.031 359.628,352.321 359.449 C 352.565 359.298,352.669 358.924,352.552 358.618 C 352.275 357.896,351.294 357.524,350.985 358.024 M346.800 360.087 C 346.800 360.259,347.370 360.400,348.067 360.400 C 348.763 360.400,349.212 360.279,349.064 360.130 C 348.681 359.747,346.800 359.711,346.800 360.087 " stroke="none" fill="#fc8484" fill-rule="evenodd"></path><path id="path4" d="M155.200 1.674 C 155.200 2.799,155.463 3.628,156.002 4.202 C 157.504 5.801,157.575 9.132,157.588 78.274 C 157.601 150.001,157.689 146.979,155.517 148.911 L 154.267 150.021 83.554 149.911 C 27.635 149.823,12.735 149.695,12.340 149.300 C 11.278 148.238,3.600 148.637,3.600 149.755 C 3.600 150.505,3.879 150.772,4.900 151.003 C 7.830 151.666,153.666 151.846,155.600 151.188 C 159.337 149.919,159.000 157.302,159.000 76.800 L 159.000 6.200 158.100 4.677 C 157.576 3.791,157.200 2.495,157.200 1.577 C 157.200 0.162,157.098 0.000,156.200 0.000 C 155.293 0.000,155.200 0.155,155.200 1.674 M252.794 1.900 C 252.790 2.945,252.527 4.880,252.208 6.200 C 251.494 9.158,251.290 143.200,252.000 143.200 C 252.220 143.200,252.400 143.909,252.400 144.775 C 252.400 145.967,252.692 146.671,253.600 147.664 C 254.260 148.387,254.800 149.128,254.800 149.311 C 254.800 149.887,258.927 151.560,260.600 151.663 C 271.118 152.306,400.000 151.511,400.000 150.803 C 400.000 150.011,399.602 150.006,329.890 149.903 C 274.968 149.822,259.652 149.693,259.190 149.306 C 258.866 149.034,258.015 148.343,257.300 147.770 C 256.097 146.807,256.000 146.552,256.000 144.364 C 256.000 143.055,255.822 142.000,255.600 142.000 C 255.335 142.000,255.200 120.467,255.200 78.200 C 255.200 39.938,255.346 14.400,255.566 14.400 C 255.767 14.400,255.992 12.317,256.066 9.771 C 256.211 4.760,256.336 4.496,258.800 3.998 C 259.697 3.817,259.805 3.591,259.850 1.798 L 259.900 -0.200 259.613 1.800 L 259.326 3.800 259.263 1.900 L 259.200 0.000 256.000 0.000 L 252.800 0.000 252.794 1.900 M366.189 68.817 C 365.958 69.192,366.019 69.248,366.767 69.350 C 366.968 69.377,367.283 69.564,367.467 69.764 C 367.660 69.976,367.590 70.008,367.300 69.841 C 366.625 69.452,366.662 70.187,367.346 70.755 C 367.856 71.178,367.953 70.664,367.651 69.143 C 367.559 68.678,366.431 68.427,366.189 68.817 M364.300 75.098 C 362.375 75.171,360.800 75.400,360.800 75.606 C 360.800 76.057,356.010 79.180,355.300 79.192 C 355.025 79.196,354.800 79.353,354.800 79.539 C 354.800 79.726,354.106 80.192,353.257 80.574 C 352.409 80.957,351.004 82.019,350.135 82.935 C 348.914 84.223,347.813 84.859,345.278 85.744 C 343.475 86.373,342.000 87.057,342.000 87.264 C 342.000 87.471,341.415 87.893,340.700 88.200 C 339.985 88.508,338.680 89.432,337.800 90.255 C 336.920 91.077,334.833 92.318,333.160 93.014 C 331.489 93.710,329.765 94.621,329.330 95.040 C 325.373 98.845,324.891 99.151,320.793 100.474 C 317.638 101.492,316.396 102.106,315.442 103.118 C 314.759 103.844,313.435 104.821,312.500 105.289 C 311.565 105.758,310.800 106.290,310.800 106.471 C 310.800 106.652,310.554 106.800,310.253 106.800 C 308.760 106.800,301.744 109.988,301.321 110.859 C 300.856 111.814,298.067 114.800,297.639 114.800 C 297.238 114.800,293.867 117.515,293.687 117.983 C 292.982 119.821,301.497 121.484,308.200 120.818 C 310.400 120.599,323.145 120.416,336.522 120.410 C 362.989 120.399,363.541 120.353,364.771 118.054 C 365.175 117.299,369.973 114.800,371.018 114.800 C 371.338 114.800,371.600 114.645,371.600 114.456 C 371.600 114.266,372.629 113.717,373.886 113.236 C 375.691 112.546,376.812 111.693,379.218 109.181 L 382.265 106.000 384.507 106.000 C 386.988 106.000,388.584 105.538,388.895 104.731 C 389.060 104.303,388.350 104.243,385.250 104.421 C 380.526 104.692,378.997 105.404,375.974 108.741 C 373.900 111.031,373.603 111.206,369.489 112.565 C 367.119 113.348,364.959 114.168,364.689 114.388 C 364.420 114.608,363.625 115.249,362.921 115.812 C 362.218 116.375,361.537 117.170,361.407 117.579 C 361.181 118.291,360.062 118.332,335.285 118.542 C 321.048 118.662,308.230 118.934,306.800 119.145 C 304.110 119.542,297.200 118.669,297.200 117.932 C 297.200 117.749,297.528 117.600,297.930 117.600 C 298.830 117.600,302.403 115.104,302.978 114.074 C 303.802 112.598,305.558 110.800,306.174 110.800 C 306.518 110.800,306.800 110.628,306.800 110.417 C 306.800 110.032,312.722 108.000,313.847 108.000 C 314.180 108.000,315.400 107.021,316.559 105.824 C 317.718 104.628,319.147 103.528,319.733 103.381 C 320.320 103.234,320.800 102.987,320.800 102.832 C 320.800 102.678,321.745 102.322,322.900 102.041 C 326.631 101.134,329.129 99.708,330.010 97.979 C 330.895 96.246,331.533 95.799,333.707 95.391 C 334.528 95.237,335.200 94.951,335.200 94.755 C 335.200 94.560,335.477 94.400,335.816 94.400 C 337.117 94.400,341.192 91.907,341.983 90.628 C 342.560 89.694,343.470 89.054,345.194 88.370 C 346.517 87.844,347.600 87.298,347.600 87.157 C 347.600 87.016,348.135 86.793,348.788 86.662 C 350.655 86.289,353.063 84.568,353.509 83.289 C 353.832 82.363,354.298 82.021,355.816 81.596 C 356.862 81.303,358.490 80.474,359.432 79.755 C 360.375 79.035,361.833 78.322,362.673 78.169 C 364.738 77.794,367.079 76.573,367.601 75.599 C 367.836 75.159,367.977 74.837,367.914 74.882 C 367.851 74.927,366.225 75.025,364.300 75.098 M25.345 97.801 C 25.485 98.166,25.604 98.766,25.609 99.133 C 25.629 100.615,26.936 101.552,29.565 101.969 C 31.979 102.352,35.590 105.061,35.598 106.495 C 35.601 107.045,38.586 108.050,42.985 108.983 C 45.397 109.494,47.437 110.112,47.519 110.356 C 47.600 110.600,47.877 110.807,48.133 110.816 C 48.390 110.824,49.045 111.744,49.588 112.860 C 50.409 114.544,50.919 115.047,52.588 115.821 C 58.378 118.506,56.421 119.475,46.113 119.028 C 42.421 118.868,34.810 118.616,29.200 118.468 C 23.590 118.321,18.730 118.050,18.400 117.868 C 18.070 117.685,18.270 117.970,18.845 118.501 C 20.412 119.949,23.401 120.340,35.200 120.639 C 53.259 121.097,55.876 120.915,58.195 119.046 L 59.391 118.083 57.595 116.082 C 56.608 114.981,55.530 113.973,55.200 113.841 C 54.870 113.709,53.481 112.530,52.113 111.221 C 49.644 108.858,47.842 107.998,43.300 107.017 C 42.585 106.863,42.000 106.595,42.000 106.423 C 42.000 106.250,41.195 105.801,40.211 105.426 C 39.228 105.050,37.979 104.215,37.437 103.571 C 36.895 102.927,36.352 102.400,36.229 102.400 C 36.107 102.400,35.182 101.770,34.173 101.000 C 33.142 100.213,31.870 99.598,31.269 99.596 C 28.995 99.586,27.162 99.057,26.147 98.116 C 25.433 97.455,25.173 97.352,25.345 97.801 M149.184 254.945 C 149.065 255.066,116.260 255.190,76.284 255.219 C 8.855 255.268,3.600 255.320,3.606 255.936 C 3.621 257.502,4.129 257.670,8.042 257.407 C 10.109 257.268,43.855 257.070,83.034 256.967 L 154.267 256.779 155.492 257.889 C 156.166 258.500,156.916 259.393,157.159 259.874 C 157.943 261.427,157.750 397.106,156.959 400.400 C 155.776 405.322,155.765 406.800,156.913 406.800 C 157.826 406.800,157.922 406.619,158.135 404.500 C 158.262 403.235,158.542 401.300,158.759 400.200 C 159.573 396.059,159.269 260.488,158.441 258.400 C 157.446 255.894,150.718 253.383,149.184 254.945 M259.378 255.184 C 257.300 255.629,254.400 257.136,254.400 257.771 C 254.400 258.040,253.950 258.683,253.400 259.200 C 252.850 259.717,252.400 260.558,252.400 261.070 C 252.400 261.581,252.219 262.000,251.998 262.000 C 251.337 262.000,251.749 398.853,252.423 403.300 L 252.954 406.800 255.277 406.800 L 257.600 406.800 257.600 405.131 C 257.600 404.157,257.331 403.166,256.954 402.749 C 255.238 400.853,255.229 400.464,255.214 329.500 C 255.205 284.757,255.335 262.000,255.600 262.000 C 255.820 262.000,256.000 261.580,256.000 261.066 C 256.000 260.479,256.632 259.549,257.700 258.566 L 259.400 257.000 329.700 256.897 C 399.602 256.794,400.000 256.789,400.000 255.997 C 400.000 255.204,399.641 255.200,333.460 255.200 C 296.864 255.200,265.589 255.118,263.960 255.019 C 262.332 254.919,260.270 254.993,259.378 255.184 M359.600 284.019 C 358.448 284.465,356.942 286.510,356.416 288.344 C 356.053 289.610,357.917 291.600,359.464 291.600 C 359.727 291.600,360.181 291.837,360.471 292.128 C 360.762 292.418,361.856 292.871,362.903 293.134 C 365.701 293.838,369.068 295.539,369.764 296.600 C 370.394 297.563,373.799 299.317,375.959 299.791 C 376.642 299.941,377.200 300.193,377.200 300.351 C 377.200 300.510,377.785 300.859,378.500 301.128 C 380.943 302.046,381.655 302.970,381.887 305.524 L 382.098 307.858 383.830 307.595 C 385.126 307.399,385.717 307.488,386.181 307.952 C 386.686 308.457,386.800 308.468,386.800 308.009 C 386.800 307.616,386.963 307.671,387.345 308.192 C 388.521 309.800,389.038 309.261,389.139 306.322 C 389.290 301.913,388.575 301.208,383.946 301.202 C 382.422 301.200,381.978 301.026,381.451 300.222 C 381.026 299.574,380.034 299.019,378.505 298.577 C 373.675 297.178,372.888 296.803,372.631 295.782 C 372.493 295.231,371.644 294.320,370.693 293.701 C 369.762 293.096,368.797 292.411,368.549 292.178 C 368.301 291.945,366.454 291.439,364.446 291.052 C 362.438 290.666,360.333 290.110,359.769 289.817 L 358.743 289.285 359.826 288.281 C 361.231 286.978,368.089 286.537,379.600 287.008 C 383.890 287.183,389.380 287.343,391.800 287.363 L 396.200 287.400 396.260 285.912 C 396.313 284.596,396.251 284.492,395.726 285.016 C 395.043 285.699,386.090 285.583,385.646 284.886 C 385.504 284.663,380.665 284.399,374.200 284.261 C 368.040 284.130,362.460 283.935,361.800 283.827 C 361.140 283.720,360.150 283.806,359.600 284.019 M79.422 284.300 C 65.134 284.358,53.344 284.551,53.222 284.728 C 53.100 284.905,51.470 285.547,49.600 286.155 C 45.796 287.391,45.233 287.700,43.107 289.717 C 42.286 290.496,40.981 291.342,40.207 291.598 C 39.433 291.853,38.800 292.228,38.800 292.431 C 38.800 292.634,38.602 292.800,38.360 292.800 C 36.490 292.800,30.996 296.212,28.036 299.212 L 24.848 302.443 22.524 302.361 C 21.246 302.315,19.801 302.132,19.314 301.954 C 18.800 301.766,18.328 301.793,18.188 302.019 C 16.755 304.339,29.277 302.732,30.800 300.401 C 30.910 300.232,31.716 299.758,32.592 299.347 C 33.468 298.936,34.548 298.040,34.992 297.356 C 35.760 296.174,39.537 294.000,40.824 294.000 C 42.284 294.000,44.706 292.543,45.918 290.934 C 46.649 289.964,47.558 289.200,47.979 289.200 C 48.394 289.200,48.793 289.024,48.867 288.808 C 49.603 286.645,108.247 285.539,112.906 287.600 C 116.269 289.087,115.690 289.608,108.500 291.569 C 107.565 291.824,106.800 292.193,106.800 292.389 C 106.800 292.585,106.455 292.855,106.034 292.989 C 105.613 293.123,104.668 294.014,103.934 294.970 C 102.705 296.572,102.214 296.842,97.700 298.403 C 95.005 299.335,92.800 300.211,92.800 300.350 C 92.800 301.172,89.196 304.335,87.977 304.581 C 83.684 305.450,80.632 307.213,77.749 310.488 C 76.951 311.394,75.603 312.400,75.185 312.400 C 73.502 312.400,70.112 314.175,68.414 315.947 C 66.999 317.423,65.950 318.101,64.260 318.634 C 63.017 319.025,62.000 319.472,62.000 319.626 C 62.000 319.779,61.205 320.105,60.234 320.350 C 58.496 320.787,56.000 322.501,56.000 323.257 C 56.000 324.203,53.680 325.931,51.805 326.381 C 50.708 326.644,49.718 326.982,49.605 327.132 C 48.607 328.458,46.274 329.602,44.527 329.623 C 42.115 329.651,39.847 330.404,39.689 331.229 C 39.533 332.042,46.206 331.879,47.186 331.046 C 47.894 330.443,50.555 329.214,53.300 328.221 C 54.345 327.843,55.200 327.369,55.200 327.167 C 55.200 326.965,55.447 326.800,55.749 326.800 C 56.051 326.800,57.040 325.995,57.947 325.011 C 59.867 322.928,60.969 322.303,65.103 320.954 C 66.773 320.409,68.333 319.731,68.570 319.447 C 68.806 319.164,69.900 318.227,71.000 317.366 C 72.100 316.505,73.090 315.695,73.200 315.568 C 73.310 315.440,74.750 314.727,76.400 313.983 C 78.050 313.239,80.030 312.029,80.800 311.293 C 81.570 310.557,82.875 309.571,83.700 309.104 C 84.525 308.636,85.200 308.128,85.200 307.975 C 85.200 307.822,86.325 307.298,87.700 306.809 C 89.075 306.320,90.656 305.752,91.213 305.547 C 91.770 305.342,92.927 304.551,93.785 303.789 C 94.642 303.026,96.166 302.009,97.171 301.529 C 98.177 301.048,99.090 300.532,99.200 300.381 C 99.310 300.230,100.509 299.704,101.864 299.213 C 103.642 298.568,104.980 297.690,106.674 296.058 C 108.498 294.301,109.487 293.678,111.111 293.262 C 112.260 292.967,113.200 292.585,113.200 292.413 C 113.200 292.241,113.695 292.001,114.300 291.879 C 118.898 290.957,120.004 289.647,118.956 286.366 L 118.200 284.000 111.800 284.097 C 108.280 284.150,93.710 284.242,79.422 284.300 M39.815 336.877 C 40.024 337.964,40.113 338.026,40.812 337.584 C 41.246 337.310,41.263 337.211,40.876 337.206 C 40.588 337.203,40.452 337.039,40.574 336.842 C 40.696 336.645,40.539 336.385,40.225 336.265 C 39.819 336.109,39.701 336.285,39.815 336.877 M41.468 337.768 C 41.139 338.625,41.558 338.800,43.933 338.800 C 46.303 338.800,46.552 338.592,44.555 338.281 C 43.870 338.174,42.943 337.891,42.495 337.651 C 41.866 337.314,41.632 337.341,41.468 337.768 " stroke="none" fill="#fc6c6c" fill-rule="evenodd"></path></g></svg>
