<svg width="40" height="40" viewBox="0 0 40 40" fill="none" xmlns="http://www.w3.org/2000/svg">
<path d="M24.0053 23.9975L20.0053 19.9975L16.0053 23.9975" stroke="#5C5C5C" stroke-width="2" stroke-linecap="round" stroke-linejoin="round"/>
<path d="M20.0053 19.9975V28.9975" stroke="#5C5C5C" stroke-width="2" stroke-linecap="round" stroke-linejoin="round"/>
<path d="M28.3953 26.3875C29.3707 25.8558 30.1412 25.0144 30.5852 23.9962C31.0292 22.9779 31.1215 21.8408 30.8475 20.7642C30.5735 19.6877 29.9488 18.7331 29.072 18.051C28.1952 17.3689 27.1162 16.9983 26.0053 16.9975H24.7453C24.4426 15.8268 23.8785 14.7399 23.0953 13.8185C22.3121 12.8972 21.3302 12.1654 20.2234 11.6781C19.1167 11.1909 17.9139 10.9609 16.7054 11.0054C15.497 11.0499 14.3144 11.3678 13.2465 11.9352C12.1786 12.5026 11.2532 13.3046 10.54 14.2811C9.82666 15.2576 9.34402 16.3831 9.12831 17.5729C8.9126 18.7628 8.96944 19.9861 9.29454 21.1508C9.61965 22.3155 10.2046 23.3914 11.0053 24.2975" stroke="#5C5C5C" stroke-width="2" stroke-linecap="round" stroke-linejoin="round"/>
<path d="M24.0053 23.9975L20.0053 19.9975L16.0053 23.9975" stroke="#5C5C5C" stroke-width="2" stroke-linecap="round" stroke-linejoin="round"/>
</svg>
