<svg width="40" height="40" viewBox="0 0 40 40" fill="none" xmlns="http://www.w3.org/2000/svg">
<path d="M30 20H24L22 23H18L16 20H10" stroke="#5C5C5C" stroke-width="2" stroke-linecap="round" stroke-linejoin="round"/>
<path d="M13.45 13.11L10 20V26C10 26.5304 10.2107 27.0391 10.5858 27.4142C10.9609 27.7893 11.4696 28 12 28H28C28.5304 28 29.0391 27.7893 29.4142 27.4142C29.7893 27.0391 30 26.5304 30 26V20L26.55 13.11C26.3844 12.7768 26.1292 12.4964 25.813 12.3003C25.4967 12.1042 25.1321 12.0002 24.76 12H15.24C14.8679 12.0002 14.5033 12.1042 14.187 12.3003C13.8708 12.4964 13.6156 12.7768 13.45 13.11V13.11Z" stroke="#5C5C5C" stroke-width="2" stroke-linecap="round" stroke-linejoin="round"/>
</svg>
