<svg width="40" height="40" viewBox="0 0 40 40" fill="none" xmlns="http://www.w3.org/2000/svg">
<path d="M9 9L31 31" stroke="#5C5C5C" stroke-width="2" stroke-linecap="round" stroke-linejoin="round"/>
<path d="M23.28 23.28C22.9481 23.765 22.5134 24.171 22.0068 24.469C21.5002 24.7669 20.9342 24.9496 20.3489 25.004C19.7637 25.0584 19.1737 24.9831 18.6209 24.7836C18.0681 24.5841 17.566 24.2652 17.1504 23.8496C16.7348 23.434 16.4159 22.9319 16.2164 22.3791C16.0169 21.8263 15.9416 21.2363 15.996 20.6511C16.0504 20.0658 16.2331 19.4998 16.531 18.9932C16.829 18.4866 17.235 18.0519 17.72 17.72M29 29H11C10.4696 29 9.96086 28.7893 9.58579 28.4142C9.21071 28.0391 9 27.5304 9 27V16C9 15.4696 9.21071 14.9609 9.58579 14.5858C9.96086 14.2107 10.4696 14 11 14H14L29 29ZM17 11H23L25 14H29C29.5304 14 30.0391 14.2107 30.4142 14.5858C30.7893 14.9609 31 15.4696 31 16V25.34L17 11Z" stroke="#5C5C5C" stroke-width="2" stroke-linecap="round" stroke-linejoin="round"/>
</svg>
