<svg width="40" height="40" viewBox="0 0 40 40" fill="none" xmlns="http://www.w3.org/2000/svg">
<path d="M13 12H21C22.0609 12 23.0783 12.4214 23.8284 13.1716C24.5786 13.9217 25 14.9391 25 16C25 17.0609 24.5786 18.0783 23.8284 18.8284C23.0783 19.5786 22.0609 20 21 20H13V12Z" stroke="#5C5C5C" stroke-width="2" stroke-linecap="round" stroke-linejoin="round"/>
<path d="M13 20H22C23.0609 20 24.0783 20.4214 24.8284 21.1716C25.5786 21.9217 26 22.9391 26 24C26 25.0609 25.5786 26.0783 24.8284 26.8284C24.0783 27.5786 23.0609 28 22 28H13V20Z" stroke="#5C5C5C" stroke-width="2" stroke-linecap="round" stroke-linejoin="round"/>
</svg>
