<svg width="40" height="40" viewBox="0 0 40 40" fill="none" xmlns="http://www.w3.org/2000/svg">
<path d="M12.58 19.5474C14.5565 17.901 17.0476 16.9995 19.62 16.9995C22.1924 16.9995 24.6834 17.901 26.66 19.5474" stroke="#5C5C5C" stroke-width="2" stroke-linecap="round" stroke-linejoin="round"/>
<path d="M9 15.9974C11.9224 13.4213 15.6843 12 19.58 12C23.4757 12 27.2376 13.4213 30.16 15.9974" stroke="#5C5C5C" stroke-width="2" stroke-linecap="round" stroke-linejoin="round"/>
<path d="M16.11 23.1074C17.1252 22.3861 18.3397 21.9986 19.585 21.9986C20.8303 21.9986 22.0448 22.3861 23.06 23.1074" stroke="#5C5C5C" stroke-width="2" stroke-linecap="round" stroke-linejoin="round"/>
<path d="M19.58 28.9973C20.1323 28.9973 20.58 28.5496 20.58 27.9973C20.58 27.445 20.1323 26.9973 19.58 26.9973C19.0277 26.9973 18.58 27.445 18.58 27.9973C18.58 28.5496 19.0277 28.9973 19.58 28.9973Z" stroke="#5C5C5C" stroke-width="2" stroke-linecap="round" stroke-linejoin="round"/>
</svg>
