<svg width="40" height="40" viewBox="0 0 40 40" fill="none" xmlns="http://www.w3.org/2000/svg">
<path d="M18.29 11.86L9.82002 26C9.64539 26.3024 9.55299 26.6453 9.55201 26.9945C9.55103 27.3437 9.64151 27.6871 9.81445 27.9905C9.98738 28.2939 10.2367 28.5467 10.5377 28.7238C10.8387 28.9009 11.1808 28.9961 11.53 29H28.47C28.8192 28.9961 29.1613 28.9009 29.4623 28.7238C29.7633 28.5467 30.0127 28.2939 30.1856 27.9905C30.3585 27.6871 30.449 27.3437 30.448 26.9945C30.4471 26.6453 30.3547 26.3024 30.18 26L21.71 11.86C21.5318 11.5661 21.2807 11.3231 20.9812 11.1544C20.6817 10.9858 20.3438 10.8972 20 10.8972C19.6563 10.8972 19.3184 10.9858 19.0188 11.1544C18.7193 11.3231 18.4683 11.5661 18.29 11.86V11.86Z" stroke="#5C5C5C" stroke-width="2" stroke-linecap="round" stroke-linejoin="round"/>
<path d="M20 17V21" stroke="#5C5C5C" stroke-width="2" stroke-linecap="round" stroke-linejoin="round"/>
<circle cx="20" cy="25" r="0.5" stroke="#5C5C5C"/>
</svg>
