<svg width="40" height="40" viewBox="0 0 40 40" fill="none" xmlns="http://www.w3.org/2000/svg">
<path d="M24.6826 10.0004H27.3526C27.9186 9.99035 28.4685 10.1885 28.8981 10.5572C29.3276 10.9259 29.6068 11.4394 29.6826 12.0004V19.0004C29.6068 19.5613 29.3276 20.0749 28.8981 20.4435C28.4685 20.8122 27.9186 21.0104 27.3526 21.0004H24.6826M17.6826 23.0004V27.0004C17.6826 27.796 17.9987 28.5591 18.5613 29.1217C19.1239 29.6843 19.887 30.0004 20.6826 30.0004L24.6826 21.0004V10.0004H13.4026C12.9203 9.99491 12.4523 10.164 12.0847 10.4764C11.7172 10.7888 11.475 11.2235 11.4026 11.7004L10.0226 20.7004C9.97914 20.987 9.99847 21.2797 10.0793 21.5581C10.1601 21.8365 10.3005 22.0941 10.4908 22.3128C10.681 22.5316 10.9166 22.7064 11.1811 22.8251C11.4456 22.9439 11.7327 23.0036 12.0226 23.0004H17.6826Z" stroke="#5C5C5C" stroke-width="2" stroke-linecap="round" stroke-linejoin="round"/>
</svg>
