<svg id="svg" version="1.1" xmlns="http://www.w3.org/2000/svg" xmlns:xlink="http://www.w3.org/1999/xlink" width="400" height="407.05882352941177" viewBox="0, 0, 400,407.05882352941177"><g id="svgg"><path id="path0" d="M173.224 0.391 C 170.582 0.558,168.990 0.829,168.891 1.128 C 168.788 1.437,167.656 1.600,165.616 1.600 C 163.332 1.600,162.365 1.761,162.000 2.200 C 161.652 2.619,160.729 2.800,158.938 2.800 C 157.029 2.800,156.316 2.953,156.145 3.400 C 156.018 3.730,155.529 4.000,155.057 4.000 L 154.200 4.000 154.304 75.864 C 154.401 142.649,154.361 147.780,153.738 148.469 C 153.088 149.187,150.685 149.207,79.133 149.105 L 5.200 149.000 5.200 151.300 C 5.200 153.078,5.064 153.600,4.600 153.600 C 4.141 153.600,4.000 154.106,4.000 155.751 C 4.000 157.175,3.797 158.070,3.400 158.400 C 2.983 158.746,2.800 159.666,2.800 161.416 C 2.800 163.058,2.628 163.991,2.306 164.098 C 1.983 164.206,1.760 165.430,1.661 167.631 C 1.578 169.484,1.333 171.111,1.117 171.247 C -0.391 172.195,-0.391 234.605,1.117 235.553 C 1.333 235.689,1.578 237.316,1.661 239.169 C 1.760 241.370,1.983 242.594,2.306 242.702 C 2.628 242.809,2.800 243.742,2.800 245.384 C 2.800 247.134,2.983 248.054,3.400 248.400 C 3.797 248.730,4.000 249.625,4.000 251.049 C 4.000 252.694,4.141 253.200,4.600 253.200 C 5.027 253.200,5.200 253.633,5.200 254.700 L 5.200 256.200 79.256 256.098 C 134.102 256.022,153.455 256.114,153.861 256.450 C 154.321 256.833,154.392 268.497,154.304 329.853 L 154.200 402.800 155.057 402.800 C 155.529 402.800,156.018 403.070,156.145 403.400 C 156.316 403.847,157.029 404.000,158.938 404.000 C 160.729 404.000,161.652 404.181,162.000 404.600 C 162.365 405.039,163.332 405.200,165.616 405.200 C 167.754 405.200,168.786 405.357,168.900 405.700 C 169.396 407.193,230.604 407.193,231.100 405.700 C 231.214 405.357,232.246 405.200,234.384 405.200 C 236.668 405.200,237.635 405.039,238.000 404.600 C 238.348 404.181,239.271 404.000,241.062 404.000 C 242.971 404.000,243.684 403.847,243.855 403.400 C 244.020 402.970,244.692 402.800,246.219 402.800 C 248.387 402.800,249.250 402.290,248.445 401.485 C 247.722 400.762,247.819 257.048,248.544 256.447 C 248.944 256.115,268.322 256.023,321.944 256.098 L 394.800 256.200 394.800 254.700 C 394.800 253.633,394.973 253.200,395.400 253.200 C 395.859 253.200,396.000 252.694,396.000 251.049 C 396.000 249.625,396.203 248.730,396.600 248.400 C 397.017 248.054,397.200 247.134,397.200 245.384 C 397.200 243.742,397.372 242.809,397.694 242.702 C 398.016 242.595,398.241 241.375,398.340 239.194 C 398.426 237.287,398.702 235.641,398.982 235.361 C 400.412 233.931,400.365 172.177,398.933 171.278 C 398.688 171.124,398.423 169.497,398.339 167.631 C 398.240 165.430,398.017 164.206,397.694 164.098 C 397.372 163.991,397.200 163.058,397.200 161.416 C 397.200 159.666,397.017 158.746,396.600 158.400 C 396.203 158.070,396.000 157.175,396.000 155.751 C 396.000 154.106,395.859 153.600,395.400 153.600 C 394.936 153.600,394.800 153.078,394.800 151.300 L 394.800 149.000 322.067 149.105 C 251.763 149.207,249.311 149.186,248.665 148.471 C 248.024 147.763,247.780 7.738,248.415 5.000 C 248.580 4.285,248.366 4.187,246.402 4.076 C 245.012 3.997,244.086 3.740,243.882 3.376 C 243.655 2.969,242.816 2.800,241.029 2.800 C 239.267 2.800,238.347 2.618,238.000 2.200 C 237.635 1.761,236.668 1.600,234.384 1.600 C 232.421 1.600,231.211 1.433,231.116 1.148 C 230.782 0.145,186.257 -0.437,173.224 0.391 M355.341 74.009 C 354.868 74.193,354.356 74.548,354.202 74.797 C 354.048 75.046,353.535 75.421,353.061 75.631 C 352.588 75.840,351.660 76.371,351.000 76.811 C 350.340 77.250,349.485 77.718,349.100 77.851 C 348.715 77.984,348.400 78.240,348.400 78.420 C 348.400 78.599,347.995 78.872,347.500 79.027 C 347.005 79.181,346.510 79.419,346.400 79.554 C 346.035 80.003,343.822 81.405,342.211 82.208 C 340.524 83.049,340.344 83.166,338.839 84.407 C 338.310 84.843,337.635 85.200,337.339 85.200 C 337.042 85.200,336.800 85.377,336.800 85.592 C 336.800 85.808,336.350 86.098,335.800 86.236 C 335.250 86.374,334.800 86.647,334.800 86.843 C 334.800 87.040,334.628 87.200,334.418 87.200 C 334.208 87.200,333.353 87.668,332.518 88.240 C 331.683 88.812,330.640 89.442,330.200 89.639 C 329.312 90.038,328.960 90.257,325.298 92.700 C 323.896 93.635,322.491 94.400,322.175 94.400 C 321.859 94.400,321.600 94.584,321.600 94.810 C 321.600 95.035,321.195 95.398,320.700 95.616 C 320.205 95.834,319.260 96.367,318.600 96.800 C 317.940 97.233,317.040 97.770,316.600 97.993 C 315.475 98.563,314.327 99.314,313.688 99.900 C 313.388 100.175,312.886 100.400,312.571 100.400 C 312.257 100.400,312.000 100.568,312.000 100.773 C 312.000 100.978,311.609 101.270,311.131 101.422 C 310.653 101.574,310.068 101.864,309.831 102.068 C 309.137 102.663,305.521 104.932,303.896 105.791 C 303.073 106.226,302.400 106.721,302.400 106.891 C 302.400 107.061,302.143 107.200,301.829 107.200 C 301.514 107.200,301.003 107.454,300.692 107.765 C 300.381 108.076,299.513 108.665,298.763 109.075 C 298.013 109.484,296.334 110.507,295.032 111.348 C 293.729 112.189,292.379 112.980,292.032 113.105 C 291.684 113.230,290.744 113.843,289.942 114.466 C 289.141 115.090,288.308 115.600,288.091 115.600 C 287.875 115.600,287.474 115.870,287.200 116.200 C 286.926 116.530,286.383 116.800,285.994 116.800 C 285.604 116.800,285.182 117.070,285.055 117.400 C 284.929 117.730,284.632 118.000,284.396 118.000 C 284.160 118.000,283.569 118.383,283.083 118.852 L 282.200 119.704 283.321 119.439 C 283.938 119.293,299.898 119.183,318.789 119.193 C 354.053 119.213,354.362 119.201,355.929 117.705 C 356.219 117.427,356.714 117.200,357.029 117.200 C 357.343 117.200,357.600 117.032,357.600 116.827 C 357.600 116.622,357.991 116.330,358.469 116.178 C 358.947 116.026,359.532 115.736,359.769 115.532 C 360.415 114.977,364.441 112.400,364.662 112.400 C 364.767 112.400,365.443 111.950,366.164 111.400 C 366.886 110.850,367.671 110.400,367.909 110.400 C 368.148 110.400,368.581 110.169,368.871 109.886 C 369.615 109.162,373.534 106.800,373.990 106.800 C 374.199 106.800,374.726 106.417,375.162 105.949 C 375.623 105.454,376.216 105.197,376.578 105.336 C 376.970 105.487,377.200 105.353,377.200 104.975 C 377.200 104.645,376.930 104.271,376.600 104.145 C 376.270 104.018,376.000 103.614,376.000 103.246 C 376.000 102.879,375.460 101.987,374.800 101.264 C 374.140 100.542,373.600 99.596,373.600 99.163 C 373.600 98.729,373.330 98.271,373.000 98.145 C 372.670 98.018,372.400 97.484,372.400 96.957 C 372.400 96.373,372.166 96.000,371.800 96.000 C 371.470 96.000,371.200 95.730,371.200 95.400 C 371.200 95.070,370.930 94.800,370.600 94.800 C 370.200 94.800,370.000 94.400,370.000 93.600 C 370.000 92.800,369.800 92.400,369.400 92.400 C 369.000 92.400,368.800 92.000,368.800 91.200 C 368.800 90.400,368.600 90.000,368.200 90.000 C 367.870 90.000,367.600 89.730,367.600 89.400 C 367.600 89.070,367.330 88.800,367.000 88.800 C 366.600 88.800,366.400 88.400,366.400 87.600 C 366.400 86.800,366.200 86.400,365.800 86.400 C 365.470 86.400,365.200 86.130,365.200 85.800 C 365.200 85.470,364.930 85.200,364.600 85.200 C 364.227 85.200,364.000 84.822,364.000 84.200 C 364.000 83.578,363.773 83.200,363.400 83.200 C 363.067 83.200,362.800 82.844,362.800 82.400 C 362.800 81.956,362.533 81.600,362.200 81.600 C 361.870 81.600,361.600 81.330,361.600 81.000 C 361.600 80.670,361.330 80.400,361.000 80.400 C 360.627 80.400,360.400 80.022,360.400 79.400 C 360.400 78.850,360.220 78.400,360.000 78.400 C 359.780 78.400,359.600 78.130,359.600 77.800 C 359.600 77.470,359.330 77.200,359.000 77.200 C 358.670 77.200,358.400 76.930,358.400 76.600 C 358.400 76.270,358.130 76.000,357.800 76.000 C 357.470 76.000,357.200 75.764,357.200 75.476 C 357.200 74.414,356.241 73.657,355.341 74.009 M26.667 98.267 C 26.520 98.413,26.400 98.852,26.400 99.242 C 26.400 99.632,25.860 100.542,25.200 101.264 C 24.540 101.987,24.000 102.879,24.000 103.246 C 24.000 103.614,23.730 104.018,23.400 104.145 C 23.070 104.271,22.800 104.811,22.800 105.345 C 22.800 105.878,22.530 106.418,22.200 106.545 C 21.870 106.671,21.600 107.231,21.600 107.787 C 21.600 108.344,21.434 108.800,21.232 108.800 C 21.029 108.800,20.745 109.340,20.600 110.000 C 20.455 110.660,20.171 111.200,19.968 111.200 C 19.766 111.200,19.600 111.740,19.600 112.400 C 19.600 113.200,19.400 113.600,19.000 113.600 C 18.600 113.600,18.400 114.000,18.400 114.800 C 18.400 115.600,18.200 116.000,17.800 116.000 C 17.400 116.000,17.200 116.400,17.200 117.200 C 17.200 118.000,17.000 118.400,16.600 118.400 C 16.270 118.400,16.000 118.681,16.000 119.024 C 16.000 119.367,16.180 119.536,16.400 119.400 C 16.848 119.123,59.112 119.120,61.000 119.396 C 61.660 119.492,61.885 119.475,61.500 119.356 C 61.115 119.238,60.800 118.885,60.800 118.571 C 60.800 118.257,60.462 118.000,60.049 118.000 C 59.636 118.000,59.074 117.730,58.800 117.400 C 58.526 117.070,57.986 116.800,57.600 116.800 C 57.214 116.800,56.674 116.530,56.400 116.200 C 56.126 115.870,55.725 115.600,55.509 115.600 C 55.292 115.600,54.433 115.060,53.600 114.400 C 52.767 113.740,51.806 113.200,51.466 113.200 C 51.126 113.200,50.729 113.009,50.585 112.775 C 50.440 112.542,49.935 112.182,49.461 111.976 C 48.469 111.545,47.092 110.709,46.800 110.362 C 46.690 110.231,46.119 109.871,45.532 109.562 C 41.542 107.465,40.800 107.027,40.800 106.772 C 40.800 106.615,40.350 106.374,39.800 106.236 C 39.250 106.098,38.800 105.808,38.800 105.592 C 38.800 105.377,38.598 105.200,38.351 105.200 C 37.985 105.200,33.961 102.950,31.200 101.202 C 30.870 100.993,29.990 100.515,29.244 100.139 C 28.498 99.763,27.802 99.128,27.697 98.728 C 27.500 97.973,27.127 97.807,26.667 98.267 M48.400 284.200 C 48.126 284.530,47.743 284.800,47.548 284.800 C 47.353 284.800,46.448 285.340,45.537 286.000 C 44.625 286.660,43.720 287.200,43.524 287.200 C 43.095 287.200,40.655 288.876,40.467 289.300 C 40.393 289.465,40.100 289.600,39.816 289.600 C 39.531 289.600,39.074 289.870,38.800 290.200 C 38.526 290.530,37.964 290.800,37.551 290.800 C 37.138 290.800,36.800 290.984,36.800 291.210 C 36.800 291.435,36.395 291.795,35.900 292.009 C 34.811 292.480,33.626 293.224,32.888 293.900 C 32.588 294.175,32.174 294.400,31.968 294.400 C 31.762 294.400,30.848 294.940,29.937 295.600 C 29.025 296.260,28.037 296.800,27.740 296.800 C 27.443 296.800,27.200 296.977,27.200 297.192 C 27.200 297.408,26.763 297.694,26.229 297.828 C 25.695 297.963,25.161 298.326,25.041 298.636 C 24.922 298.946,24.468 299.200,24.031 299.200 C 22.921 299.200,22.377 301.901,23.343 302.608 C 23.705 302.872,24.000 303.343,24.000 303.655 C 24.000 303.967,24.540 304.813,25.200 305.536 C 25.860 306.258,26.400 307.204,26.400 307.637 C 26.400 308.071,26.670 308.529,27.000 308.655 C 27.330 308.782,27.600 309.316,27.600 309.843 C 27.600 310.427,27.834 310.800,28.200 310.800 C 28.530 310.800,28.800 311.070,28.800 311.400 C 28.800 311.730,29.070 312.000,29.400 312.000 C 29.800 312.000,30.000 312.400,30.000 313.200 C 30.000 314.000,30.200 314.400,30.600 314.400 C 31.000 314.400,31.200 314.800,31.200 315.600 C 31.200 316.400,31.400 316.800,31.800 316.800 C 32.130 316.800,32.400 317.070,32.400 317.400 C 32.400 317.730,32.670 318.000,33.000 318.000 C 33.400 318.000,33.600 318.400,33.600 319.200 C 33.600 320.000,33.800 320.400,34.200 320.400 C 34.530 320.400,34.800 320.670,34.800 321.000 C 34.800 321.330,35.070 321.600,35.400 321.600 C 35.773 321.600,36.000 321.978,36.000 322.600 C 36.000 323.222,36.227 323.600,36.600 323.600 C 36.933 323.600,37.200 323.956,37.200 324.400 C 37.200 324.844,37.467 325.200,37.800 325.200 C 38.130 325.200,38.400 325.470,38.400 325.800 C 38.400 326.130,38.670 326.400,39.000 326.400 C 39.338 326.400,39.600 326.758,39.600 327.219 C 39.600 327.670,40.050 328.455,40.600 328.965 C 41.150 329.475,41.600 330.096,41.600 330.346 C 41.600 330.596,41.870 330.800,42.200 330.800 C 42.530 330.800,42.800 331.070,42.800 331.400 C 42.800 332.288,43.873 332.128,44.115 331.205 C 44.229 330.767,44.745 330.228,45.261 330.006 C 46.383 329.523,47.564 328.785,48.312 328.100 C 48.612 327.825,49.026 327.600,49.232 327.600 C 49.438 327.600,50.352 327.060,51.263 326.400 C 52.175 325.740,53.148 325.200,53.427 325.200 C 53.705 325.200,53.993 325.060,54.067 324.888 C 54.252 324.454,62.239 319.600,62.769 319.600 C 63.006 319.600,63.200 319.411,63.200 319.179 C 63.200 318.948,63.740 318.570,64.400 318.340 C 65.060 318.110,65.600 317.780,65.600 317.608 C 65.600 317.435,65.915 317.179,66.300 317.040 C 67.022 316.779,67.418 316.546,70.292 314.692 C 71.223 314.091,72.148 313.600,72.349 313.600 C 72.550 313.600,72.818 313.330,72.945 313.000 C 73.071 312.670,73.541 312.400,73.987 312.400 C 74.434 312.400,74.800 312.261,74.800 312.092 C 74.800 311.922,75.655 311.337,76.700 310.792 C 77.745 310.246,78.744 309.575,78.920 309.300 C 79.096 309.025,79.572 308.800,79.977 308.800 C 80.383 308.800,80.818 308.530,80.945 308.200 C 81.071 307.870,81.451 307.600,81.787 307.600 C 82.124 307.600,82.400 307.432,82.400 307.227 C 82.400 307.022,82.805 306.728,83.300 306.573 C 83.795 306.419,84.290 306.163,84.400 306.006 C 84.614 305.699,87.549 303.930,89.200 303.112 C 89.750 302.839,90.290 302.509,90.400 302.378 C 90.510 302.247,91.225 301.793,91.989 301.370 C 92.753 300.946,94.519 299.835,95.914 298.900 C 97.309 297.965,98.709 297.200,99.025 297.200 C 99.341 297.200,99.600 297.016,99.600 296.790 C 99.600 296.565,100.005 296.197,100.500 295.973 C 101.859 295.358,103.215 294.545,103.714 294.046 C 103.959 293.801,104.465 293.600,104.837 293.600 C 105.210 293.600,105.618 293.330,105.745 293.000 C 105.871 292.670,106.251 292.400,106.587 292.400 C 106.924 292.400,107.200 292.223,107.200 292.008 C 107.200 291.792,107.637 291.506,108.171 291.372 C 108.705 291.237,109.239 290.874,109.359 290.564 C 109.478 290.254,109.941 290.000,110.387 290.000 C 110.834 290.000,111.200 289.865,111.200 289.700 C 111.201 289.426,111.982 288.928,116.950 286.040 C 117.857 285.513,118.690 284.968,118.800 284.829 C 118.910 284.691,119.450 284.370,120.000 284.116 C 120.765 283.763,112.530 283.648,84.949 283.627 C 53.369 283.603,48.836 283.674,48.400 284.200 M342.594 283.990 C 342.733 284.216,343.107 284.400,343.424 284.400 C 343.741 284.400,344.000 284.580,344.000 284.800 C 344.000 285.020,344.257 285.200,344.571 285.200 C 344.886 285.200,345.384 285.425,345.679 285.700 C 345.973 285.975,347.066 286.646,348.107 287.192 C 349.148 287.737,350.000 288.303,350.000 288.448 C 350.000 288.594,350.450 288.826,351.000 288.964 C 351.550 289.102,352.000 289.392,352.000 289.608 C 352.000 289.823,352.277 290.000,352.616 290.000 C 353.241 290.000,355.689 291.550,355.933 292.100 C 356.007 292.265,356.417 292.400,356.846 292.400 C 357.274 292.400,357.729 292.670,357.855 293.000 C 357.982 293.330,358.390 293.600,358.763 293.600 C 359.135 293.600,359.641 293.801,359.886 294.046 C 360.385 294.545,361.741 295.358,363.100 295.973 C 363.595 296.197,364.000 296.565,364.000 296.790 C 364.000 297.016,364.338 297.200,364.751 297.200 C 365.164 297.200,365.726 297.470,366.000 297.800 C 366.274 298.130,366.659 298.400,366.857 298.400 C 367.054 298.400,367.977 298.889,368.908 299.487 C 369.839 300.085,371.390 301.003,372.356 301.527 C 373.321 302.050,374.536 302.937,375.056 303.498 C 375.939 304.452,376.000 304.465,376.000 303.701 C 376.000 303.253,376.270 302.782,376.600 302.655 C 376.930 302.529,377.200 301.989,377.200 301.455 C 377.200 300.922,377.470 300.382,377.800 300.255 C 378.130 300.129,378.400 299.589,378.400 299.055 C 378.400 298.522,378.670 297.982,379.000 297.855 C 379.330 297.729,379.600 297.169,379.600 296.613 C 379.600 296.056,379.780 295.600,380.000 295.600 C 380.220 295.600,380.400 295.060,380.400 294.400 C 380.400 293.600,380.600 293.200,381.000 293.200 C 381.400 293.200,381.600 292.800,381.600 292.000 C 381.600 291.200,381.800 290.800,382.200 290.800 C 382.600 290.800,382.800 290.400,382.800 289.600 C 382.800 288.800,383.000 288.400,383.400 288.400 C 383.833 288.400,384.000 287.956,384.000 286.800 C 384.000 285.644,384.167 285.200,384.600 285.200 C 384.930 285.200,385.200 284.849,385.200 284.420 C 385.200 283.657,384.741 283.639,363.770 283.610 C 349.245 283.590,342.422 283.713,342.594 283.990 " stroke="none" fill="#fc0808" fill-rule="evenodd"></path><path id="path1" d="M151.345 4.600 C 151.179 5.031,150.504 5.200,148.945 5.200 C 147.385 5.200,146.710 5.369,146.545 5.800 C 146.394 6.192,145.771 6.400,144.745 6.400 C 143.718 6.400,143.095 6.608,142.945 7.000 C 142.783 7.421,142.127 7.600,140.745 7.600 C 139.363 7.600,138.706 7.779,138.545 8.200 C 138.394 8.592,137.771 8.800,136.745 8.800 C 135.718 8.800,135.095 9.008,134.945 9.400 C 134.813 9.742,134.217 10.000,133.557 10.000 C 132.795 10.000,132.400 10.205,132.400 10.600 C 132.400 11.044,131.933 11.200,130.600 11.200 C 129.267 11.200,128.800 11.356,128.800 11.800 C 128.800 12.234,128.354 12.400,127.187 12.400 C 126.123 12.400,125.497 12.604,125.345 13.000 C 125.213 13.342,124.617 13.600,123.957 13.600 C 122.809 13.600,122.340 14.468,123.200 15.000 C 123.462 15.162,123.600 28.071,123.600 52.424 L 123.600 89.600 122.400 89.600 C 121.740 89.600,121.200 89.416,121.200 89.190 C 121.200 88.965,120.795 88.602,120.300 88.384 C 119.805 88.166,118.860 87.633,118.200 87.200 C 117.540 86.767,116.640 86.227,116.200 86.000 C 115.760 85.773,114.860 85.229,114.200 84.789 C 113.540 84.350,112.685 83.882,112.300 83.749 C 111.915 83.616,111.600 83.360,111.600 83.180 C 111.600 83.001,111.195 82.728,110.700 82.573 C 110.205 82.419,109.710 82.169,109.600 82.019 C 109.490 81.869,107.330 80.509,104.800 78.997 C 102.270 77.486,100.140 76.103,100.067 75.925 C 99.993 75.746,99.749 75.600,99.525 75.600 C 99.300 75.600,98.316 75.060,97.338 74.400 C 96.360 73.740,95.487 73.200,95.398 73.200 C 95.309 73.200,94.553 72.732,93.718 72.160 C 92.883 71.588,91.840 70.955,91.400 70.754 C 90.960 70.553,90.126 70.076,89.548 69.694 C 88.969 69.312,85.549 67.213,81.948 65.028 C 78.346 62.844,75.310 60.933,75.200 60.782 C 75.090 60.631,74.595 60.381,74.100 60.227 C 73.605 60.072,73.200 59.799,73.200 59.620 C 73.200 59.440,72.885 59.179,72.500 59.040 C 71.778 58.779,71.382 58.546,68.508 56.692 C 67.577 56.091,66.641 55.600,66.428 55.600 C 66.214 55.600,65.896 55.375,65.720 55.100 C 65.289 54.427,63.764 53.600,62.953 53.600 C 62.271 53.600,59.600 56.172,59.600 56.828 C 59.600 57.033,59.330 57.200,59.000 57.200 C 58.670 57.200,58.400 57.470,58.400 57.800 C 58.400 58.130,58.196 58.400,57.946 58.400 C 57.696 58.400,57.075 58.850,56.565 59.400 C 56.055 59.950,55.450 60.400,55.219 60.400 C 54.989 60.400,54.800 60.670,54.800 61.000 C 54.800 61.330,54.530 61.600,54.200 61.600 C 53.870 61.600,53.600 61.870,53.600 62.200 C 53.600 62.530,53.330 62.800,53.000 62.800 C 52.670 62.800,52.400 63.070,52.400 63.400 C 52.400 63.730,52.130 64.000,51.800 64.000 C 51.470 64.000,51.200 64.251,51.200 64.557 C 51.200 64.864,50.930 65.218,50.600 65.345 C 50.270 65.471,50.000 65.946,50.000 66.400 C 50.000 66.854,49.730 67.329,49.400 67.455 C 49.070 67.582,48.800 67.936,48.800 68.243 C 48.800 68.549,48.530 68.800,48.200 68.800 C 47.870 68.800,47.600 69.070,47.600 69.400 C 47.600 69.730,47.330 70.000,47.000 70.000 C 46.670 70.000,46.400 70.270,46.400 70.600 C 46.400 70.930,46.130 71.200,45.800 71.200 C 45.470 71.200,45.200 71.470,45.200 71.800 C 45.200 72.130,44.970 72.400,44.690 72.400 C 44.409 72.400,43.824 73.208,43.390 74.196 C 42.955 75.184,42.375 75.994,42.100 75.996 C 41.825 75.998,41.600 76.204,41.600 76.454 C 41.600 76.704,41.150 77.325,40.600 77.835 C 40.050 78.345,39.600 79.130,39.600 79.581 C 39.600 80.042,39.338 80.400,39.000 80.400 C 38.670 80.400,38.400 80.670,38.400 81.000 C 38.400 81.330,38.130 81.600,37.800 81.600 C 37.467 81.600,37.200 81.956,37.200 82.400 C 37.200 82.844,36.933 83.200,36.600 83.200 C 36.227 83.200,36.000 83.578,36.000 84.200 C 36.000 84.822,35.773 85.200,35.400 85.200 C 35.070 85.200,34.800 85.470,34.800 85.800 C 34.800 86.130,34.530 86.400,34.200 86.400 C 33.800 86.400,33.600 86.800,33.600 87.600 C 33.600 88.400,33.400 88.800,33.000 88.800 C 32.670 88.800,32.400 89.070,32.400 89.400 C 32.400 89.730,32.130 90.000,31.800 90.000 C 31.400 90.000,31.200 90.400,31.200 91.200 C 31.200 92.000,31.000 92.400,30.600 92.400 C 30.200 92.400,30.000 92.800,30.000 93.600 C 30.000 94.400,29.800 94.800,29.400 94.800 C 29.070 94.800,28.800 95.070,28.800 95.400 C 28.800 95.730,28.530 96.000,28.200 96.000 C 27.811 96.000,27.602 96.387,27.605 97.100 C 27.610 98.214,28.336 98.744,35.165 102.613 C 35.954 103.061,37.320 103.887,38.200 104.450 C 39.080 105.013,40.880 106.071,42.200 106.800 C 44.479 108.060,53.924 113.585,55.200 114.406 C 55.530 114.618,57.060 115.514,58.600 116.396 C 60.140 117.278,61.846 118.347,62.390 118.770 L 63.380 119.539 62.390 119.787 C 61.846 119.923,51.185 119.981,38.700 119.917 L 16.000 119.800 16.000 120.700 C 16.000 121.233,15.756 121.600,15.400 121.600 C 15.000 121.600,14.800 122.000,14.800 122.800 C 14.800 123.600,14.600 124.000,14.200 124.000 C 13.756 124.000,13.600 124.467,13.600 125.800 C 13.600 127.133,13.444 127.600,13.000 127.600 C 12.600 127.600,12.400 128.000,12.400 128.800 C 12.400 129.600,12.200 130.000,11.800 130.000 C 11.356 130.000,11.200 130.467,11.200 131.800 C 11.200 133.133,11.044 133.600,10.600 133.600 C 10.166 133.600,10.000 134.046,10.000 135.213 C 10.000 136.277,9.796 136.903,9.400 137.055 C 9.013 137.204,8.800 137.823,8.800 138.800 C 8.800 139.777,8.587 140.396,8.200 140.545 C 7.820 140.690,7.600 141.304,7.600 142.216 C 7.600 143.009,7.330 143.927,7.000 144.257 C 5.536 145.721,6.229 147.868,8.256 148.146 C 10.627 148.471,151.721 148.482,152.567 148.157 C 153.321 147.868,153.560 6.998,152.810 5.026 C 152.375 3.883,151.696 3.685,151.345 4.600 M249.200 76.320 C 249.200 131.102,249.310 147.550,249.680 147.920 C 250.198 148.438,388.016 148.657,391.744 148.146 C 393.771 147.868,394.464 145.721,393.000 144.257 C 392.670 143.927,392.400 143.009,392.400 142.216 C 392.400 141.304,392.180 140.690,391.800 140.545 C 391.413 140.396,391.200 139.777,391.200 138.800 C 391.200 137.823,390.987 137.204,390.600 137.055 C 390.204 136.903,390.000 136.277,390.000 135.213 C 390.000 134.046,389.834 133.600,389.400 133.600 C 388.956 133.600,388.800 133.133,388.800 131.800 C 388.800 130.467,388.644 130.000,388.200 130.000 C 387.800 130.000,387.600 129.600,387.600 128.800 C 387.600 128.000,387.400 127.600,387.000 127.600 C 386.556 127.600,386.400 127.133,386.400 125.800 C 386.400 124.467,386.244 124.000,385.800 124.000 C 385.400 124.000,385.200 123.600,385.200 122.800 C 385.200 122.000,385.000 121.600,384.600 121.600 C 384.167 121.600,384.000 121.156,384.000 120.000 C 384.000 118.844,383.833 118.400,383.400 118.400 C 383.000 118.400,382.800 118.000,382.800 117.200 C 382.800 116.400,382.600 116.000,382.200 116.000 C 381.800 116.000,381.600 115.600,381.600 114.800 C 381.600 114.000,381.400 113.600,381.000 113.600 C 380.600 113.600,380.400 113.200,380.400 112.400 C 380.400 111.740,380.220 111.200,380.000 111.200 C 379.780 111.200,379.600 110.744,379.600 110.187 C 379.600 109.631,379.330 109.071,379.000 108.945 C 378.670 108.818,378.400 108.280,378.400 107.749 C 378.400 106.418,376.702 105.617,375.702 106.476 C 375.316 106.807,374.730 107.198,374.400 107.344 C 374.070 107.489,373.326 107.922,372.748 108.304 C 372.169 108.687,368.772 110.800,365.200 113.000 C 361.628 115.200,358.231 117.303,357.652 117.673 C 353.671 120.218,357.435 120.000,317.454 120.000 C 297.588 120.000,281.216 119.883,281.073 119.740 C 280.827 119.494,282.589 117.600,283.064 117.600 C 283.254 117.600,289.591 113.757,293.114 111.506 C 293.711 111.124,294.560 110.627,295.000 110.400 C 295.440 110.173,296.274 109.676,296.852 109.294 C 297.431 108.912,300.828 106.800,304.400 104.600 C 307.972 102.400,311.317 100.330,311.832 100.000 C 312.604 99.505,322.154 93.614,324.991 91.883 C 329.068 89.394,331.142 88.121,331.809 87.697 C 332.244 87.421,332.870 87.074,333.200 86.927 C 333.530 86.779,333.890 86.543,334.000 86.401 C 334.110 86.260,336.720 84.639,339.800 82.800 C 342.880 80.961,345.490 79.340,345.600 79.199 C 345.710 79.057,346.070 78.813,346.400 78.655 C 347.093 78.324,347.931 77.815,350.292 76.292 C 351.223 75.691,352.173 75.200,352.405 75.200 C 352.636 75.200,352.927 74.935,353.051 74.611 C 353.176 74.287,353.898 73.905,354.657 73.763 C 355.929 73.524,355.989 73.450,355.419 72.821 C 355.078 72.445,354.800 71.926,354.800 71.669 C 354.800 71.411,354.530 71.200,354.200 71.200 C 353.870 71.200,353.600 70.930,353.600 70.600 C 353.600 70.270,353.330 70.000,353.000 70.000 C 352.670 70.000,352.400 69.730,352.400 69.400 C 352.400 69.070,352.130 68.800,351.800 68.800 C 351.470 68.800,351.200 68.549,351.200 68.243 C 351.200 67.936,350.930 67.582,350.600 67.455 C 350.270 67.329,350.000 66.854,350.000 66.400 C 350.000 65.946,349.730 65.471,349.400 65.345 C 349.070 65.218,348.800 64.864,348.800 64.557 C 348.800 64.251,348.530 64.000,348.200 64.000 C 347.870 64.000,347.600 63.730,347.600 63.400 C 347.600 63.070,347.330 62.800,347.000 62.800 C 346.670 62.800,346.400 62.530,346.400 62.200 C 346.400 61.870,346.130 61.600,345.800 61.600 C 345.470 61.600,345.200 61.330,345.200 61.000 C 345.200 60.670,345.011 60.400,344.781 60.400 C 344.550 60.400,343.945 59.950,343.435 59.400 C 342.925 58.850,342.304 58.400,342.054 58.400 C 341.804 58.400,341.600 58.130,341.600 57.800 C 341.600 57.470,341.330 57.200,341.000 57.200 C 340.670 57.200,340.400 56.930,340.400 56.600 C 340.400 56.270,340.220 56.000,340.000 56.000 C 339.780 56.000,339.600 55.730,339.600 55.400 C 339.600 55.070,339.349 54.800,339.043 54.800 C 338.736 54.800,338.375 54.511,338.239 54.158 C 337.927 53.343,336.311 53.689,335.190 54.810 C 334.755 55.245,334.130 55.600,333.800 55.600 C 333.470 55.600,333.200 55.735,333.200 55.900 C 333.199 56.065,332.344 56.700,331.300 57.310 C 328.917 58.703,328.224 59.131,326.135 60.500 C 325.211 61.105,324.263 61.600,324.028 61.600 C 323.793 61.600,323.600 61.777,323.600 61.992 C 323.600 62.208,323.150 62.498,322.600 62.636 C 322.050 62.774,321.600 63.047,321.600 63.243 C 321.600 63.440,321.429 63.600,321.220 63.600 C 321.011 63.600,320.066 64.119,319.120 64.753 C 318.174 65.387,316.770 66.245,316.000 66.660 C 315.230 67.076,313.462 68.177,312.072 69.108 C 310.681 70.038,309.463 70.800,309.364 70.800 C 309.265 70.800,308.423 71.291,307.492 71.892 C 305.332 73.286,304.330 73.902,303.686 74.233 C 303.403 74.378,301.972 75.285,300.505 76.248 C 299.038 77.212,297.604 78.000,297.319 78.000 C 297.033 78.000,296.800 78.135,296.800 78.300 C 296.799 78.465,295.944 79.100,294.900 79.710 C 292.137 81.325,291.541 81.698,290.127 82.699 C 289.426 83.195,288.674 83.600,288.455 83.600 C 288.236 83.600,287.815 83.842,287.519 84.138 C 286.993 84.664,284.848 85.987,281.950 87.572 C 281.152 88.009,280.387 88.253,280.250 88.116 C 280.112 87.979,279.998 71.832,279.995 52.233 C 279.989 13.482,280.046 14.800,278.353 14.800 C 277.595 14.800,277.200 14.595,277.200 14.200 C 277.200 13.805,276.805 13.600,276.043 13.600 C 275.383 13.600,274.787 13.342,274.655 13.000 C 274.503 12.604,273.877 12.400,272.813 12.400 C 271.646 12.400,271.200 12.234,271.200 11.800 C 271.200 11.356,270.733 11.200,269.400 11.200 C 268.067 11.200,267.600 11.044,267.600 10.600 C 267.600 10.205,267.205 10.000,266.443 10.000 C 265.783 10.000,265.187 9.742,265.055 9.400 C 264.905 9.008,264.282 8.800,263.255 8.800 C 262.229 8.800,261.606 8.592,261.455 8.200 C 261.294 7.779,260.637 7.600,259.255 7.600 C 257.873 7.600,257.217 7.421,257.055 7.000 C 256.905 6.608,256.282 6.400,255.255 6.400 C 254.229 6.400,253.606 6.192,253.455 5.800 C 253.293 5.377,252.632 5.200,251.213 5.200 L 249.200 5.200 249.200 76.320 M6.100 256.682 C 5.104 256.874,4.848 258.000,5.800 258.000 C 6.252 258.000,6.400 258.486,6.400 259.971 C 6.400 261.190,6.629 262.172,7.000 262.543 C 7.330 262.873,7.600 263.791,7.600 264.584 C 7.600 265.496,7.820 266.110,8.200 266.255 C 8.587 266.404,8.800 267.023,8.800 268.000 C 8.800 268.977,9.013 269.596,9.400 269.745 C 9.796 269.897,10.000 270.523,10.000 271.587 C 10.000 272.754,10.166 273.200,10.600 273.200 C 11.044 273.200,11.200 273.667,11.200 275.000 C 11.200 276.333,11.356 276.800,11.800 276.800 C 12.200 276.800,12.400 277.200,12.400 278.000 C 12.400 278.800,12.600 279.200,13.000 279.200 C 13.444 279.200,13.600 279.667,13.600 281.000 C 13.600 282.333,13.756 282.800,14.200 282.800 C 14.600 282.800,14.800 283.200,14.800 284.000 C 14.800 284.800,15.000 285.200,15.400 285.200 C 15.833 285.200,16.000 285.644,16.000 286.800 C 16.000 287.956,16.167 288.400,16.600 288.400 C 17.000 288.400,17.200 288.800,17.200 289.600 C 17.200 290.400,17.400 290.800,17.800 290.800 C 18.200 290.800,18.400 291.200,18.400 292.000 C 18.400 292.800,18.600 293.200,19.000 293.200 C 19.400 293.200,19.600 293.600,19.600 294.400 C 19.600 295.060,19.760 295.600,19.957 295.600 C 20.153 295.600,20.427 296.053,20.566 296.606 C 21.241 299.297,22.220 299.598,24.779 297.900 C 27.215 296.283,31.991 293.291,33.132 292.667 C 34.024 292.179,42.878 286.712,44.732 285.504 C 45.319 285.122,46.070 284.689,46.400 284.544 C 46.730 284.398,47.334 283.991,47.742 283.639 C 48.793 282.733,122.000 282.436,122.000 283.338 C 122.000 283.643,118.917 285.761,115.148 288.046 C 111.379 290.331,107.877 292.470,107.365 292.800 C 106.392 293.427,97.587 298.884,96.200 299.718 C 95.760 299.983,94.680 300.659,93.800 301.219 C 92.920 301.779,91.930 302.366,91.600 302.523 C 91.270 302.680,90.520 303.122,89.933 303.504 C 89.346 303.887,85.502 306.270,81.391 308.800 C 77.279 311.330,73.439 313.712,72.858 314.094 C 72.276 314.476,71.440 314.973,71.000 315.200 C 70.560 315.427,69.715 315.924,69.122 316.306 C 68.529 316.688,65.417 318.620,62.206 320.600 C 58.995 322.580,55.880 324.513,55.284 324.896 C 54.688 325.278,53.930 325.715,53.600 325.866 C 53.270 326.018,52.910 326.260,52.800 326.404 C 52.690 326.548,50.890 327.696,48.800 328.955 C 43.902 331.907,43.419 332.194,43.304 332.229 C 42.968 332.331,44.296 334.394,44.700 334.397 C 44.975 334.399,45.200 334.670,45.200 335.000 C 45.200 335.330,45.470 335.600,45.800 335.600 C 46.130 335.600,46.400 335.870,46.400 336.200 C 46.400 336.530,46.670 336.800,47.000 336.800 C 47.330 336.800,47.600 337.070,47.600 337.400 C 47.600 337.730,47.870 338.000,48.200 338.000 C 48.530 338.000,48.800 338.251,48.800 338.557 C 48.800 338.864,49.070 339.218,49.400 339.345 C 49.730 339.471,50.000 339.946,50.000 340.400 C 50.000 340.854,50.270 341.329,50.600 341.455 C 50.930 341.582,51.200 341.936,51.200 342.243 C 51.200 342.549,51.470 342.800,51.800 342.800 C 52.130 342.800,52.400 343.070,52.400 343.400 C 52.400 343.730,52.670 344.000,53.000 344.000 C 53.330 344.000,53.600 344.270,53.600 344.600 C 53.600 344.930,53.870 345.200,54.200 345.200 C 54.530 345.200,54.800 345.470,54.800 345.800 C 54.800 346.130,55.070 346.400,55.400 346.400 C 55.730 346.400,56.000 346.670,56.000 347.000 C 56.000 347.330,56.270 347.600,56.600 347.600 C 56.930 347.600,57.200 347.870,57.200 348.200 C 57.200 348.530,57.470 348.800,57.800 348.800 C 58.130 348.800,58.400 348.980,58.400 349.200 C 58.400 349.420,58.670 349.600,59.000 349.600 C 59.330 349.600,59.600 349.780,59.600 350.000 C 59.600 351.444,61.562 352.267,62.631 351.272 C 63.449 350.509,65.408 349.266,70.600 346.214 C 71.700 345.567,72.690 344.917,72.800 344.769 C 72.910 344.621,73.630 344.157,74.400 343.737 C 75.170 343.317,76.520 342.513,77.400 341.950 C 78.280 341.386,79.741 340.492,80.646 339.963 C 82.379 338.950,89.292 334.690,91.125 333.506 C 91.716 333.124,92.560 332.645,93.000 332.440 C 93.440 332.236,94.420 331.604,95.178 331.035 C 95.935 330.466,96.790 330.000,97.078 330.000 C 97.365 330.000,97.600 329.861,97.600 329.691 C 97.600 329.521,98.275 329.026,99.100 328.591 C 99.925 328.156,101.320 327.324,102.200 326.743 C 103.080 326.161,104.565 325.288,105.500 324.802 C 106.435 324.317,107.200 323.757,107.200 323.560 C 107.200 323.362,107.384 323.200,107.608 323.200 C 107.832 323.200,108.777 322.709,109.708 322.108 C 111.943 320.666,112.836 320.121,113.800 319.611 C 114.240 319.379,115.140 318.833,115.800 318.398 C 116.460 317.964,117.270 317.485,117.600 317.334 C 117.930 317.183,118.741 316.653,119.402 316.157 C 121.219 314.793,122.860 314.252,123.261 314.884 C 123.750 315.656,123.690 391.497,123.200 391.800 C 122.340 392.332,122.809 393.200,123.957 393.200 C 124.617 393.200,125.213 393.458,125.345 393.800 C 125.497 394.196,126.123 394.400,127.187 394.400 C 128.354 394.400,128.800 394.566,128.800 395.000 C 128.800 395.444,129.267 395.600,130.600 395.600 C 131.933 395.600,132.400 395.756,132.400 396.200 C 132.400 396.595,132.795 396.800,133.557 396.800 C 134.217 396.800,134.813 397.058,134.945 397.400 C 135.095 397.792,135.718 398.000,136.745 398.000 C 137.771 398.000,138.394 398.208,138.545 398.600 C 138.706 399.021,139.363 399.200,140.745 399.200 C 142.127 399.200,142.783 399.379,142.945 399.800 C 143.095 400.192,143.718 400.400,144.745 400.400 C 145.771 400.400,146.394 400.608,146.545 401.000 C 146.708 401.426,147.374 401.600,148.843 401.600 C 150.339 401.600,151.062 401.794,151.456 402.300 C 151.971 402.963,152.032 402.959,152.600 402.224 C 153.541 401.006,153.508 257.004,152.567 256.643 C 151.859 256.371,7.514 256.410,6.100 256.682 M249.700 256.665 C 249.303 256.825,249.200 271.714,249.200 329.233 L 249.200 401.600 251.213 401.600 C 252.632 401.600,253.293 401.423,253.455 401.000 C 253.606 400.608,254.229 400.400,255.255 400.400 C 256.282 400.400,256.905 400.192,257.055 399.800 C 257.217 399.379,257.873 399.200,259.255 399.200 C 260.637 399.200,261.294 399.021,261.455 398.600 C 261.606 398.208,262.229 398.000,263.255 398.000 C 264.282 398.000,264.905 397.792,265.055 397.400 C 265.187 397.058,265.783 396.800,266.443 396.800 C 267.205 396.800,267.600 396.595,267.600 396.200 C 267.600 395.756,268.067 395.600,269.400 395.600 C 270.733 395.600,271.200 395.444,271.200 395.000 C 271.200 394.566,271.646 394.400,272.813 394.400 C 273.877 394.400,274.503 394.196,274.655 393.800 C 274.787 393.458,275.383 393.200,276.043 393.200 C 276.805 393.200,277.200 392.995,277.200 392.600 C 277.200 392.205,277.595 392.000,278.357 392.000 C 280.068 392.000,280.017 393.219,279.992 352.536 C 279.979 331.931,280.112 314.928,280.289 314.751 C 280.465 314.575,281.057 314.686,281.604 314.998 C 282.152 315.310,282.960 315.761,283.400 316.000 C 284.397 316.541,285.334 317.116,287.492 318.508 C 288.423 319.109,289.266 319.600,289.367 319.600 C 289.467 319.600,290.691 320.365,292.086 321.300 C 293.481 322.235,295.247 323.343,296.011 323.761 C 296.775 324.180,298.174 325.035,299.120 325.661 C 300.066 326.288,301.011 326.800,301.220 326.800 C 301.429 326.800,301.600 326.977,301.600 327.192 C 301.600 327.408,302.050 327.698,302.600 327.836 C 303.150 327.974,303.600 328.247,303.600 328.443 C 303.600 328.640,303.758 328.800,303.952 328.800 C 304.321 328.800,312.247 333.639,313.083 334.375 C 313.349 334.609,313.709 334.800,313.883 334.801 C 314.057 334.801,315.385 335.580,316.833 336.532 C 318.281 337.484,319.721 338.386,320.033 338.536 C 320.345 338.686,321.140 339.165,321.800 339.600 C 322.460 340.035,323.270 340.520,323.600 340.677 C 323.930 340.834,324.946 341.466,325.858 342.081 C 326.770 342.696,327.700 343.200,327.925 343.200 C 328.149 343.200,328.393 343.346,328.467 343.525 C 328.540 343.703,330.670 345.090,333.200 346.607 C 335.730 348.124,338.149 349.688,338.575 350.082 C 339.520 350.956,340.400 351.013,340.400 350.200 C 340.400 349.870,340.670 349.600,341.000 349.600 C 341.330 349.600,341.600 349.420,341.600 349.200 C 341.600 348.980,341.870 348.800,342.200 348.800 C 342.530 348.800,342.800 348.530,342.800 348.200 C 342.800 347.870,343.070 347.600,343.400 347.600 C 343.730 347.600,344.000 347.330,344.000 347.000 C 344.000 346.670,344.270 346.400,344.600 346.400 C 344.930 346.400,345.200 346.130,345.200 345.800 C 345.200 345.470,345.470 345.200,345.800 345.200 C 346.130 345.200,346.400 344.930,346.400 344.600 C 346.400 344.270,346.670 344.000,347.000 344.000 C 347.330 344.000,347.600 343.730,347.600 343.400 C 347.600 343.070,347.870 342.800,348.200 342.800 C 348.530 342.800,348.800 342.549,348.800 342.243 C 348.800 341.936,349.070 341.582,349.400 341.455 C 349.730 341.329,350.000 340.854,350.000 340.400 C 350.000 339.946,350.270 339.471,350.600 339.345 C 350.930 339.218,351.200 338.864,351.200 338.557 C 351.200 338.251,351.470 338.000,351.800 338.000 C 352.130 338.000,352.400 337.730,352.400 337.400 C 352.400 337.070,352.670 336.800,353.000 336.800 C 353.330 336.800,353.600 336.530,353.600 336.200 C 353.600 335.870,353.870 335.600,354.200 335.600 C 354.530 335.600,354.800 335.330,354.800 335.000 C 354.800 334.670,355.030 334.400,355.310 334.400 C 355.591 334.400,356.176 333.592,356.610 332.604 C 357.045 331.616,357.625 330.806,357.900 330.804 C 358.175 330.802,358.400 330.530,358.400 330.200 C 358.400 329.870,358.670 329.600,359.000 329.600 C 359.330 329.600,359.600 329.330,359.600 329.000 C 359.600 328.670,359.780 328.400,360.000 328.400 C 360.220 328.400,360.400 327.950,360.400 327.400 C 360.400 326.778,360.627 326.400,361.000 326.400 C 361.330 326.400,361.600 326.130,361.600 325.800 C 361.600 325.470,361.870 325.200,362.200 325.200 C 362.533 325.200,362.800 324.844,362.800 324.400 C 362.800 323.956,363.067 323.600,363.400 323.600 C 363.773 323.600,364.000 323.222,364.000 322.600 C 364.000 321.978,364.227 321.600,364.600 321.600 C 364.930 321.600,365.200 321.330,365.200 321.000 C 365.200 320.670,365.470 320.400,365.800 320.400 C 366.200 320.400,366.400 320.000,366.400 319.200 C 366.400 318.400,366.600 318.000,367.000 318.000 C 367.330 318.000,367.600 317.730,367.600 317.400 C 367.600 317.070,367.870 316.800,368.200 316.800 C 368.600 316.800,368.800 316.400,368.800 315.600 C 368.800 314.800,369.000 314.400,369.400 314.400 C 369.800 314.400,370.000 314.000,370.000 313.200 C 370.000 312.400,370.200 312.000,370.600 312.000 C 370.930 312.000,371.200 311.730,371.200 311.400 C 371.200 311.070,371.470 310.800,371.800 310.800 C 372.166 310.800,372.400 310.427,372.400 309.843 C 372.400 309.316,372.670 308.782,373.000 308.655 C 373.330 308.529,373.600 307.969,373.600 307.413 C 373.600 306.779,373.825 306.400,374.200 306.400 C 374.533 306.400,374.800 306.044,374.800 305.600 C 374.800 305.160,374.980 304.800,375.200 304.800 C 376.010 304.800,375.567 304.065,374.500 303.638 C 373.895 303.396,372.860 302.841,372.200 302.405 C 371.540 301.969,370.640 301.427,370.200 301.200 C 369.760 300.973,368.860 300.433,368.200 299.998 C 367.540 299.564,366.733 299.082,366.408 298.926 C 366.082 298.771,362.262 296.519,357.919 293.922 C 353.575 291.325,349.837 289.200,349.611 289.200 C 349.385 289.200,349.200 289.023,349.200 288.808 C 349.200 288.592,348.750 288.302,348.200 288.164 C 347.650 288.026,347.197 287.798,347.194 287.657 C 347.190 287.515,346.290 286.960,345.194 286.421 C 344.097 285.883,343.200 285.298,343.200 285.121 C 343.200 284.945,342.876 284.800,342.480 284.800 C 341.528 284.800,340.808 284.045,341.081 283.333 C 341.267 282.849,344.592 282.769,363.150 282.801 C 375.167 282.822,385.315 282.830,385.700 282.819 C 386.260 282.804,386.400 282.440,386.400 281.000 C 386.400 279.667,386.556 279.200,387.000 279.200 C 387.400 279.200,387.600 278.800,387.600 278.000 C 387.600 277.200,387.800 276.800,388.200 276.800 C 388.644 276.800,388.800 276.333,388.800 275.000 C 388.800 273.667,388.956 273.200,389.400 273.200 C 389.831 273.200,390.000 272.760,390.000 271.643 C 390.000 270.628,390.209 270.005,390.600 269.855 C 390.992 269.705,391.200 269.082,391.200 268.055 C 391.200 267.029,391.408 266.406,391.800 266.255 C 392.180 266.110,392.400 265.496,392.400 264.584 C 392.400 263.791,392.670 262.873,393.000 262.543 C 393.371 262.172,393.600 261.190,393.600 259.971 C 393.600 258.486,393.748 258.000,394.200 258.000 C 395.331 258.000,394.801 256.900,393.550 256.650 C 392.074 256.355,250.432 256.370,249.700 256.665 " stroke="none" fill="#fbfbfb" fill-rule="evenodd"></path><path id="path2" d="M120.545 15.400 C 120.395 15.791,119.772 16.000,118.757 16.000 C 117.640 16.000,117.200 16.169,117.200 16.600 C 117.200 17.000,116.800 17.200,116.000 17.200 C 115.200 17.200,114.800 17.400,114.800 17.800 C 114.800 18.200,114.400 18.400,113.600 18.400 C 112.800 18.400,112.400 18.600,112.400 19.000 C 112.400 19.400,112.000 19.600,111.200 19.600 C 110.540 19.600,110.000 19.780,110.000 20.000 C 110.000 20.220,109.653 20.400,109.229 20.400 C 108.804 20.400,108.187 20.670,107.857 21.000 C 107.527 21.330,106.879 21.600,106.416 21.600 C 105.953 21.600,105.471 21.870,105.345 22.200 C 105.218 22.530,104.814 22.800,104.446 22.800 C 104.079 22.800,103.187 23.340,102.464 24.000 C 101.742 24.660,100.802 25.200,100.375 25.200 C 99.949 25.200,99.600 25.470,99.600 25.800 C 99.600 26.200,99.200 26.400,98.400 26.400 C 97.600 26.400,97.200 26.600,97.200 27.000 C 97.200 27.330,96.862 27.600,96.449 27.600 C 96.036 27.600,95.474 27.870,95.200 28.200 C 94.926 28.530,94.454 28.800,94.151 28.800 C 93.848 28.800,93.600 29.070,93.600 29.400 C 93.600 29.800,93.200 30.000,92.400 30.000 C 91.600 30.000,91.200 30.200,91.200 30.600 C 91.200 30.930,90.930 31.200,90.600 31.200 C 90.270 31.200,90.000 31.470,90.000 31.800 C 90.000 32.200,89.600 32.400,88.800 32.400 C 88.000 32.400,87.600 32.600,87.600 33.000 C 87.600 33.330,87.330 33.600,87.000 33.600 C 86.670 33.600,86.400 33.870,86.400 34.200 C 86.400 34.575,86.021 34.800,85.387 34.800 C 84.831 34.800,84.271 35.070,84.145 35.400 C 84.018 35.730,83.664 36.000,83.357 36.000 C 83.051 36.000,82.800 36.270,82.800 36.600 C 82.800 36.930,82.530 37.200,82.200 37.200 C 81.870 37.200,81.600 37.470,81.600 37.800 C 81.600 38.138,81.242 38.400,80.781 38.400 C 80.330 38.400,79.545 38.850,79.035 39.400 C 78.525 39.950,77.904 40.400,77.654 40.400 C 77.404 40.400,77.200 40.656,77.200 40.968 C 77.200 41.281,76.660 41.655,76.000 41.800 C 75.340 41.945,74.800 42.229,74.800 42.432 C 74.800 42.634,74.530 42.800,74.200 42.800 C 73.870 42.800,73.600 43.070,73.600 43.400 C 73.600 43.730,73.330 44.000,73.000 44.000 C 72.670 44.000,72.400 44.270,72.400 44.600 C 72.400 44.930,72.130 45.200,71.800 45.200 C 71.470 45.200,71.200 45.470,71.200 45.800 C 71.200 46.130,70.930 46.400,70.600 46.400 C 70.270 46.400,70.000 46.670,70.000 47.000 C 70.000 47.330,69.680 47.600,69.289 47.600 C 68.898 47.600,67.987 48.140,67.264 48.800 C 66.542 49.460,65.782 50.000,65.575 50.000 C 65.369 50.000,65.200 50.270,65.200 50.600 C 65.200 50.930,64.930 51.200,64.600 51.200 C 62.125 51.200,64.725 53.775,70.426 56.970 C 71.182 57.393,71.890 57.843,72.000 57.970 C 72.110 58.096,72.560 58.415,73.000 58.678 C 78.851 62.170,81.423 63.795,81.533 64.069 C 81.607 64.251,81.877 64.400,82.133 64.401 C 82.390 64.401,83.785 65.180,85.233 66.132 C 86.681 67.084,88.121 67.986,88.433 68.136 C 88.745 68.286,89.540 68.764,90.200 69.198 C 90.860 69.633,91.760 70.173,92.200 70.400 C 92.640 70.627,93.540 71.167,94.200 71.602 C 94.860 72.036,95.670 72.515,96.000 72.666 C 96.330 72.818,96.690 73.057,96.800 73.199 C 96.910 73.340,99.520 74.962,102.600 76.803 C 105.680 78.643,108.260 80.296,108.333 80.475 C 108.407 80.654,108.709 80.800,109.005 80.800 C 109.301 80.800,109.781 81.037,110.071 81.326 C 110.522 81.775,112.505 83.019,115.288 84.600 C 115.675 84.820,117.365 85.855,119.043 86.900 C 120.721 87.945,122.297 88.800,122.547 88.800 C 122.882 88.800,122.973 79.161,122.896 51.800 L 122.792 14.800 121.783 14.800 C 121.229 14.800,120.671 15.070,120.545 15.400 M280.400 51.627 L 280.400 87.254 281.300 86.978 C 281.795 86.826,282.444 86.506,282.743 86.267 C 283.383 85.753,284.681 84.985,285.800 84.457 C 286.240 84.250,287.283 83.612,288.118 83.040 C 288.953 82.468,289.808 82.000,290.018 82.000 C 290.228 82.000,290.400 81.832,290.400 81.627 C 290.400 81.422,290.805 81.128,291.300 80.973 C 291.795 80.819,292.290 80.569,292.400 80.418 C 292.510 80.267,295.096 78.627,298.147 76.772 C 301.198 74.917,304.168 73.094,304.747 72.719 C 306.099 71.845,307.587 70.955,308.600 70.415 C 309.040 70.180,309.872 69.676,310.448 69.294 C 312.291 68.073,323.182 61.415,324.006 61.005 C 324.443 60.788,324.800 60.473,324.800 60.305 C 324.800 60.137,325.057 60.000,325.371 60.000 C 325.686 60.000,326.181 59.764,326.471 59.475 C 326.762 59.187,328.760 57.902,330.911 56.620 C 333.062 55.337,334.917 54.134,335.034 53.944 C 335.151 53.755,335.687 53.600,336.224 53.600 C 336.825 53.600,337.200 53.369,337.200 53.000 C 337.200 52.670,336.930 52.400,336.600 52.400 C 336.270 52.400,336.000 52.130,336.000 51.800 C 336.000 51.470,335.730 51.200,335.400 51.200 C 335.070 51.200,334.800 50.930,334.800 50.600 C 334.800 50.270,334.631 50.000,334.425 50.000 C 334.218 50.000,333.458 49.460,332.736 48.800 C 332.013 48.140,331.102 47.600,330.711 47.600 C 330.320 47.600,330.000 47.330,330.000 47.000 C 330.000 46.670,329.730 46.400,329.400 46.400 C 329.070 46.400,328.800 46.130,328.800 45.800 C 328.800 45.470,328.530 45.200,328.200 45.200 C 327.870 45.200,327.600 44.930,327.600 44.600 C 327.600 44.270,327.330 44.000,327.000 44.000 C 326.670 44.000,326.400 43.730,326.400 43.400 C 326.400 43.070,326.130 42.800,325.800 42.800 C 325.470 42.800,325.200 42.634,325.200 42.432 C 325.200 42.229,324.660 41.945,324.000 41.800 C 323.340 41.655,322.800 41.281,322.800 40.968 C 322.800 40.656,322.596 40.400,322.346 40.400 C 322.096 40.400,321.475 39.950,320.965 39.400 C 320.455 38.850,319.670 38.400,319.219 38.400 C 318.758 38.400,318.400 38.138,318.400 37.800 C 318.400 37.470,318.130 37.200,317.800 37.200 C 317.470 37.200,317.200 36.930,317.200 36.600 C 317.200 36.270,316.949 36.000,316.643 36.000 C 316.336 36.000,315.982 35.730,315.855 35.400 C 315.729 35.070,315.169 34.800,314.613 34.800 C 313.979 34.800,313.600 34.575,313.600 34.200 C 313.600 33.870,313.330 33.600,313.000 33.600 C 312.670 33.600,312.400 33.330,312.400 33.000 C 312.400 32.600,312.000 32.400,311.200 32.400 C 310.400 32.400,310.000 32.200,310.000 31.800 C 310.000 31.470,309.730 31.200,309.400 31.200 C 309.070 31.200,308.800 30.930,308.800 30.600 C 308.800 30.200,308.400 30.000,307.600 30.000 C 306.800 30.000,306.400 29.800,306.400 29.400 C 306.400 29.070,306.152 28.800,305.849 28.800 C 305.546 28.800,305.074 28.530,304.800 28.200 C 304.526 27.870,303.964 27.600,303.551 27.600 C 303.138 27.600,302.800 27.330,302.800 27.000 C 302.800 26.600,302.400 26.400,301.600 26.400 C 300.800 26.400,300.400 26.200,300.400 25.800 C 300.400 25.470,300.051 25.200,299.625 25.200 C 299.198 25.200,298.258 24.660,297.536 24.000 C 296.813 23.340,295.921 22.800,295.554 22.800 C 295.186 22.800,294.782 22.530,294.655 22.200 C 294.529 21.870,294.047 21.600,293.584 21.600 C 293.121 21.600,292.473 21.330,292.143 21.000 C 291.813 20.670,291.196 20.400,290.771 20.400 C 290.347 20.400,290.000 20.220,290.000 20.000 C 290.000 19.780,289.460 19.600,288.800 19.600 C 288.000 19.600,287.600 19.400,287.600 19.000 C 287.600 18.600,287.200 18.400,286.400 18.400 C 285.600 18.400,285.200 18.200,285.200 17.800 C 285.200 17.400,284.800 17.200,284.000 17.200 C 283.200 17.200,282.800 17.000,282.800 16.600 C 282.800 16.200,282.400 16.000,281.600 16.000 L 280.400 16.000 280.400 51.627 M121.420 315.567 C 121.308 315.750,119.939 316.687,118.379 317.650 C 116.819 318.612,115.061 319.712,114.472 320.094 C 113.882 320.476,113.040 320.970,112.600 321.193 C 112.160 321.416,111.458 321.824,111.039 322.099 C 107.077 324.708,104.925 325.999,104.533 325.999 C 104.277 326.000,104.007 326.146,103.933 326.325 C 103.860 326.504,101.280 328.158,98.200 330.000 C 95.120 331.842,92.540 333.496,92.467 333.675 C 92.393 333.854,92.177 334.000,91.987 334.000 C 91.796 334.000,90.866 334.521,89.920 335.157 C 88.974 335.794,87.480 336.704,86.600 337.179 C 85.720 337.655,83.650 338.934,82.000 340.022 C 80.350 341.109,78.640 342.161,78.200 342.360 C 77.760 342.558,76.770 343.152,76.000 343.679 C 75.230 344.207,74.330 344.767,74.000 344.924 C 73.670 345.081,72.860 345.565,72.200 346.000 C 71.540 346.435,70.730 346.915,70.400 347.066 C 70.070 347.218,69.710 347.460,69.600 347.604 C 69.490 347.749,68.092 348.639,66.493 349.583 C 64.894 350.527,63.488 351.457,63.369 351.650 C 63.250 351.842,62.803 352.000,62.376 352.000 C 61.460 352.000,61.339 352.725,62.200 353.055 C 62.530 353.182,62.800 353.536,62.800 353.843 C 62.800 354.149,63.070 354.400,63.400 354.400 C 63.730 354.400,64.000 354.670,64.000 355.000 C 64.000 355.330,64.270 355.600,64.600 355.600 C 64.930 355.600,65.200 355.870,65.200 356.200 C 65.200 356.530,65.369 356.800,65.575 356.800 C 65.782 356.800,66.542 357.340,67.264 358.000 C 67.987 358.660,68.898 359.200,69.289 359.200 C 69.680 359.200,70.000 359.470,70.000 359.800 C 70.000 360.130,70.270 360.400,70.600 360.400 C 70.930 360.400,71.200 360.670,71.200 361.000 C 71.200 361.330,71.470 361.600,71.800 361.600 C 72.130 361.600,72.400 361.870,72.400 362.200 C 72.400 362.530,72.670 362.800,73.000 362.800 C 73.330 362.800,73.600 363.070,73.600 363.400 C 73.600 363.730,73.870 364.000,74.200 364.000 C 74.530 364.000,74.800 364.166,74.800 364.368 C 74.800 364.571,75.340 364.855,76.000 365.000 C 76.660 365.145,77.200 365.519,77.200 365.832 C 77.200 366.144,77.389 366.400,77.619 366.400 C 77.850 366.400,78.455 366.850,78.965 367.400 C 79.475 367.950,80.276 368.400,80.746 368.400 C 81.238 368.400,81.600 368.654,81.600 369.000 C 81.600 369.330,81.870 369.600,82.200 369.600 C 82.530 369.600,82.800 369.870,82.800 370.200 C 82.800 370.530,83.051 370.800,83.357 370.800 C 83.664 370.800,84.018 371.070,84.145 371.400 C 84.271 371.730,84.831 372.000,85.387 372.000 C 86.021 372.000,86.400 372.225,86.400 372.600 C 86.400 372.930,86.670 373.200,87.000 373.200 C 87.330 373.200,87.600 373.470,87.600 373.800 C 87.600 374.200,88.000 374.400,88.800 374.400 C 89.600 374.400,90.000 374.600,90.000 375.000 C 90.000 375.330,90.270 375.600,90.600 375.600 C 90.930 375.600,91.200 375.870,91.200 376.200 C 91.200 376.600,91.600 376.800,92.400 376.800 C 93.200 376.800,93.600 377.000,93.600 377.400 C 93.600 377.730,93.848 378.000,94.151 378.000 C 94.454 378.000,94.926 378.270,95.200 378.600 C 95.474 378.930,96.036 379.200,96.449 379.200 C 96.862 379.200,97.200 379.470,97.200 379.800 C 97.200 380.200,97.600 380.400,98.400 380.400 C 99.200 380.400,99.600 380.600,99.600 381.000 C 99.600 381.330,99.949 381.600,100.375 381.600 C 100.802 381.600,101.742 382.140,102.464 382.800 C 103.187 383.460,104.079 384.000,104.446 384.000 C 104.814 384.000,105.218 384.270,105.345 384.600 C 105.471 384.930,106.011 385.200,106.545 385.200 C 107.078 385.200,107.618 385.470,107.745 385.800 C 107.871 386.130,108.411 386.400,108.945 386.400 C 109.478 386.400,110.018 386.670,110.145 387.000 C 110.271 387.330,110.831 387.600,111.387 387.600 C 111.944 387.600,112.400 387.780,112.400 388.000 C 112.400 388.220,112.940 388.400,113.600 388.400 C 114.400 388.400,114.800 388.600,114.800 389.000 C 114.800 389.400,115.200 389.600,116.000 389.600 C 116.800 389.600,117.200 389.800,117.200 390.200 C 117.200 390.631,117.640 390.800,118.757 390.800 C 119.772 390.800,120.395 391.009,120.545 391.400 C 120.671 391.730,121.141 392.000,121.587 392.000 C 122.398 392.000,122.400 391.927,122.400 354.433 C 122.400 333.771,122.500 316.604,122.623 316.284 C 122.861 315.663,121.765 315.009,121.420 315.567 M280.400 353.000 L 280.400 390.800 281.600 390.800 C 282.400 390.800,282.800 390.600,282.800 390.200 C 282.800 389.800,283.200 389.600,284.000 389.600 C 284.800 389.600,285.200 389.400,285.200 389.000 C 285.200 388.600,285.600 388.400,286.400 388.400 C 287.060 388.400,287.600 388.220,287.600 388.000 C 287.600 387.780,288.056 387.600,288.613 387.600 C 289.169 387.600,289.729 387.330,289.855 387.000 C 289.982 386.670,290.522 386.400,291.055 386.400 C 291.589 386.400,292.129 386.130,292.255 385.800 C 292.382 385.470,292.922 385.200,293.455 385.200 C 293.989 385.200,294.529 384.930,294.655 384.600 C 294.782 384.270,295.186 384.000,295.554 384.000 C 295.921 384.000,296.813 383.460,297.536 382.800 C 298.258 382.140,299.198 381.600,299.625 381.600 C 300.051 381.600,300.400 381.330,300.400 381.000 C 300.400 380.600,300.800 380.400,301.600 380.400 C 302.400 380.400,302.800 380.200,302.800 379.800 C 302.800 379.470,303.138 379.200,303.551 379.200 C 303.964 379.200,304.526 378.930,304.800 378.600 C 305.074 378.270,305.546 378.000,305.849 378.000 C 306.152 378.000,306.400 377.730,306.400 377.400 C 306.400 377.000,306.800 376.800,307.600 376.800 C 308.400 376.800,308.800 376.600,308.800 376.200 C 308.800 375.870,309.070 375.600,309.400 375.600 C 309.730 375.600,310.000 375.330,310.000 375.000 C 310.000 374.600,310.400 374.400,311.200 374.400 C 312.000 374.400,312.400 374.200,312.400 373.800 C 312.400 373.470,312.670 373.200,313.000 373.200 C 313.330 373.200,313.600 372.930,313.600 372.600 C 313.600 372.225,313.979 372.000,314.613 372.000 C 315.169 372.000,315.729 371.730,315.855 371.400 C 315.982 371.070,316.336 370.800,316.643 370.800 C 316.949 370.800,317.200 370.530,317.200 370.200 C 317.200 369.870,317.470 369.600,317.800 369.600 C 318.130 369.600,318.400 369.330,318.400 369.000 C 318.400 368.627,318.778 368.400,319.400 368.400 C 319.950 368.400,320.400 368.220,320.400 368.000 C 320.400 367.780,320.670 367.600,321.000 367.600 C 321.330 367.600,321.600 367.330,321.600 367.000 C 321.600 366.670,321.870 366.400,322.200 366.400 C 322.530 366.400,322.800 366.144,322.800 365.832 C 322.800 365.519,323.340 365.145,324.000 365.000 C 324.660 364.855,325.200 364.571,325.200 364.368 C 325.200 364.166,325.470 364.000,325.800 364.000 C 326.130 364.000,326.400 363.730,326.400 363.400 C 326.400 363.070,326.670 362.800,327.000 362.800 C 327.330 362.800,327.600 362.530,327.600 362.200 C 327.600 361.870,327.870 361.600,328.200 361.600 C 328.530 361.600,328.800 361.330,328.800 361.000 C 328.800 360.670,329.070 360.400,329.400 360.400 C 329.730 360.400,330.000 360.130,330.000 359.800 C 330.000 359.470,330.320 359.200,330.711 359.200 C 331.102 359.200,332.013 358.660,332.736 358.000 C 333.458 357.340,334.218 356.800,334.425 356.800 C 334.631 356.800,334.800 356.530,334.800 356.200 C 334.800 355.870,335.070 355.600,335.400 355.600 C 335.730 355.600,336.000 355.330,336.000 355.000 C 336.000 354.670,336.270 354.400,336.600 354.400 C 336.930 354.400,337.200 354.130,337.200 353.800 C 337.200 353.470,337.470 353.200,337.800 353.200 C 338.130 353.200,338.400 352.930,338.400 352.600 C 338.400 352.270,338.670 352.000,339.000 352.000 C 339.330 352.000,339.600 351.730,339.600 351.400 C 339.600 351.070,339.299 350.800,338.931 350.800 C 338.564 350.800,337.979 350.558,337.631 350.261 C 337.284 349.965,334.954 348.480,332.454 346.961 C 329.953 345.443,327.433 343.887,326.854 343.504 C 326.274 343.122,325.530 342.686,325.200 342.537 C 324.870 342.387,323.160 341.338,321.400 340.206 C 319.640 339.074,315.680 336.639,312.600 334.795 C 309.520 332.950,306.762 331.207,306.471 330.921 C 306.181 330.634,305.686 330.400,305.371 330.400 C 305.057 330.400,304.800 330.220,304.800 330.000 C 304.800 329.780,304.629 329.600,304.420 329.600 C 304.211 329.600,303.266 329.084,302.320 328.454 C 301.374 327.824,299.845 326.879,298.921 326.354 C 297.516 325.555,293.290 322.956,288.470 319.927 C 287.882 319.557,286.734 318.890,285.919 318.444 C 285.105 317.998,283.683 317.086,282.759 316.416 C 281.836 315.747,280.927 315.200,280.740 315.200 C 280.553 315.200,280.400 332.210,280.400 353.000 " stroke="none" fill="#14155c" fill-rule="evenodd"></path><path id="path3" d="M122.896 51.774 C 122.973 79.154,122.882 88.800,122.547 88.800 C 122.297 88.800,120.721 87.945,119.043 86.900 C 117.365 85.855,115.675 84.820,115.288 84.600 C 112.505 83.019,110.522 81.775,110.071 81.326 C 109.781 81.037,109.301 80.800,109.005 80.800 C 108.709 80.800,108.407 80.654,108.333 80.475 C 108.260 80.296,105.680 78.643,102.600 76.803 C 99.520 74.962,96.910 73.340,96.800 73.199 C 96.690 73.057,96.330 72.818,96.000 72.666 C 95.670 72.515,94.860 72.036,94.200 71.602 C 93.540 71.167,92.640 70.627,92.200 70.400 C 91.760 70.173,90.860 69.633,90.200 69.198 C 89.540 68.764,88.745 68.286,88.433 68.136 C 88.121 67.986,86.681 67.084,85.233 66.132 C 83.785 65.180,82.390 64.401,82.133 64.401 C 81.877 64.400,81.607 64.251,81.533 64.069 C 81.423 63.795,78.851 62.170,73.000 58.678 C 72.560 58.415,72.110 58.096,72.000 57.970 C 71.890 57.843,71.182 57.393,70.426 56.970 C 67.964 55.590,65.015 53.662,64.328 52.983 C 63.958 52.617,63.463 52.437,63.228 52.583 C 62.488 53.040,62.755 53.433,64.183 53.993 C 64.944 54.292,65.659 54.776,65.771 55.068 C 65.883 55.361,66.164 55.600,66.395 55.600 C 66.627 55.600,67.577 56.091,68.508 56.692 C 71.382 58.546,71.778 58.779,72.500 59.040 C 72.885 59.179,73.200 59.440,73.200 59.620 C 73.200 59.799,73.605 60.072,74.100 60.227 C 74.595 60.381,75.090 60.631,75.200 60.782 C 75.310 60.933,78.346 62.844,81.948 65.028 C 85.549 67.213,88.969 69.312,89.548 69.694 C 90.126 70.076,90.960 70.553,91.400 70.754 C 91.840 70.955,92.883 71.588,93.718 72.160 C 94.553 72.732,95.309 73.200,95.398 73.200 C 95.487 73.200,96.360 73.740,97.338 74.400 C 98.316 75.060,99.300 75.600,99.525 75.600 C 99.749 75.600,99.993 75.746,100.067 75.925 C 100.140 76.103,102.270 77.486,104.800 78.997 C 107.330 80.509,109.490 81.869,109.600 82.019 C 109.710 82.169,110.205 82.419,110.700 82.573 C 111.195 82.728,111.600 83.001,111.600 83.180 C 111.600 83.360,111.915 83.616,112.300 83.749 C 112.685 83.882,113.540 84.350,114.200 84.789 C 114.860 85.229,115.760 85.773,116.200 86.000 C 116.640 86.227,117.540 86.767,118.200 87.200 C 118.860 87.633,119.805 88.166,120.300 88.384 C 120.795 88.602,121.200 88.965,121.200 89.190 C 121.200 89.416,121.740 89.600,122.400 89.600 L 123.600 89.600 123.600 52.424 C 123.600 27.818,123.463 15.163,123.196 14.997 C 122.925 14.830,122.826 26.914,122.896 51.774 M280.098 51.833 C 280.044 71.652,280.112 87.979,280.250 88.116 C 280.387 88.253,281.152 88.009,281.950 87.572 C 284.848 85.987,286.993 84.664,287.519 84.138 C 287.815 83.842,288.236 83.600,288.455 83.600 C 288.674 83.600,289.426 83.195,290.127 82.699 C 291.541 81.698,292.137 81.325,294.900 79.710 C 295.944 79.100,296.799 78.465,296.800 78.300 C 296.800 78.135,297.033 78.000,297.319 78.000 C 297.604 78.000,299.038 77.212,300.505 76.248 C 301.972 75.285,303.403 74.378,303.686 74.233 C 304.330 73.902,305.332 73.286,307.492 71.892 C 308.423 71.291,309.265 70.800,309.364 70.800 C 309.463 70.800,310.681 70.038,312.072 69.108 C 313.462 68.177,315.230 67.076,316.000 66.660 C 316.770 66.245,318.174 65.387,319.120 64.753 C 320.066 64.119,321.011 63.600,321.220 63.600 C 321.429 63.600,321.600 63.440,321.600 63.243 C 321.600 63.047,322.050 62.774,322.600 62.636 C 323.150 62.498,323.600 62.208,323.600 61.992 C 323.600 61.777,323.793 61.600,324.028 61.600 C 324.263 61.600,325.211 61.105,326.135 60.500 C 328.224 59.131,328.917 58.703,331.300 57.310 C 332.344 56.700,333.199 56.065,333.200 55.900 C 333.200 55.735,333.470 55.600,333.800 55.600 C 334.130 55.600,334.738 55.262,335.150 54.850 C 335.563 54.437,336.148 54.002,336.450 53.882 C 336.778 53.751,336.647 53.650,336.124 53.632 C 335.642 53.614,335.151 53.755,335.034 53.944 C 334.917 54.134,333.062 55.337,330.911 56.620 C 328.760 57.902,326.762 59.187,326.471 59.475 C 326.181 59.764,325.686 60.000,325.371 60.000 C 325.057 60.000,324.800 60.137,324.800 60.305 C 324.800 60.473,324.443 60.788,324.006 61.005 C 323.182 61.415,312.291 68.073,310.448 69.294 C 309.872 69.676,309.040 70.173,308.600 70.400 C 308.160 70.627,307.260 71.161,306.600 71.587 C 305.940 72.013,305.012 72.595,304.537 72.881 C 298.392 76.578,292.559 80.200,292.400 80.418 C 292.290 80.569,291.795 80.819,291.300 80.973 C 290.805 81.128,290.400 81.422,290.400 81.627 C 290.400 81.832,290.228 82.000,290.018 82.000 C 289.808 82.000,288.953 82.468,288.118 83.040 C 287.283 83.612,286.240 84.250,285.800 84.457 C 284.681 84.985,283.383 85.753,282.743 86.267 C 282.444 86.506,281.796 86.826,281.302 86.977 L 280.404 87.253 280.300 51.526 L 280.196 15.800 280.098 51.833 M121.612 314.845 C 121.069 315.062,120.079 315.649,119.412 316.149 C 118.745 316.649,117.930 317.183,117.600 317.334 C 117.270 317.485,116.460 317.964,115.800 318.398 C 115.140 318.833,114.240 319.379,113.800 319.611 C 112.836 320.121,111.943 320.666,109.708 322.108 C 108.777 322.709,107.832 323.200,107.608 323.200 C 107.384 323.200,107.200 323.362,107.200 323.560 C 107.200 323.757,106.435 324.317,105.500 324.802 C 104.565 325.288,103.080 326.161,102.200 326.743 C 101.320 327.324,99.925 328.156,99.100 328.591 C 98.275 329.026,97.600 329.521,97.600 329.691 C 97.600 329.861,97.365 330.000,97.078 330.000 C 96.790 330.000,95.935 330.466,95.178 331.035 C 94.420 331.604,93.440 332.236,93.000 332.440 C 92.560 332.645,91.716 333.124,91.125 333.506 C 89.292 334.690,82.379 338.950,80.646 339.963 C 79.741 340.492,78.280 341.386,77.400 341.950 C 76.520 342.513,75.170 343.317,74.400 343.737 C 73.630 344.157,72.910 344.621,72.800 344.769 C 72.690 344.917,71.700 345.567,70.600 346.214 C 63.169 350.582,61.185 352.000,62.501 352.000 C 62.859 352.000,63.250 351.842,63.369 351.650 C 63.488 351.457,64.894 350.527,66.493 349.583 C 68.092 348.639,69.490 347.749,69.600 347.604 C 69.710 347.460,70.070 347.218,70.400 347.066 C 70.730 346.915,71.540 346.435,72.200 346.000 C 72.860 345.565,73.670 345.081,74.000 344.924 C 74.330 344.767,75.230 344.207,76.000 343.679 C 76.770 343.152,77.760 342.558,78.200 342.360 C 78.640 342.161,80.350 341.109,82.000 340.022 C 83.650 338.934,85.720 337.655,86.600 337.179 C 87.480 336.704,88.974 335.794,89.920 335.157 C 90.866 334.521,91.796 334.000,91.987 334.000 C 92.177 334.000,92.393 333.854,92.467 333.675 C 92.540 333.496,95.120 331.842,98.200 330.000 C 101.280 328.158,103.860 326.504,103.933 326.325 C 104.007 326.146,104.277 326.000,104.533 325.999 C 104.790 325.999,106.185 325.220,107.633 324.268 C 109.081 323.316,110.521 322.414,110.833 322.264 C 111.145 322.114,111.940 321.635,112.600 321.200 C 113.260 320.765,114.070 320.284,114.400 320.131 C 114.730 319.979,115.450 319.545,116.000 319.167 C 119.323 316.886,121.887 315.362,122.219 315.473 C 122.458 315.553,122.561 329.844,122.494 353.835 C 122.409 384.523,122.488 392.037,122.894 391.902 C 123.413 391.729,123.906 317.384,123.402 315.300 C 123.162 314.305,123.041 314.275,121.612 314.845 M280.106 315.115 C 279.938 315.492,279.892 332.720,280.005 353.400 L 280.210 391.000 280.305 353.100 C 280.357 332.255,280.553 315.200,280.740 315.200 C 280.927 315.200,281.836 315.747,282.759 316.416 C 283.683 317.086,285.105 317.998,285.919 318.444 C 286.734 318.890,287.882 319.557,288.470 319.927 C 293.290 322.956,297.516 325.555,298.921 326.354 C 299.845 326.879,301.374 327.824,302.320 328.454 C 303.266 329.084,304.211 329.600,304.420 329.600 C 304.629 329.600,304.800 329.780,304.800 330.000 C 304.800 330.220,305.057 330.400,305.371 330.400 C 305.686 330.400,306.181 330.634,306.471 330.921 C 306.762 331.207,309.520 332.950,312.600 334.795 C 315.680 336.639,319.640 339.074,321.400 340.206 C 323.160 341.338,324.870 342.387,325.200 342.537 C 325.530 342.686,326.274 343.122,326.854 343.504 C 327.433 343.887,329.953 345.443,332.454 346.961 C 334.954 348.480,337.284 349.965,337.631 350.261 C 337.979 350.558,338.508 350.800,338.807 350.800 C 339.763 350.800,338.019 349.496,333.200 346.607 C 330.670 345.090,328.540 343.703,328.467 343.525 C 328.393 343.346,328.149 343.200,327.925 343.200 C 327.700 343.200,326.770 342.696,325.858 342.081 C 324.946 341.466,323.930 340.834,323.600 340.677 C 323.270 340.520,322.460 340.035,321.800 339.600 C 321.140 339.165,320.345 338.686,320.033 338.536 C 319.721 338.386,318.281 337.484,316.833 336.532 C 315.385 335.580,314.057 334.801,313.883 334.801 C 313.709 334.800,313.349 334.609,313.083 334.375 C 312.247 333.639,304.321 328.800,303.952 328.800 C 303.758 328.800,303.600 328.640,303.600 328.443 C 303.600 328.247,303.150 327.974,302.600 327.836 C 302.050 327.698,301.600 327.408,301.600 327.192 C 301.600 326.977,301.429 326.800,301.220 326.800 C 301.011 326.800,300.066 326.288,299.120 325.661 C 298.174 325.035,296.775 324.180,296.011 323.761 C 295.247 323.343,293.481 322.235,292.086 321.300 C 290.691 320.365,289.467 319.600,289.367 319.600 C 289.266 319.600,288.423 319.109,287.492 318.508 C 285.079 316.951,284.282 316.469,283.600 316.155 C 283.270 316.003,282.730 315.663,282.400 315.400 C 281.279 314.506,280.426 314.400,280.106 315.115 " stroke="none" fill="#7c7ca4" fill-rule="evenodd"></path><path id="path4" d="" stroke="none" fill="#1004040" fill-rule="evenodd"></path></g></svg>