<svg width="40" height="40" viewBox="0 0 40 40" fill="none" xmlns="http://www.w3.org/2000/svg">
<path d="M14 11V23" stroke="#5C5C5C" stroke-width="2" stroke-linecap="round" stroke-linejoin="round"/>
<path d="M26 17C27.6569 17 29 15.6569 29 14C29 12.3431 27.6569 11 26 11C24.3431 11 23 12.3431 23 14C23 15.6569 24.3431 17 26 17Z" stroke="#5C5C5C" stroke-width="2" stroke-linecap="round" stroke-linejoin="round"/>
<path d="M14 29C15.6569 29 17 27.6569 17 26C17 24.3431 15.6569 23 14 23C12.3431 23 11 24.3431 11 26C11 27.6569 12.3431 29 14 29Z" stroke="#5C5C5C" stroke-width="2" stroke-linecap="round" stroke-linejoin="round"/>
<path d="M26 17C26 19.3869 25.0518 21.6761 23.364 23.364C21.6761 25.0518 19.3869 26 17 26" stroke="#5C5C5C" stroke-width="2" stroke-linecap="round" stroke-linejoin="round"/>
</svg>
