<svg width="40" height="40" viewBox="0 0 40 40" fill="none" xmlns="http://www.w3.org/2000/svg">
<path d="M26 16C27.6569 16 29 14.6569 29 13C29 11.3431 27.6569 10 26 10C24.3431 10 23 11.3431 23 13C23 14.6569 24.3431 16 26 16Z" stroke="#5C5C5C" stroke-width="2" stroke-linecap="round" stroke-linejoin="round"/>
<path d="M14 23C15.6569 23 17 21.6569 17 20C17 18.3431 15.6569 17 14 17C12.3431 17 11 18.3431 11 20C11 21.6569 12.3431 23 14 23Z" stroke="#5C5C5C" stroke-width="2" stroke-linecap="round" stroke-linejoin="round"/>
<path d="M26 30C27.6569 30 29 28.6569 29 27C29 25.3431 27.6569 24 26 24C24.3431 24 23 25.3431 23 27C23 28.6569 24.3431 30 26 30Z" stroke="#5C5C5C" stroke-width="2" stroke-linecap="round" stroke-linejoin="round"/>
<path d="M16.59 21.51L23.42 25.49" stroke="#5C5C5C" stroke-width="2" stroke-linecap="round" stroke-linejoin="round"/>
<path d="M23.41 14.51L16.59 18.49" stroke="#5C5C5C" stroke-width="2" stroke-linecap="round" stroke-linejoin="round"/>
</svg>
