<svg width="40" height="40" viewBox="0 0 40 40" fill="none" xmlns="http://www.w3.org/2000/svg">
<path d="M20 27C23.866 27 27 23.866 27 20C27 16.134 23.866 13 20 13C16.134 13 13 16.134 13 20C13 23.866 16.134 27 20 27Z" stroke="#5C5C5C" stroke-width="2" stroke-linecap="round" stroke-linejoin="round"/>
<path d="M20 17V20L21.5 21.5" stroke="#5C5C5C" stroke-width="2" stroke-linecap="round" stroke-linejoin="round"/>
<path d="M24.51 25.35L24.16 29.18C24.115 29.6787 23.8845 30.1423 23.5142 30.4792C23.1439 30.8162 22.6607 31.002 22.16 31H17.83C17.3293 31.002 16.8461 30.8162 16.4758 30.4792C16.1055 30.1423 15.8751 29.6787 15.83 29.18L15.48 25.35M15.49 14.65L15.84 10.82C15.8849 10.3231 16.1139 9.8609 16.4821 9.52417C16.8503 9.18744 17.3311 9.00049 17.83 9.00002H22.18C22.6807 8.99798 23.1639 9.18381 23.5342 9.52079C23.9045 9.85776 24.135 10.3214 24.18 10.82L24.53 14.65" stroke="#5C5C5C" stroke-width="2" stroke-linecap="round" stroke-linejoin="round"/>
</svg>
