<svg width="40" height="40" viewBox="0 0 40 40" fill="none" xmlns="http://www.w3.org/2000/svg">
<path d="M13.19 20.81C11.5058 18.213 10.4544 15.2572 10.12 12.18C10.095 11.9035 10.1279 11.6248 10.2165 11.3616C10.3051 11.0985 10.4476 10.8567 10.6348 10.6516C10.822 10.4466 11.0498 10.2827 11.3038 10.1705C11.5578 10.0583 11.8323 10.0003 12.11 10H15.11C15.5953 9.99522 16.0658 10.1671 16.4338 10.4835C16.8017 10.8 17.0421 11.2394 17.11 11.72C17.2366 12.6801 17.4714 13.6227 17.81 14.53C17.9445 14.8879 17.9737 15.2769 17.8939 15.6509C17.8141 16.0248 17.6289 16.3681 17.36 16.64L16.09 17.91M18.68 21.31C19.6948 22.3257 20.8418 23.2003 22.09 23.91L23.36 22.64C23.6319 22.3711 23.9751 22.1858 24.3491 22.1061C24.7231 22.0263 25.1121 22.0555 25.47 22.19C26.3773 22.5285 27.3199 22.7634 28.28 22.89C28.7605 22.9579 29.2 23.1983 29.5165 23.5662C29.8329 23.9342 30.0048 24.4047 30 24.89V27.89C30.0011 28.1685 29.9441 28.4442 29.8325 28.6993C29.7209 28.9545 29.5573 29.1836 29.3521 29.3719C29.1468 29.5601 28.9046 29.7035 28.6407 29.7927C28.3769 29.8819 28.0974 29.9151 27.82 29.89C24.7428 29.5556 21.787 28.5041 19.19 26.82C17.9853 26.0551 16.8685 25.1596 15.86 24.15L18.68 21.31Z" stroke="#5C5C5C" stroke-width="2" stroke-linecap="round" stroke-linejoin="round"/>
<path d="M31 9L9 31" stroke="#5C5C5C" stroke-width="2" stroke-linecap="round" stroke-linejoin="round"/>
</svg>
