<svg width="40" height="40" viewBox="0 0 40 40" fill="none" xmlns="http://www.w3.org/2000/svg">
<path d="M26 10H14C12.8954 10 12 10.8954 12 12V28C12 29.1046 12.8954 30 14 30H26C27.1046 30 28 29.1046 28 28V12C28 10.8954 27.1046 10 26 10Z" stroke="#5C5C5C" stroke-width="2" stroke-linecap="round" stroke-linejoin="round"/>
<path d="M20 26C22.2091 26 24 24.2091 24 22C24 19.7909 22.2091 18 20 18C17.7909 18 16 19.7909 16 22C16 24.2091 17.7909 26 20 26Z" stroke="#5C5C5C" stroke-width="2" stroke-linecap="round" stroke-linejoin="round"/>
<circle cx="20" cy="14" r="0.5" stroke="#5C5C5C"/>
</svg>
