<svg width="40" height="40" viewBox="0 0 40 40" fill="none" xmlns="http://www.w3.org/2000/svg">
<path d="M18.66 13H22C22.5304 13 23.0391 13.2107 23.4142 13.5858C23.7893 13.9609 24 14.4696 24 15V18.34L25 19.34L31 15V25M24 24V25C24 25.5304 23.7893 26.0391 23.4142 26.4142C23.0391 26.7893 22.5304 27 22 27H11C10.4696 27 9.96086 26.7893 9.58579 26.4142C9.21071 26.0391 9 25.5304 9 25V15C9 14.4696 9.21071 13.9609 9.58579 13.5858C9.96086 13.2107 10.4696 13 11 13H13L24 24Z" stroke="#5C5C5C" stroke-width="2" stroke-linecap="round" stroke-linejoin="round"/>
<path d="M9 9L31 31" stroke="#5C5C5C" stroke-width="2" stroke-linecap="round" stroke-linejoin="round"/>
</svg>
