<svg width="40" height="40" viewBox="0 0 40 40" fill="none" xmlns="http://www.w3.org/2000/svg">
<path d="M29.4383 19.6622L20.2483 28.8522C19.1225 29.9781 17.5955 30.6106 16.0033 30.6106C14.4112 30.6106 12.8842 29.9781 11.7583 28.8522C10.6325 27.7264 10 26.1994 10 24.6072C10 23.015 10.6325 21.4881 11.7583 20.3622L20.9483 11.1722C21.6989 10.4217 22.7169 10 23.7783 10C24.8398 10 25.8578 10.4217 26.6083 11.1722C27.3589 11.9228 27.7806 12.9408 27.7806 14.0022C27.7806 15.0637 27.3589 16.0817 26.6083 16.8322L17.4083 26.0222C17.0331 26.3975 16.5241 26.6083 15.9933 26.6083C15.4626 26.6083 14.9536 26.3975 14.5783 26.0222C14.2031 25.6469 13.9922 25.138 13.9922 24.6072C13.9922 24.0765 14.2031 23.5675 14.5783 23.1922L23.0683 14.7122" stroke="#5C5C5C" stroke-width="2" stroke-linecap="round" stroke-linejoin="round"/>
</svg>
