<svg width="40" height="40" viewBox="0 0 40 40" fill="none" xmlns="http://www.w3.org/2000/svg">
<path d="M26 11C25.2044 11 24.4413 11.3161 23.8787 11.8787C23.3161 12.4413 23 13.2044 23 14V26C23 26.7956 23.3161 27.5587 23.8787 28.1213C24.4413 28.6839 25.2044 29 26 29C26.7956 29 27.5587 28.6839 28.1213 28.1213C28.6839 27.5587 29 26.7956 29 26C29 25.2044 28.6839 24.4413 28.1213 23.8787C27.5587 23.3161 26.7956 23 26 23H14C13.2044 23 12.4413 23.3161 11.8787 23.8787C11.3161 24.4413 11 25.2044 11 26C11 26.7956 11.3161 27.5587 11.8787 28.1213C12.4413 28.6839 13.2044 29 14 29C14.7956 29 15.5587 28.6839 16.1213 28.1213C16.6839 27.5587 17 26.7956 17 26V14C17 13.2044 16.6839 12.4413 16.1213 11.8787C15.5587 11.3161 14.7956 11 14 11C13.2044 11 12.4413 11.3161 11.8787 11.8787C11.3161 12.4413 11 13.2044 11 14C11 14.7956 11.3161 15.5587 11.8787 16.1213C12.4413 16.6839 13.2044 17 14 17H26C26.7956 17 27.5587 16.6839 28.1213 16.1213C28.6839 15.5587 29 14.7956 29 14C29 13.2044 28.6839 12.4413 28.1213 11.8787C27.5587 11.3161 26.7956 11 26 11Z" stroke="#5C5C5C" stroke-width="2" stroke-linecap="round" stroke-linejoin="round"/>
</svg>
