<svg width="40" height="40" viewBox="0 0 40 40" fill="none" xmlns="http://www.w3.org/2000/svg">
<path d="M16.56 10.9C17.6253 10.2989 18.8295 9.98741 20.0527 9.99662C21.2759 10.0058 22.4753 10.3354 23.5314 10.9525C24.5876 11.5696 25.4636 12.4527 26.0721 13.5137C26.6807 14.5748 27.0006 15.7768 27 17V21M21.73 29C21.5542 29.3031 21.3018 29.5546 20.9982 29.7295C20.6946 29.9044 20.3504 29.9965 20 29.9965C19.6496 29.9965 19.3054 29.9044 19.0018 29.7295C18.6982 29.5546 18.4458 29.3031 18.27 29M25 25H10C10.7956 25 11.5587 24.6839 12.1213 24.1213C12.6839 23.5587 13 22.7956 13 22V17C12.9986 15.8797 13.2661 14.7755 13.78 13.78L25 25Z" stroke="#5C5C5C" stroke-width="2" stroke-linecap="round" stroke-linejoin="round"/>
<path d="M9 9L31 31" stroke="#5C5C5C" stroke-width="2" stroke-linecap="round" stroke-linejoin="round"/>
</svg>
