<svg width="40" height="40" viewBox="0 0 40 40" fill="none" xmlns="http://www.w3.org/2000/svg">
<path d="M16.009 25.0117L20.009 29.0117L24.009 25.0117" stroke="#5C5C5C" stroke-width="2" stroke-linecap="round" stroke-linejoin="round"/>
<path d="M20.009 20.0117V29.0117" stroke="#5C5C5C" stroke-width="2" stroke-linecap="round" stroke-linejoin="round"/>
<path d="M28.889 26.1017C29.7584 25.4903 30.4103 24.6178 30.7503 23.6108C31.0902 22.6038 31.1004 21.5147 30.7794 20.5015C30.4584 19.4883 29.8228 18.6037 28.965 17.9762C28.1072 17.3487 27.0718 17.0108 26.009 17.0117H24.749C24.4482 15.8395 23.8855 14.7509 23.1031 13.8277C22.3207 12.9046 21.3391 12.1709 20.2322 11.682C19.1252 11.1931 17.9218 10.9617 16.7125 11.0052C15.5032 11.0487 14.3195 11.3659 13.2505 11.9331C12.1816 12.5002 11.2552 13.3025 10.5412 14.2795C9.82712 15.2565 9.34402 16.3827 9.12823 17.5734C8.91244 18.7641 8.96958 19.9882 9.29535 21.1537C9.62112 22.3191 10.207 23.3954 11.009 24.3017" stroke="#5C5C5C" stroke-width="2" stroke-linecap="round" stroke-linejoin="round"/>
</svg>
