<svg width="40" height="40" viewBox="0 0 40 40" fill="none" xmlns="http://www.w3.org/2000/svg">
<path d="M31 11.9976V17.9976H25" stroke="#5C5C5C" stroke-width="2" stroke-linecap="round" stroke-linejoin="round"/>
<path d="M9 27.9976V21.9976H15" stroke="#5C5C5C" stroke-width="2" stroke-linecap="round" stroke-linejoin="round"/>
<path d="M11.51 16.9976C12.0172 15.5644 12.8791 14.283 14.0155 13.2731C15.1518 12.2631 16.5255 11.5574 18.0083 11.2219C19.4911 10.8864 21.0348 10.932 22.4952 11.3544C23.9556 11.7768 25.2853 12.5623 26.36 13.6376L31 17.9976M9 21.9976L13.64 26.3576C14.7147 27.4329 16.0444 28.2184 17.5048 28.6409C18.9652 29.0633 20.5089 29.1089 21.9917 28.7734C23.4745 28.4379 24.8482 27.7322 25.9845 26.7222C27.1209 25.7122 27.9828 24.4308 28.49 22.9976" stroke="#5C5C5C" stroke-width="2" stroke-linecap="round" stroke-linejoin="round"/>
</svg>
