<svg width="40" height="40" viewBox="0 0 40 40" fill="none" xmlns="http://www.w3.org/2000/svg">
<path d="M19.9979 22.07C21.1024 22.07 21.9979 21.1746 21.9979 20.07C21.9979 18.9654 21.1024 18.07 19.9979 18.07C18.8933 18.07 17.9979 18.9654 17.9979 20.07C17.9979 21.1746 18.8933 22.07 19.9979 22.07Z" stroke="#5C5C5C" stroke-width="2" stroke-linecap="round" stroke-linejoin="round"/>
<path d="M24.2379 15.83C24.7957 16.3872 25.2383 17.049 25.5402 17.7774C25.8422 18.5057 25.9976 19.2865 25.9976 20.075C25.9976 20.8635 25.8422 21.6443 25.5402 22.3726C25.2383 23.101 24.7957 23.7628 24.2379 24.32M15.7579 24.31C15.2 23.7528 14.7575 23.091 14.4555 22.3626C14.1536 21.6343 13.9981 20.8535 13.9981 20.065C13.9981 19.2765 14.1536 18.4957 14.4555 17.7674C14.7575 17.039 15.2 16.3772 15.7579 15.82M27.0679 13C28.9426 14.8753 29.9957 17.4184 29.9957 20.07C29.9957 22.7216 28.9426 25.2647 27.0679 27.14M12.9279 27.14C11.0532 25.2647 10 22.7216 10 20.07C10 17.4184 11.0532 14.8753 12.9279 13" stroke="#5C5C5C" stroke-width="2" stroke-linecap="round" stroke-linejoin="round"/>
</svg>
