<svg width="40" height="40" viewBox="0 0 40 40" fill="none" xmlns="http://www.w3.org/2000/svg">
<path d="M17 25H13C12.4696 25 11.9609 25.2107 11.5858 25.5858C11.2107 25.9609 11 26.4696 11 27C11 27.5304 11.2107 28.0391 11.5858 28.4142C11.9609 28.7893 12.4696 29 13 29H15C15.5304 29 16.0391 28.7893 16.4142 28.4142C16.7893 28.0391 17 27.5304 17 27V25ZM29 23H25C24.4696 23 23.9609 23.2107 23.5858 23.5858C23.2107 23.9609 23 24.4696 23 25C23 25.5304 23.2107 26.0391 23.5858 26.4142C23.9609 26.7893 24.4696 27 25 27H27C27.5304 27 28.0391 26.7893 28.4142 26.4142C28.7893 26.0391 29 25.5304 29 25V23Z" stroke="#5C5C5C" stroke-width="2" stroke-linecap="round" stroke-linejoin="round"/>
<path d="M17 25V13L29 11V23" stroke="#5C5C5C" stroke-width="2" stroke-linecap="round" stroke-linejoin="round"/>
</svg>
