<svg width="40" height="40" viewBox="0 0 40 40" fill="none" xmlns="http://www.w3.org/2000/svg">
<path d="M10 23.1C10.9609 23.296 11.8429 23.7702 12.5364 24.4636C13.2298 25.1571 13.704 26.0391 13.9 27M10 19.05C12.0308 19.2759 13.9243 20.186 15.3691 21.6309C16.814 23.0757 17.7241 24.9692 17.95 27M10 15V13C10 12.4696 10.2107 11.9609 10.5858 11.5858C10.9609 11.2107 11.4696 11 12 11H28C28.5304 11 29.0391 11.2107 29.4142 11.5858C29.7893 11.9609 30 12.4696 30 13V25C30 25.5304 29.7893 26.0391 29.4142 26.4142C29.0391 26.7893 28.5304 27 28 27H22" stroke="#5C5C5C" stroke-width="2" stroke-linecap="round" stroke-linejoin="round"/>
<circle cx="10" cy="27" r="0.5" stroke="#5C5C5C"/>
</svg>
