<svg width="40" height="40" viewBox="0 0 40 40" fill="none" xmlns="http://www.w3.org/2000/svg">
<path d="M17.9435 20.9336C18.373 21.5077 18.9209 21.9827 19.5501 22.3265C20.1793 22.6703 20.875 22.8747 21.5902 22.9259C22.3053 22.9771 23.0231 22.8739 23.6949 22.6233C24.3666 22.3728 24.9767 21.9806 25.4835 21.4736L28.4835 18.4736C29.3943 17.5305 29.8983 16.2675 29.8869 14.9566C29.8755 13.6456 29.3497 12.3915 28.4226 11.4645C27.4956 10.5374 26.2415 10.0116 24.9305 10.0002C23.6196 9.9888 22.3566 10.4928 21.4135 11.4036L19.6935 13.1136" stroke="#5C5C5C" stroke-width="2" stroke-linecap="round" stroke-linejoin="round"/>
<path d="M21.9436 18.9336C21.5141 18.3594 20.9662 17.8844 20.337 17.5406C19.7078 17.1969 19.0121 16.9924 18.2969 16.9412C17.5818 16.89 16.864 16.9932 16.1922 17.2438C15.5205 17.4944 14.9104 17.8865 14.4036 18.3936L11.4036 21.3936C10.4928 22.3366 9.9888 23.5996 10.0002 24.9106C10.0116 26.2216 10.5374 27.4756 11.4645 28.4027C12.3915 29.3297 13.6456 29.8555 14.9566 29.8669C16.2675 29.8783 17.5305 29.3744 18.4736 28.4636L20.1836 26.7536" stroke="#5C5C5C" stroke-width="2" stroke-linecap="round" stroke-linejoin="round"/>
</svg>
