<svg width="230" height="66" viewBox="0 0 230 66" fill="none" xmlns="http://www.w3.org/2000/svg">
<path d="M63.6591 52H90.3864V45.9148H72.9148L90.3523 21.4716V17.0909H63.625V23.1761H81.0795L63.6591 47.6193V52ZM106.845 52.5114C113.322 52.5114 117.686 49.358 118.709 44.5L111.993 44.0568C111.26 46.0511 109.385 47.0909 106.964 47.0909C103.334 47.0909 101.033 44.6875 101.033 40.7841V40.767H118.862V38.7727C118.862 29.875 113.476 25.4773 106.555 25.4773C98.8509 25.4773 93.8565 30.9489 93.8565 39.0284C93.8565 47.3295 98.7827 52.5114 106.845 52.5114ZM101.033 36.267C101.186 33.2841 103.453 30.8977 106.675 30.8977C109.828 30.8977 112.01 33.1477 112.027 36.267H101.033ZM122.601 52H129.862V37.1875C129.862 33.9659 132.214 31.75 135.419 31.75C136.425 31.75 137.805 31.9205 138.487 32.142V25.6989C137.839 25.5455 136.936 25.4432 136.203 25.4432C133.271 25.4432 130.868 27.1477 129.913 30.3864H129.641V25.8182H122.601V52ZM151.852 52.5114C159.795 52.5114 164.739 47.0739 164.739 39.0114C164.739 30.8977 159.795 25.4773 151.852 25.4773C143.909 25.4773 138.966 30.8977 138.966 39.0114C138.966 47.0739 143.909 52.5114 151.852 52.5114ZM151.886 46.8864C148.222 46.8864 146.347 43.5284 146.347 38.9602C146.347 34.392 148.222 31.017 151.886 31.017C155.483 31.017 157.358 34.392 157.358 38.9602C157.358 43.5284 155.483 46.8864 151.886 46.8864ZM175.722 36.8636C175.739 33.4886 177.75 31.5114 180.682 31.5114C183.597 31.5114 185.352 33.4205 185.335 36.625V52H192.597V35.3295C192.597 29.2273 189.017 25.4773 183.562 25.4773C179.676 25.4773 176.864 27.3864 175.688 30.4375H175.381V25.8182H168.46V52H175.722V36.8636ZM209.251 52.5114C215.729 52.5114 220.092 49.358 221.115 44.5L214.399 44.0568C213.666 46.0511 211.791 47.0909 209.371 47.0909C205.74 47.0909 203.439 44.6875 203.439 40.7841V40.767H221.268V38.7727C221.268 29.875 215.882 25.4773 208.962 25.4773C201.257 25.4773 196.263 30.9489 196.263 39.0284C196.263 47.3295 201.189 52.5114 209.251 52.5114ZM203.439 36.267C203.592 33.2841 205.859 30.8977 209.081 30.8977C212.234 30.8977 214.416 33.1477 214.433 36.267H203.439Z" fill="#2D3436"/>
<path d="M47.25 19.6H22.75C20.817 19.6 19.25 21.0327 19.25 22.8V45.2C19.25 46.9673 20.817 48.4 22.75 48.4H47.25C49.183 48.4 50.75 46.9673 50.75 45.2V22.8C50.75 21.0327 49.183 19.6 47.25 19.6Z" stroke="#6C5CE7" stroke-width="3.5" stroke-linecap="round" stroke-linejoin="round"/>
<path d="M20 29L50.75 29.2" stroke="#6C5CE7" stroke-width="3.5" stroke-linecap="round" stroke-linejoin="round"/>
<path d="M29.75 48.4V29.2" stroke="#6C5CE7" stroke-width="3.5" stroke-linecap="round" stroke-linejoin="round"/>
</svg>
