<svg width="1651" height="1651" viewBox="0 0 1651 1651" fill="none" xmlns="http://www.w3.org/2000/svg">
<path d="M1536.92 605.73C1571.81 647.828 1565.97 710.238 1523.87 745.127L616.853 1496.84C574.755 1531.73 512.345 1525.88 477.455 1483.79L113.793 1044.99C78.9037 1002.89 84.7472 940.479 126.845 905.59L1033.87 153.88C1075.96 118.99 1138.37 124.834 1173.26 166.932L1536.92 605.73Z" fill="#FFEAA7" fill-opacity="0.4"/>
<path d="M947.077 784.905C944.191 787.21 943.721 791.417 946.026 794.303C948.331 797.188 952.538 797.658 955.423 795.354C958.309 793.049 958.779 788.841 956.474 785.956C954.169 783.071 949.962 782.6 947.077 784.905Z" fill="#FDCB6E"/>
<path d="M918.662 750.559C915.777 752.864 915.306 757.071 917.611 759.956C919.916 762.842 924.124 763.312 927.009 761.007C929.894 758.702 930.364 754.495 928.06 751.61C925.755 748.724 921.547 748.254 918.662 750.559Z" fill="#FDCB6E"/>
<path d="M890.247 716.213C887.362 718.517 886.892 722.725 889.197 725.61C891.502 728.495 895.709 728.966 898.594 726.661C901.479 724.356 901.95 720.149 899.645 717.263C897.34 714.378 893.133 713.908 890.247 716.213Z" fill="#FDCB6E"/>
<path d="M861.832 681.866C858.947 684.171 858.477 688.379 860.782 691.264C863.087 694.149 867.294 694.619 870.179 692.315C873.064 690.01 873.535 685.802 871.23 682.917C868.925 680.032 864.718 679.561 861.832 681.866Z" fill="#FDCB6E"/>
<path d="M833.418 647.52C830.533 649.825 830.063 654.032 832.368 656.917C834.672 659.803 838.88 660.273 841.765 657.968C844.65 655.663 845.121 651.456 842.816 648.571C840.511 645.686 836.304 645.215 833.418 647.52Z" fill="#FDCB6E"/>
<path d="M805.003 613.174C802.118 615.478 801.648 619.686 803.953 622.571C806.257 625.456 810.465 625.927 813.35 623.622C816.235 621.317 816.706 617.11 814.401 614.224C812.096 611.339 807.889 610.869 805.003 613.174Z" fill="#FDCB6E"/>
<path d="M776.589 578.827C773.704 581.132 773.234 585.339 775.538 588.225C777.843 591.11 782.051 591.58 784.936 589.275C787.821 586.971 788.292 582.763 785.987 579.878C783.682 576.993 779.474 576.522 776.589 578.827Z" fill="#FDCB6E"/>
<path d="M748.175 544.481C745.289 546.786 744.819 550.993 747.124 553.878C749.429 556.764 753.636 557.234 756.521 554.929C759.407 552.624 759.877 548.417 757.572 545.532C755.267 542.646 751.06 542.176 748.175 544.481Z" fill="#FDCB6E"/>
<path d="M944.11 816.286C941.225 818.591 940.755 822.798 943.059 825.684C945.364 828.569 949.572 829.039 952.457 826.734C955.342 824.43 955.813 820.222 953.508 817.337C951.203 814.452 946.995 813.981 944.11 816.286Z" fill="#FDCB6E"/>
<path d="M912.73 813.32C909.845 815.625 909.374 819.832 911.679 822.717C913.984 825.603 918.191 826.073 921.077 823.768C923.962 821.463 924.432 817.256 922.127 814.371C919.823 811.485 915.615 811.015 912.73 813.32Z" fill="#FDCB6E"/>
<path d="M909.765 844.7C906.879 847.005 906.409 851.213 908.714 854.098C911.019 856.983 915.226 857.454 918.111 855.149C920.997 852.844 921.467 848.637 919.162 845.751C916.857 842.866 912.65 842.396 909.765 844.7Z" fill="#FDCB6E"/>
<path d="M878.384 841.735C875.498 844.04 875.028 848.247 877.333 851.132C879.638 854.017 883.845 854.488 886.73 852.183C889.616 849.878 890.086 845.671 887.781 842.785C885.476 839.9 881.269 839.43 878.384 841.735Z" fill="#FDCB6E"/>
<path d="M875.418 873.115C872.533 875.42 872.062 879.627 874.367 882.512C876.672 885.398 880.879 885.868 883.765 883.563C886.65 881.258 887.12 877.051 884.815 874.166C882.511 871.28 878.303 870.81 875.418 873.115Z" fill="#FDCB6E"/>
<path d="M844.038 870.149C841.152 872.454 840.682 876.661 842.987 879.546C845.292 882.432 849.499 882.902 852.384 880.597C855.269 878.292 855.74 874.085 853.435 871.2C851.13 868.314 846.923 867.844 844.038 870.149Z" fill="#FDCB6E"/>
<path d="M841.072 901.53C838.186 903.834 837.716 908.042 840.021 910.927C842.326 913.812 846.533 914.283 849.418 911.978C852.304 909.673 852.774 905.466 850.469 902.58C848.164 899.695 843.957 899.225 841.072 901.53Z" fill="#FDCB6E"/>
<path d="M809.691 898.564C806.806 900.869 806.335 905.076 808.64 907.961C810.945 910.847 815.152 911.317 818.038 909.012C820.923 906.707 821.393 902.5 819.088 899.615C816.783 896.729 812.576 896.259 809.691 898.564Z" fill="#FDCB6E"/>
<path d="M806.725 929.944C803.84 932.249 803.369 936.456 805.674 939.342C807.979 942.227 812.186 942.697 815.072 940.392C817.957 938.088 818.427 933.88 816.123 930.995C813.818 928.11 809.61 927.639 806.725 929.944Z" fill="#FDCB6E"/>
<path d="M775.345 926.978C772.46 929.283 771.989 933.49 774.294 936.376C776.599 939.261 780.807 939.731 783.692 937.426C786.577 935.122 787.048 930.914 784.743 928.029C782.438 925.144 778.23 924.673 775.345 926.978Z" fill="#FDCB6E"/>
<path d="M772.378 958.359C769.493 960.664 769.023 964.871 771.328 967.756C773.632 970.641 777.84 971.112 780.725 968.807C783.61 966.502 784.081 962.295 781.776 959.409C779.471 956.524 775.264 956.054 772.378 958.359Z" fill="#FDCB6E"/>
<path d="M740.998 955.392C738.113 957.697 737.642 961.905 739.947 964.79C742.252 967.675 746.459 968.146 749.345 965.841C752.23 963.536 752.7 959.329 750.395 956.443C748.091 953.558 743.883 953.088 740.998 955.392Z" fill="#FDCB6E"/>
<path d="M738.033 986.773C735.147 989.078 734.677 993.286 736.982 996.171C739.287 999.056 743.494 999.526 746.379 997.222C749.265 994.917 749.735 990.709 747.43 987.824C745.125 984.939 740.918 984.468 738.033 986.773Z" fill="#FDCB6E"/>
<path d="M706.651 983.808C703.766 986.112 703.296 990.32 705.6 993.205C707.905 996.09 712.113 996.561 714.998 994.256C717.883 991.951 718.354 987.744 716.049 984.858C713.744 981.973 709.537 981.503 706.651 983.808Z" fill="#FDCB6E"/>
<path d="M703.686 1015.19C700.801 1017.49 700.33 1021.7 702.635 1024.59C704.94 1027.47 709.147 1027.94 712.033 1025.64C714.918 1023.33 715.388 1019.12 713.083 1016.24C710.779 1013.35 706.571 1012.88 703.686 1015.19Z" fill="#FDCB6E"/>
<path d="M672.306 1012.22C669.42 1014.53 668.95 1018.73 671.255 1021.62C673.56 1024.5 677.767 1024.98 680.652 1022.67C683.538 1020.37 684.008 1016.16 681.703 1013.27C679.398 1010.39 675.191 1009.92 672.306 1012.22Z" fill="#FDCB6E"/>
<path d="M915.696 781.94C912.81 784.245 912.34 788.452 914.645 791.337C916.95 794.222 921.157 794.693 924.042 792.388C926.928 790.083 927.398 785.876 925.093 782.99C922.788 780.105 918.581 779.635 915.696 781.94Z" fill="#FDCB6E"/>
<path d="M884.315 778.974C881.43 781.279 880.96 785.486 883.265 788.371C885.569 791.256 889.777 791.727 892.662 789.422C895.547 787.117 896.018 782.91 893.713 780.024C891.408 777.139 887.201 776.669 884.315 778.974Z" fill="#FDCB6E"/>
<path d="M881.35 810.354C878.464 812.659 877.994 816.866 880.299 819.752C882.604 822.637 886.811 823.107 889.696 820.802C892.581 818.498 893.052 814.29 890.747 811.405C888.442 808.52 884.235 808.049 881.35 810.354Z" fill="#FDCB6E"/>
<path d="M849.969 807.388C847.084 809.693 846.613 813.901 848.918 816.786C851.223 819.671 855.431 820.141 858.316 817.837C861.201 815.532 861.672 811.324 859.367 808.439C857.062 805.554 852.854 805.083 849.969 807.388Z" fill="#FDCB6E"/>
<path d="M847.003 838.769C844.118 841.074 843.647 845.281 845.952 848.166C848.257 851.052 852.464 851.522 855.35 849.217C858.235 846.912 858.705 842.705 856.4 839.82C854.095 836.934 849.888 836.464 847.003 838.769Z" fill="#FDCB6E"/>
<path d="M815.623 835.803C812.738 838.108 812.267 842.315 814.572 845.2C816.877 848.085 821.084 848.556 823.97 846.251C826.855 843.946 827.325 839.739 825.02 836.853C822.716 833.968 818.508 833.498 815.623 835.803Z" fill="#FDCB6E"/>
<path d="M812.657 867.183C809.771 869.488 809.301 873.696 811.606 876.581C813.911 879.466 818.118 879.937 821.003 877.632C823.889 875.327 824.359 871.119 822.054 868.234C819.749 865.349 815.542 864.879 812.657 867.183Z" fill="#FDCB6E"/>
<path d="M781.276 864.217C778.391 866.522 777.921 870.73 780.225 873.615C782.53 876.5 786.738 876.971 789.623 874.666C792.508 872.361 792.979 868.153 790.674 865.268C788.369 862.383 784.162 861.913 781.276 864.217Z" fill="#FDCB6E"/>
<path d="M778.311 895.598C775.426 897.903 774.955 902.11 777.26 904.995C779.565 907.881 783.772 908.351 786.658 906.046C789.543 903.741 790.013 899.534 787.708 896.649C785.404 893.763 781.196 893.293 778.311 895.598Z" fill="#FDCB6E"/>
<path d="M746.93 892.632C744.045 894.937 743.574 899.144 745.879 902.029C748.184 904.915 752.392 905.385 755.277 903.08C758.162 900.775 758.633 896.568 756.328 893.683C754.023 890.797 749.815 890.327 746.93 892.632Z" fill="#FDCB6E"/>
<path d="M743.964 924.012C741.079 926.317 740.609 930.525 742.913 933.41C745.218 936.295 749.426 936.766 752.311 934.461C755.196 932.156 755.667 927.949 753.362 925.063C751.057 922.178 746.849 921.708 743.964 924.012Z" fill="#FDCB6E"/>
<path d="M712.583 921.046C709.698 923.351 709.228 927.559 711.533 930.444C713.837 933.329 718.045 933.8 720.93 931.495C723.815 929.19 724.286 924.982 721.981 922.097C719.676 919.212 715.469 918.741 712.583 921.046Z" fill="#FDCB6E"/>
<path d="M709.618 952.427C706.733 954.732 706.262 958.939 708.567 961.824C710.872 964.71 715.08 965.18 717.965 962.875C720.85 960.57 721.32 956.363 719.016 953.478C716.711 950.593 712.503 950.122 709.618 952.427Z" fill="#FDCB6E"/>
<path d="M678.237 949.461C675.352 951.766 674.882 955.974 677.186 958.859C679.491 961.744 683.699 962.214 686.584 959.91C689.469 957.605 689.94 953.397 687.635 950.512C685.33 947.627 681.122 947.156 678.237 949.461Z" fill="#FDCB6E"/>
<path d="M675.271 980.842C672.386 983.146 671.916 987.354 674.221 990.239C676.525 993.124 680.733 993.595 683.618 991.29C686.503 988.985 686.974 984.778 684.669 981.892C682.364 979.007 678.157 978.537 675.271 980.842Z" fill="#FDCB6E"/>
<path d="M643.891 977.876C641.006 980.181 640.535 984.388 642.84 987.273C645.145 990.158 649.353 990.629 652.238 988.324C655.123 986.019 655.593 981.812 653.289 978.926C650.984 976.041 646.776 975.571 643.891 977.876Z" fill="#FDCB6E"/>
<path d="M887.281 747.593C884.396 749.898 883.925 754.106 886.23 756.991C888.535 759.876 892.743 760.347 895.628 758.042C898.513 755.737 898.984 751.529 896.679 748.644C894.374 745.759 890.166 745.288 887.281 747.593Z" fill="#FDCB6E"/>
<path d="M855.901 744.627C853.016 746.932 852.546 751.14 854.85 754.025C857.155 756.91 861.363 757.381 864.248 755.076C867.133 752.771 867.604 748.564 865.299 745.678C862.994 742.793 858.787 742.323 855.901 744.627Z" fill="#FDCB6E"/>
<path d="M852.935 776.008C850.05 778.312 849.579 782.52 851.884 785.405C854.189 788.29 858.396 788.761 861.282 786.456C864.167 784.151 864.637 779.944 862.333 777.058C860.028 774.173 855.82 773.703 852.935 776.008Z" fill="#FDCB6E"/>
<path d="M821.555 773.042C818.669 775.347 818.199 779.554 820.504 782.44C822.809 785.325 827.016 785.795 829.901 783.49C832.787 781.185 833.257 776.978 830.952 774.093C828.647 771.208 824.44 770.737 821.555 773.042Z" fill="#FDCB6E"/>
<path d="M818.589 804.423C815.704 806.727 815.233 810.935 817.538 813.82C819.843 816.705 824.05 817.176 826.935 814.871C829.821 812.566 830.291 808.359 827.986 805.473C825.681 802.588 821.474 802.118 818.589 804.423Z" fill="#FDCB6E"/>
<path d="M787.208 801.456C784.323 803.761 783.853 807.969 786.158 810.854C788.462 813.739 792.67 814.21 795.555 811.905C798.44 809.6 798.911 805.393 796.606 802.507C794.301 799.622 790.094 799.152 787.208 801.456Z" fill="#FDCB6E"/>
<path d="M784.242 832.837C781.357 835.142 780.886 839.349 783.191 842.235C785.496 845.12 789.704 845.59 792.589 843.286C795.474 840.981 795.945 836.773 793.64 833.888C791.335 831.003 787.127 830.532 784.242 832.837Z" fill="#FDCB6E"/>
<path d="M752.862 829.871C749.977 832.176 749.506 836.383 751.811 839.269C754.116 842.154 758.323 842.624 761.208 840.319C764.094 838.014 764.564 833.807 762.259 830.922C759.954 828.037 755.747 827.566 752.862 829.871Z" fill="#FDCB6E"/>
<path d="M749.896 861.252C747.011 863.556 746.54 867.764 748.845 870.649C751.15 873.534 755.357 874.005 758.243 871.7C761.128 869.395 761.598 865.188 759.293 862.302C756.989 859.417 752.781 858.947 749.896 861.252Z" fill="#FDCB6E"/>
<path d="M718.516 858.285C715.63 860.59 715.16 864.798 717.465 867.683C719.77 870.568 723.977 871.039 726.862 868.734C729.747 866.429 730.218 862.221 727.913 859.336C725.608 856.451 721.401 855.981 718.516 858.285Z" fill="#FDCB6E"/>
<path d="M715.55 889.666C712.664 891.971 712.194 896.178 714.499 899.064C716.804 901.949 721.011 902.419 723.896 900.114C726.782 897.81 727.252 893.602 724.947 890.717C722.642 887.832 718.435 887.361 715.55 889.666Z" fill="#FDCB6E"/>
<path d="M684.169 886.7C681.284 889.005 680.813 893.212 683.118 896.098C685.423 898.983 689.63 899.453 692.516 897.148C695.401 894.844 695.871 890.636 693.566 887.751C691.262 884.866 687.054 884.395 684.169 886.7Z" fill="#FDCB6E"/>
<path d="M681.204 918.08C678.318 920.385 677.848 924.593 680.153 927.478C682.458 930.363 686.665 930.834 689.55 928.529C692.435 926.224 692.906 922.017 690.601 919.131C688.296 916.246 684.089 915.776 681.204 918.08Z" fill="#FDCB6E"/>
<path d="M649.823 915.115C646.937 917.42 646.467 921.627 648.772 924.512C651.077 927.398 655.284 927.868 658.169 925.563C661.055 923.258 661.525 919.051 659.22 916.166C656.915 913.28 652.708 912.81 649.823 915.115Z" fill="#FDCB6E"/>
<path d="M646.857 946.496C643.972 948.8 643.501 953.008 645.806 955.893C648.111 958.778 652.318 959.249 655.204 956.944C658.089 954.639 658.559 950.432 656.254 947.546C653.949 944.661 649.742 944.191 646.857 946.496Z" fill="#FDCB6E"/>
<path d="M615.476 943.529C612.591 945.834 612.121 950.042 614.426 952.927C616.731 955.812 620.938 956.283 623.823 953.978C626.708 951.673 627.179 947.465 624.874 944.58C622.569 941.695 618.362 941.224 615.476 943.529Z" fill="#FDCB6E"/>
<path d="M858.867 713.247C855.981 715.552 855.511 719.759 857.816 722.644C860.121 725.53 864.328 726 867.213 723.695C870.099 721.39 870.569 717.183 868.264 714.298C865.959 711.412 861.752 710.942 858.867 713.247Z" fill="#FDCB6E"/>
<path d="M827.486 710.281C824.601 712.586 824.131 716.793 826.435 719.678C828.74 722.564 832.948 723.034 835.833 720.729C838.718 718.424 839.189 714.217 836.884 711.332C834.579 708.447 830.371 707.976 827.486 710.281Z" fill="#FDCB6E"/>
<path d="M824.52 741.661C821.635 743.966 821.165 748.174 823.47 751.059C825.774 753.944 829.982 754.415 832.867 752.11C835.752 749.805 836.223 745.597 833.918 742.712C831.613 739.827 827.406 739.356 824.52 741.661Z" fill="#FDCB6E"/>
<path d="M793.14 738.696C790.254 741.001 789.784 745.208 792.089 748.093C794.394 750.979 798.601 751.449 801.486 749.144C804.372 746.839 804.842 742.632 802.537 739.747C800.232 736.861 796.025 736.391 793.14 738.696Z" fill="#FDCB6E"/>
<path d="M790.174 770.076C787.289 772.381 786.819 776.588 789.123 779.473C791.428 782.359 795.636 782.829 798.521 780.524C801.406 778.219 801.877 774.012 799.572 771.127C797.267 768.241 793.059 767.771 790.174 770.076Z" fill="#FDCB6E"/>
<path d="M758.794 767.11C755.909 769.415 755.438 773.622 757.743 776.508C760.048 779.393 764.255 779.863 767.141 777.558C770.026 775.254 770.496 771.046 768.191 768.161C765.887 765.276 761.679 764.805 758.794 767.11Z" fill="#FDCB6E"/>
<path d="M755.828 798.491C752.942 800.796 752.472 805.003 754.777 807.888C757.082 810.774 761.289 811.244 764.174 808.939C767.059 806.634 767.53 802.427 765.225 799.542C762.92 796.656 758.713 796.186 755.828 798.491Z" fill="#FDCB6E"/>
<path d="M724.447 795.525C721.562 797.83 721.091 802.037 723.396 804.922C725.701 807.808 729.909 808.278 732.794 805.973C735.679 803.668 736.15 799.461 733.845 796.576C731.54 793.69 727.332 793.22 724.447 795.525Z" fill="#FDCB6E"/>
<path d="M721.481 826.905C718.596 829.21 718.126 833.417 720.431 836.303C722.735 839.188 726.943 839.658 729.828 837.353C732.713 835.049 733.184 830.841 730.879 827.956C728.574 825.071 724.367 824.6 721.481 826.905Z" fill="#FDCB6E"/>
<path d="M690.101 823.939C687.216 826.244 686.745 830.451 689.05 833.337C691.355 836.222 695.562 836.692 698.448 834.387C701.333 832.083 701.803 827.875 699.499 824.99C697.194 822.105 692.986 821.634 690.101 823.939Z" fill="#FDCB6E"/>
<path d="M687.135 855.32C684.249 857.625 683.779 861.832 686.084 864.717C688.389 867.603 692.596 868.073 695.481 865.768C698.367 863.463 698.837 859.256 696.532 856.371C694.227 853.485 690.02 853.015 687.135 855.32Z" fill="#FDCB6E"/>
<path d="M655.755 852.354C652.87 854.659 652.399 858.866 654.704 861.752C657.009 864.637 661.216 865.107 664.102 862.802C666.987 860.498 667.457 856.29 665.152 853.405C662.847 850.52 658.64 850.049 655.755 852.354Z" fill="#FDCB6E"/>
<path d="M652.788 883.734C649.903 886.039 649.433 890.246 651.738 893.132C654.043 896.017 658.25 896.487 661.135 894.182C664.02 891.878 664.491 887.67 662.186 884.785C659.881 881.9 655.674 881.429 652.788 883.734Z" fill="#FDCB6E"/>
<path d="M621.408 880.768C618.523 883.073 618.052 887.281 620.357 890.166C622.662 893.051 626.87 893.522 629.755 891.217C632.64 888.912 633.111 884.705 630.806 881.819C628.501 878.934 624.293 878.464 621.408 880.768Z" fill="#FDCB6E"/>
<path d="M618.442 912.149C615.557 914.453 615.087 918.661 617.391 921.546C619.696 924.431 623.904 924.902 626.789 922.597C629.674 920.292 630.145 916.085 627.84 913.199C625.535 910.314 621.328 909.844 618.442 912.149Z" fill="#FDCB6E"/>
<path d="M587.062 909.183C584.177 911.488 583.706 915.695 586.011 918.58C588.316 921.466 592.523 921.936 595.409 919.631C598.294 917.326 598.764 913.119 596.459 910.234C594.155 907.348 589.947 906.878 587.062 909.183Z" fill="#FDCB6E"/>
<path d="M830.452 678.901C827.567 681.205 827.096 685.413 829.401 688.298C831.706 691.183 835.914 691.654 838.799 689.349C841.684 687.044 842.154 682.837 839.85 679.951C837.545 677.066 833.337 676.596 830.452 678.901Z" fill="#FDCB6E"/>
<path d="M799.072 675.935C796.186 678.239 795.716 682.447 798.021 685.332C800.326 688.217 804.533 688.688 807.418 686.383C810.304 684.078 810.774 679.871 808.469 676.985C806.164 674.1 801.957 673.63 799.072 675.935Z" fill="#FDCB6E"/>
<path d="M796.106 707.315C793.221 709.62 792.75 713.827 795.055 716.712C797.36 719.598 801.567 720.068 804.453 717.763C807.338 715.458 807.808 711.251 805.503 708.366C803.199 705.48 798.991 705.01 796.106 707.315Z" fill="#FDCB6E"/>
<path d="M764.725 704.349C761.84 706.654 761.369 710.862 763.674 713.747C765.979 716.632 770.186 717.103 773.072 714.798C775.957 712.493 776.427 708.285 774.123 705.4C771.818 702.515 767.61 702.044 764.725 704.349Z" fill="#FDCB6E"/>
<path d="M761.759 735.73C758.874 738.035 758.403 742.242 760.708 745.127C763.013 748.012 767.221 748.483 770.106 746.178C772.991 743.873 773.462 739.666 771.157 736.78C768.852 733.895 764.644 733.425 761.759 735.73Z" fill="#FDCB6E"/>
<path d="M730.379 732.764C727.494 735.069 727.024 739.276 729.328 742.161C731.633 745.046 735.841 745.517 738.726 743.212C741.611 740.907 742.082 736.7 739.777 733.815C737.472 730.929 733.265 730.459 730.379 732.764Z" fill="#FDCB6E"/>
<path d="M727.413 764.144C724.528 766.449 724.057 770.657 726.362 773.542C728.667 776.427 732.874 776.898 735.76 774.593C738.645 772.288 739.115 768.08 736.811 765.195C734.506 762.31 730.298 761.839 727.413 764.144Z" fill="#FDCB6E"/>
<path d="M696.033 761.179C693.147 763.483 692.677 767.691 694.982 770.576C697.287 773.461 701.494 773.932 704.379 771.627C707.265 769.322 707.735 765.115 705.43 762.229C703.125 759.344 698.918 758.874 696.033 761.179Z" fill="#FDCB6E"/>
<path d="M693.067 792.559C690.182 794.864 689.711 799.071 692.016 801.956C694.321 804.842 698.528 805.312 701.414 803.007C704.299 800.702 704.769 796.495 702.464 793.61C700.159 790.724 695.952 790.254 693.067 792.559Z" fill="#FDCB6E"/>
<path d="M661.686 789.593C658.801 791.898 658.331 796.105 660.636 798.99C662.941 801.876 667.148 802.346 670.033 800.041C672.918 797.736 673.389 793.529 671.084 790.644C668.779 787.759 664.572 787.288 661.686 789.593Z" fill="#FDCB6E"/>
<path d="M658.72 820.973C655.835 823.278 655.364 827.486 657.669 830.371C659.974 833.256 664.182 833.727 667.067 831.422C669.952 829.117 670.423 824.909 668.118 822.024C665.813 819.139 661.605 818.669 658.72 820.973Z" fill="#FDCB6E"/>
<path d="M627.34 818.007C624.455 820.312 623.985 824.52 626.289 827.405C628.594 830.29 632.802 830.761 635.687 828.456C638.572 826.151 639.043 821.944 636.738 819.058C634.433 816.173 630.225 815.703 627.34 818.007Z" fill="#FDCB6E"/>
<path d="M624.374 849.388C621.489 851.693 621.018 855.9 623.323 858.785C625.628 861.671 629.835 862.141 632.721 859.836C635.606 857.531 636.076 853.324 633.771 850.439C631.467 847.553 627.259 847.083 624.374 849.388Z" fill="#FDCB6E"/>
<path d="M592.994 846.422C590.108 848.727 589.638 852.934 591.943 855.82C594.248 858.705 598.455 859.175 601.34 856.871C604.226 854.566 604.696 850.358 602.391 847.473C600.086 844.588 595.879 844.117 592.994 846.422Z" fill="#FDCB6E"/>
<path d="M590.028 877.802C587.143 880.107 586.672 884.315 588.977 887.2C591.282 890.085 595.489 890.556 598.374 888.251C601.26 885.946 601.73 881.738 599.425 878.853C597.12 875.968 592.913 875.497 590.028 877.802Z" fill="#FDCB6E"/>
<path d="M558.647 874.837C555.762 877.141 555.292 881.349 557.597 884.234C559.901 887.119 564.109 887.59 566.994 885.285C569.879 882.98 570.35 878.773 568.045 875.887C565.74 873.002 561.533 872.532 558.647 874.837Z" fill="#FDCB6E"/>
<path d="M802.038 644.554C799.152 646.859 798.682 651.066 800.987 653.952C803.292 656.837 807.499 657.307 810.384 655.002C813.269 652.698 813.74 648.49 811.435 645.605C809.13 642.72 804.923 642.249 802.038 644.554Z" fill="#FDCB6E"/>
<path d="M770.657 641.588C767.772 643.893 767.301 648.101 769.606 650.986C771.911 653.871 776.119 654.342 779.004 652.037C781.889 649.732 782.36 645.524 780.055 642.639C777.75 639.754 773.542 639.283 770.657 641.588Z" fill="#FDCB6E"/>
<path d="M767.691 672.969C764.806 675.273 764.336 679.481 766.641 682.366C768.945 685.251 773.153 685.722 776.038 683.417C778.923 681.112 779.394 676.905 777.089 674.019C774.784 671.134 770.577 670.664 767.691 672.969Z" fill="#FDCB6E"/>
<path d="M736.31 670.003C733.425 672.308 732.955 676.515 735.26 679.4C737.565 682.286 741.772 682.756 744.657 680.451C747.542 678.146 748.013 673.939 745.708 671.054C743.403 668.168 739.196 667.698 736.31 670.003Z" fill="#FDCB6E"/>
<path d="M733.345 701.383C730.46 703.688 729.989 707.896 732.294 710.781C734.599 713.666 738.807 714.137 741.692 711.832C744.577 709.527 745.048 705.319 742.743 702.434C740.438 699.549 736.23 699.078 733.345 701.383Z" fill="#FDCB6E"/>
<path d="M701.965 698.417C699.08 700.722 698.609 704.93 700.914 707.815C703.219 710.7 707.426 711.171 710.311 708.866C713.197 706.561 713.667 702.353 711.362 699.468C709.057 696.583 704.85 696.112 701.965 698.417Z" fill="#FDCB6E"/>
<path d="M698.998 729.798C696.113 732.103 695.642 736.31 697.947 739.195C700.252 742.081 704.459 742.551 707.345 740.246C710.23 737.941 710.7 733.734 708.395 730.849C706.091 727.963 701.883 727.493 698.998 729.798Z" fill="#FDCB6E"/>
<path d="M667.618 726.832C664.733 729.137 664.262 733.344 666.567 736.23C668.872 739.115 673.08 739.585 675.965 737.28C678.85 734.976 679.32 730.768 677.016 727.883C674.711 724.998 670.503 724.527 667.618 726.832Z" fill="#FDCB6E"/>
<path d="M664.652 758.212C661.767 760.517 661.297 764.725 663.601 767.61C665.906 770.495 670.114 770.966 672.999 768.661C675.884 766.356 676.355 762.148 674.05 759.263C671.745 756.378 667.537 755.908 664.652 758.212Z" fill="#FDCB6E"/>
<path d="M633.272 755.246C630.387 757.551 629.916 761.759 632.221 764.644C634.526 767.529 638.733 768 641.619 765.695C644.504 763.39 644.974 759.182 642.669 756.297C640.365 753.412 636.157 752.941 633.272 755.246Z" fill="#FDCB6E"/>
<path d="M630.306 786.627C627.42 788.932 626.95 793.14 629.255 796.025C631.56 798.91 635.767 799.38 638.652 797.076C641.538 794.771 642.008 790.563 639.703 787.678C637.398 784.793 633.191 784.322 630.306 786.627Z" fill="#FDCB6E"/>
<path d="M598.925 783.661C596.04 785.966 595.57 790.173 597.874 793.059C600.179 795.944 604.387 796.414 607.272 794.109C610.157 791.805 610.628 787.597 608.323 784.712C606.018 781.827 601.81 781.356 598.925 783.661Z" fill="#FDCB6E"/>
<path d="M595.96 815.042C593.075 817.347 592.604 821.554 594.909 824.439C597.214 827.324 601.421 827.795 604.307 825.49C607.192 823.185 607.662 818.978 605.357 816.092C603.053 813.207 598.845 812.737 595.96 815.042Z" fill="#FDCB6E"/>
<path d="M564.579 812.076C561.693 814.381 561.223 818.588 563.528 821.473C565.833 824.358 570.04 824.829 572.925 822.524C575.81 820.219 576.281 816.012 573.976 813.127C571.671 810.241 567.464 809.771 564.579 812.076Z" fill="#FDCB6E"/>
<path d="M561.613 843.456C558.728 845.761 558.258 849.968 560.562 852.854C562.867 855.739 567.075 856.209 569.96 853.904C572.845 851.6 573.316 847.392 571.011 844.507C568.706 841.622 564.498 841.151 561.613 843.456Z" fill="#FDCB6E"/>
<path d="M530.233 840.49C527.348 842.795 526.877 847.002 529.182 849.888C531.487 852.773 535.694 853.243 538.58 850.938C541.465 848.634 541.935 844.426 539.63 841.541C537.325 838.656 533.118 838.185 530.233 840.49Z" fill="#FDCB6E"/>
<path d="M773.623 610.208C770.738 612.513 770.267 616.72 772.572 619.605C774.877 622.491 779.084 622.961 781.97 620.656C784.855 618.351 785.325 614.144 783.02 611.259C780.716 608.373 776.508 607.903 773.623 610.208Z" fill="#FDCB6E"/>
<path d="M742.243 607.242C739.357 609.547 738.887 613.754 741.192 616.639C743.497 619.525 747.704 619.995 750.589 617.69C753.475 615.385 753.945 611.178 751.64 608.293C749.335 605.407 745.128 604.937 742.243 607.242Z" fill="#FDCB6E"/>
<path d="M739.277 638.622C736.392 640.927 735.921 645.135 738.226 648.02C740.531 650.905 744.738 651.376 747.623 649.071C750.509 646.766 750.979 642.558 748.674 639.673C746.369 636.788 742.162 636.317 739.277 638.622Z" fill="#FDCB6E"/>
<path d="M707.896 635.657C705.011 637.962 704.54 642.169 706.845 645.054C709.15 647.939 713.357 648.41 716.243 646.105C719.128 643.8 719.598 639.593 717.293 636.707C714.989 633.822 710.781 633.352 707.896 635.657Z" fill="#FDCB6E"/>
<path d="M704.93 667.037C702.045 669.342 701.574 673.549 703.879 676.435C706.184 679.32 710.392 679.79 713.277 677.485C716.162 675.18 716.633 670.973 714.328 668.088C712.023 665.203 707.815 664.732 704.93 667.037Z" fill="#FDCB6E"/>
<path d="M673.55 664.071C670.664 666.376 670.194 670.583 672.499 673.468C674.804 676.354 679.011 676.824 681.896 674.519C684.782 672.214 685.252 668.007 682.947 665.122C680.642 662.237 676.435 661.766 673.55 664.071Z" fill="#FDCB6E"/>
<path d="M670.584 695.452C667.699 697.757 667.228 701.964 669.533 704.849C671.838 707.734 676.045 708.205 678.931 705.9C681.816 703.595 682.286 699.388 679.981 696.503C677.677 693.617 673.469 693.147 670.584 695.452Z" fill="#FDCB6E"/>
<path d="M639.203 692.486C636.318 694.791 635.847 698.998 638.152 701.883C640.457 704.768 644.665 705.239 647.55 702.934C650.435 700.629 650.905 696.422 648.601 693.536C646.296 690.651 642.088 690.181 639.203 692.486Z" fill="#FDCB6E"/>
<path d="M636.238 723.866C633.352 726.171 632.882 730.378 635.187 733.264C637.492 736.149 641.699 736.619 644.584 734.314C647.47 732.01 647.94 727.802 645.635 724.917C643.33 722.032 639.123 721.561 636.238 723.866Z" fill="#FDCB6E"/>
<path d="M604.857 720.9C601.972 723.205 601.502 727.412 603.807 730.297C606.111 733.183 610.319 733.653 613.204 731.348C616.089 729.043 616.56 724.836 614.255 721.951C611.95 719.066 607.743 718.595 604.857 720.9Z" fill="#FDCB6E"/>
<path d="M601.891 752.281C599.006 754.586 598.535 758.793 600.84 761.678C603.145 764.564 607.353 765.034 610.238 762.729C613.123 760.424 613.593 756.217 611.289 753.332C608.984 750.446 604.776 749.976 601.891 752.281Z" fill="#FDCB6E"/>
<path d="M570.511 749.315C567.625 751.62 567.155 755.827 569.46 758.712C571.765 761.597 575.972 762.068 578.857 759.763C581.743 757.458 582.213 753.251 579.908 750.366C577.603 747.48 573.396 747.01 570.511 749.315Z" fill="#FDCB6E"/>
<path d="M567.545 780.695C564.66 783 564.189 787.207 566.494 790.093C568.799 792.978 573.006 793.448 575.892 791.143C578.777 788.839 579.247 784.631 576.942 781.746C574.637 778.861 570.43 778.39 567.545 780.695Z" fill="#FDCB6E"/>
<path d="M536.164 777.729C533.279 780.034 532.809 784.242 535.114 787.127C537.419 790.012 541.626 790.483 544.511 788.178C547.396 785.873 547.867 781.665 545.562 778.78C543.257 775.895 539.05 775.425 536.164 777.729Z" fill="#FDCB6E"/>
<path d="M533.198 809.11C530.313 811.415 529.842 815.622 532.147 818.508C534.452 821.393 538.66 821.863 541.545 819.558C544.43 817.253 544.901 813.046 542.596 810.161C540.291 807.276 536.083 806.805 533.198 809.11Z" fill="#FDCB6E"/>
<path d="M501.818 806.144C498.933 808.449 498.463 812.656 500.767 815.541C503.072 818.427 507.28 818.897 510.165 816.592C513.05 814.287 513.521 810.08 511.216 807.195C508.911 804.309 504.704 803.839 501.818 806.144Z" fill="#FDCB6E"/>
<path d="M745.208 575.861C742.323 578.166 741.853 582.374 744.158 585.259C746.462 588.144 750.67 588.615 753.555 586.31C756.44 584.005 756.911 579.798 754.606 576.912C752.301 574.027 748.094 573.557 745.208 575.861Z" fill="#FDCB6E"/>
<path d="M713.828 572.895C710.943 575.2 710.472 579.408 712.777 582.293C715.082 585.178 719.29 585.649 722.175 583.344C725.06 581.039 725.53 576.831 723.226 573.946C720.921 571.061 716.713 570.591 713.828 572.895Z" fill="#FDCB6E"/>
<path d="M710.862 604.276C707.977 606.581 707.507 610.788 709.811 613.674C712.116 616.559 716.324 617.029 719.209 614.724C722.094 612.42 722.565 608.212 720.26 605.327C717.955 602.442 713.747 601.971 710.862 604.276Z" fill="#FDCB6E"/>
<path d="M679.481 601.31C676.596 603.615 676.126 607.823 678.431 610.708C680.735 613.593 684.943 614.064 687.828 611.759C690.713 609.454 691.184 605.246 688.879 602.361C686.574 599.476 682.367 599.005 679.481 601.31Z" fill="#FDCB6E"/>
<path d="M676.516 632.691C673.63 634.995 673.16 639.203 675.465 642.088C677.77 644.973 681.977 645.444 684.862 643.139C687.747 640.834 688.218 636.627 685.913 633.741C683.608 630.856 679.401 630.386 676.516 632.691Z" fill="#FDCB6E"/>
<path d="M645.135 629.725C642.25 632.029 641.779 636.237 644.084 639.122C646.389 642.007 650.597 642.478 653.482 640.173C656.367 637.868 656.838 633.661 654.533 630.775C652.228 627.89 648.02 627.42 645.135 629.725Z" fill="#FDCB6E"/>
<path d="M642.169 661.105C639.284 663.41 638.814 667.618 641.119 670.503C643.423 673.388 647.631 673.859 650.516 671.554C653.401 669.249 653.872 665.041 651.567 662.156C649.262 659.271 645.055 658.801 642.169 661.105Z" fill="#FDCB6E"/>
<path d="M610.789 658.139C607.904 660.444 607.433 664.652 609.738 667.537C612.043 670.422 616.25 670.893 619.136 668.588C622.021 666.283 622.491 662.075 620.187 659.19C617.882 656.305 613.674 655.834 610.789 658.139Z" fill="#FDCB6E"/>
<path d="M607.823 689.52C604.938 691.825 604.467 696.032 606.772 698.917C609.077 701.803 613.285 702.273 616.17 699.968C619.055 697.663 619.526 693.456 617.221 690.571C614.916 687.686 610.708 687.215 607.823 689.52Z" fill="#FDCB6E"/>
<path d="M576.443 686.554C573.558 688.859 573.087 693.066 575.392 695.951C577.697 698.836 581.904 699.307 584.79 697.002C587.675 694.697 588.145 690.49 585.84 687.604C583.535 684.719 579.328 684.249 576.443 686.554Z" fill="#FDCB6E"/>
<path d="M573.476 717.934C570.591 720.239 570.121 724.447 572.426 727.332C574.731 730.217 578.938 730.688 581.823 728.383C584.708 726.078 585.179 721.871 582.874 718.985C580.569 716.1 576.362 715.63 573.476 717.934Z" fill="#FDCB6E"/>
<path d="M542.096 714.968C539.211 717.273 538.74 721.481 541.045 724.366C543.35 727.251 547.558 727.722 550.443 725.417C553.328 723.112 553.799 718.904 551.494 716.019C549.189 713.134 544.981 712.663 542.096 714.968Z" fill="#FDCB6E"/>
<path d="M539.13 746.349C536.245 748.654 535.775 752.861 538.079 755.746C540.384 758.632 544.592 759.102 547.477 756.797C550.362 754.492 550.833 750.285 548.528 747.4C546.223 744.515 542.016 744.044 539.13 746.349Z" fill="#FDCB6E"/>
<path d="M507.75 743.383C504.865 745.688 504.394 749.896 506.699 752.781C509.004 755.666 513.211 756.136 516.097 753.832C518.982 751.527 519.452 747.319 517.147 744.434C514.843 741.549 510.635 741.078 507.75 743.383Z" fill="#FDCB6E"/>
<path d="M504.784 774.764C501.899 777.068 501.428 781.276 503.733 784.161C506.038 787.046 510.246 787.517 513.131 785.212C516.016 782.907 516.487 778.7 514.182 775.814C511.877 772.929 507.669 772.459 504.784 774.764Z" fill="#FDCB6E"/>
<path d="M473.403 771.798C470.518 774.102 470.048 778.31 472.353 781.195C474.658 784.08 478.865 784.551 481.75 782.246C484.635 779.941 485.106 775.734 482.801 772.848C480.496 769.963 476.289 769.493 473.403 771.798Z" fill="#FDCB6E"/>
<path d="M669.34 1043.6C666.455 1045.91 665.984 1050.11 668.289 1053C670.594 1055.89 674.801 1056.36 677.686 1054.05C680.572 1051.75 681.042 1047.54 678.737 1044.65C676.432 1041.77 672.225 1041.3 669.34 1043.6Z" fill="#FDCB6E"/>
<path d="M637.959 1040.64C635.074 1042.94 634.603 1047.15 636.908 1050.03C639.213 1052.92 643.42 1053.39 646.306 1051.08C649.191 1048.78 649.661 1044.57 647.356 1041.69C645.052 1038.8 640.844 1038.33 637.959 1040.64Z" fill="#FDCB6E"/>
<path d="M634.994 1072.02C632.108 1074.32 631.638 1078.53 633.943 1081.41C636.248 1084.3 640.455 1084.77 643.34 1082.47C646.226 1080.16 646.696 1075.95 644.391 1073.07C642.086 1070.18 637.879 1069.71 634.994 1072.02Z" fill="#FDCB6E"/>
<path d="M603.613 1069.05C600.728 1071.36 600.258 1075.56 602.562 1078.45C604.867 1081.33 609.075 1081.8 611.96 1079.5C614.845 1077.19 615.316 1072.99 613.011 1070.1C610.706 1067.22 606.498 1066.75 603.613 1069.05Z" fill="#FDCB6E"/>
<path d="M640.925 1009.26C638.04 1011.56 637.57 1015.77 639.874 1018.65C642.179 1021.54 646.387 1022.01 649.272 1019.7C652.157 1017.4 652.628 1013.19 650.323 1010.31C648.018 1007.42 643.81 1006.95 640.925 1009.26Z" fill="#FDCB6E"/>
<path d="M609.544 1006.29C606.659 1008.6 606.189 1012.8 608.494 1015.69C610.798 1018.57 615.006 1019.04 617.891 1016.74C620.776 1014.43 621.247 1010.23 618.942 1007.34C616.637 1004.46 612.43 1003.99 609.544 1006.29Z" fill="#FDCB6E"/>
<path d="M606.579 1037.67C603.693 1039.98 603.223 1044.18 605.528 1047.07C607.833 1049.95 612.04 1050.42 614.925 1048.12C617.81 1045.81 618.281 1041.61 615.976 1038.72C613.671 1035.84 609.464 1035.37 606.579 1037.67Z" fill="#FDCB6E"/>
<path d="M575.198 1034.7C572.313 1037.01 571.842 1041.22 574.147 1044.1C576.452 1046.99 580.66 1047.46 583.545 1045.15C586.43 1042.85 586.901 1038.64 584.596 1035.76C582.291 1032.87 578.083 1032.4 575.198 1034.7Z" fill="#FDCB6E"/>
<path d="M612.511 974.91C609.625 977.214 609.155 981.422 611.46 984.307C613.765 987.192 617.972 987.663 620.857 985.358C623.743 983.053 624.213 978.846 621.908 975.96C619.603 973.075 615.396 972.605 612.511 974.91Z" fill="#FDCB6E"/>
<path d="M581.13 971.944C578.245 974.249 577.775 978.456 580.079 981.341C582.384 984.227 586.592 984.697 589.477 982.392C592.362 980.087 592.833 975.88 590.528 972.995C588.223 970.109 584.016 969.639 581.13 971.944Z" fill="#FDCB6E"/>
<path d="M578.164 1003.32C575.279 1005.63 574.809 1009.84 577.114 1012.72C579.419 1015.61 583.626 1016.08 586.511 1013.77C589.396 1011.47 589.867 1007.26 587.562 1004.38C585.257 1001.49 581.05 1001.02 578.164 1003.32Z" fill="#FDCB6E"/>
<path d="M546.784 1000.36C543.899 1002.66 543.428 1006.87 545.733 1009.76C548.038 1012.64 552.246 1013.11 555.131 1010.81C558.016 1008.5 558.487 1004.29 556.182 1001.41C553.877 998.524 549.669 998.054 546.784 1000.36Z" fill="#FDCB6E"/>
<path d="M584.096 940.563C581.211 942.868 580.74 947.075 583.045 949.961C585.35 952.846 589.558 953.316 592.443 951.011C595.328 948.707 595.799 944.499 593.494 941.614C591.189 938.729 586.981 938.258 584.096 940.563Z" fill="#FDCB6E"/>
<path d="M552.715 937.597C549.83 939.902 549.36 944.11 551.664 946.995C553.969 949.88 558.177 950.351 561.062 948.046C563.947 945.741 564.418 941.533 562.113 938.648C559.808 935.763 555.6 935.293 552.715 937.597Z" fill="#FDCB6E"/>
<path d="M549.749 968.978C546.864 971.283 546.394 975.49 548.699 978.375C551.003 981.261 555.211 981.731 558.096 979.426C560.981 977.121 561.452 972.914 559.147 970.029C556.842 967.144 552.635 966.673 549.749 968.978Z" fill="#FDCB6E"/>
<path d="M518.369 966.012C515.484 968.317 515.013 972.524 517.318 975.41C519.623 978.295 523.831 978.765 526.716 976.46C529.601 974.155 530.071 969.948 527.767 967.063C525.462 964.178 521.254 963.707 518.369 966.012Z" fill="#FDCB6E"/>
<path d="M555.682 906.217C552.796 908.522 552.326 912.729 554.631 915.614C556.936 918.499 561.143 918.97 564.028 916.665C566.914 914.36 567.384 910.153 565.079 907.268C562.774 904.382 558.567 903.912 555.682 906.217Z" fill="#FDCB6E"/>
<path d="M524.301 903.251C521.416 905.556 520.945 909.764 523.25 912.649C525.555 915.534 529.763 916.005 532.648 913.7C535.533 911.395 536.004 907.187 533.699 904.302C531.394 901.417 527.186 900.947 524.301 903.251Z" fill="#FDCB6E"/>
<path d="M521.335 934.632C518.45 936.936 517.979 941.144 520.284 944.029C522.589 946.914 526.796 947.385 529.682 945.08C532.567 942.775 533.037 938.568 530.732 935.682C528.428 932.797 524.22 932.327 521.335 934.632Z" fill="#FDCB6E"/>
<path d="M489.955 931.666C487.069 933.971 486.599 938.178 488.904 941.063C491.209 943.948 495.416 944.419 498.301 942.114C501.186 939.809 501.657 935.602 499.352 932.717C497.047 929.831 492.84 929.361 489.955 931.666Z" fill="#FDCB6E"/>
<path d="M527.267 871.87C524.382 874.175 523.911 878.383 526.216 881.268C528.521 884.153 532.728 884.624 535.614 882.319C538.499 880.014 538.969 875.806 536.665 872.921C534.36 870.036 530.152 869.566 527.267 871.87Z" fill="#FDCB6E"/>
<path d="M495.886 868.905C493.001 871.21 492.53 875.417 494.835 878.302C497.14 881.188 501.348 881.658 504.233 879.353C507.118 877.048 507.589 872.841 505.284 869.956C502.979 867.07 498.771 866.6 495.886 868.905Z" fill="#FDCB6E"/>
<path d="M492.92 900.285C490.035 902.59 489.565 906.797 491.87 909.683C494.174 912.568 498.382 913.038 501.267 910.734C504.152 908.429 504.623 904.221 502.318 901.336C500.013 898.451 495.806 897.98 492.92 900.285Z" fill="#FDCB6E"/>
<path d="M461.54 897.319C458.655 899.624 458.185 903.832 460.489 906.717C462.794 909.602 467.002 910.072 469.887 907.768C472.772 905.463 473.243 901.255 470.938 898.37C468.633 895.485 464.425 895.014 461.54 897.319Z" fill="#FDCB6E"/>
<path d="M498.852 837.524C495.967 839.829 495.496 844.037 497.801 846.922C500.106 849.807 504.313 850.277 507.199 847.973C510.084 845.668 510.554 841.46 508.249 838.575C505.945 835.69 501.737 835.219 498.852 837.524Z" fill="#FDCB6E"/>
<path d="M467.472 834.558C464.586 836.863 464.116 841.071 466.421 843.956C468.726 846.841 472.933 847.311 475.818 845.007C478.704 842.702 479.174 838.494 476.869 835.609C474.564 832.724 470.357 832.253 467.472 834.558Z" fill="#FDCB6E"/>
<path d="M464.506 865.939C461.621 868.244 461.15 872.451 463.455 875.336C465.76 878.222 469.967 878.692 472.852 876.387C475.738 874.082 476.208 869.875 473.903 866.99C471.598 864.104 467.391 863.634 464.506 865.939Z" fill="#FDCB6E"/>
<path d="M433.125 862.973C430.24 865.278 429.77 869.485 432.075 872.37C434.379 875.256 438.587 875.726 441.472 873.421C444.357 871.116 444.828 866.909 442.523 864.024C440.218 861.138 436.011 860.668 433.125 862.973Z" fill="#FDCB6E"/>
<path d="M470.438 803.178C467.552 805.483 467.082 809.69 469.387 812.576C471.692 815.461 475.899 815.931 478.784 813.626C481.67 811.321 482.14 807.114 479.835 804.229C477.53 801.344 473.323 800.873 470.438 803.178Z" fill="#FDCB6E"/>
<path d="M439.057 800.212C436.172 802.517 435.701 806.724 438.006 809.61C440.311 812.495 444.519 812.965 447.404 810.661C450.289 808.356 450.759 804.148 448.455 801.263C446.15 798.378 441.942 797.907 439.057 800.212Z" fill="#FDCB6E"/>
<path d="M436.091 831.593C433.206 833.897 432.736 838.105 435.04 840.99C437.345 843.875 441.553 844.346 444.438 842.041C447.323 839.736 447.794 835.529 445.489 832.643C443.184 829.758 438.976 829.288 436.091 831.593Z" fill="#FDCB6E"/>
<path d="M404.711 828.626C401.826 830.931 401.355 835.139 403.66 838.024C405.965 840.909 410.172 841.38 413.058 839.075C415.943 836.77 416.413 832.562 414.108 829.677C411.803 826.792 407.596 826.322 404.711 828.626Z" fill="#FDCB6E"/>
</svg>
