<svg width="134" height="40" viewBox="0 0 134 40" fill="none" xmlns="http://www.w3.org/2000/svg">
<path d="M11 20H29" stroke="#5C5C5C" stroke-width="4" stroke-linecap="round" stroke-linejoin="round"/>
<path d="M11 14H29" stroke="#5C5C5C" stroke-width="4" stroke-linecap="round" stroke-linejoin="round"/>
<path d="M11 26H29" stroke="#5C5C5C" stroke-width="4" stroke-linecap="round" stroke-linejoin="round"/>
<path d="M41.3295 29H54.6932V25.9574H45.9574L54.6761 13.7358V11.5455H41.3125V14.5881H50.0398L41.3295 26.8097V29ZM63.6726 29.2557C66.9112 29.2557 69.093 27.679 69.6044 25.25L66.2464 25.0284C65.88 26.0256 64.9425 26.5455 63.7322 26.5455C61.9169 26.5455 60.7663 25.3438 60.7663 23.392V23.3835H69.6811V22.3864C69.6811 17.9375 66.9879 15.7386 63.5277 15.7386C59.6754 15.7386 57.1783 18.4744 57.1783 22.5142C57.1783 26.6648 59.6413 29.2557 63.6726 29.2557ZM60.7663 21.1335C60.843 19.642 61.9766 18.4489 63.5874 18.4489C65.1641 18.4489 66.255 19.5739 66.2635 21.1335H60.7663ZM72.3004 29H75.9311V21.5938C75.9311 19.983 77.1072 18.875 78.7095 18.875C79.2124 18.875 79.9027 18.9602 80.2436 19.071V15.8494C79.9197 15.7727 79.468 15.7216 79.1016 15.7216C77.6357 15.7216 76.4339 16.5739 75.9567 18.1932H75.8203V15.9091H72.3004V29ZM87.6761 29.2557C91.6477 29.2557 94.1193 26.5369 94.1193 22.5057C94.1193 18.4489 91.6477 15.7386 87.6761 15.7386C83.7045 15.7386 81.233 18.4489 81.233 22.5057C81.233 26.5369 83.7045 29.2557 87.6761 29.2557ZM87.6932 26.4432C85.8608 26.4432 84.9233 24.7642 84.9233 22.4801C84.9233 20.196 85.8608 18.5085 87.6932 18.5085C89.4915 18.5085 90.429 20.196 90.429 22.4801C90.429 24.7642 89.4915 26.4432 87.6932 26.4432ZM100.361 21.4318C100.369 19.7443 101.375 18.7557 102.841 18.7557C104.298 18.7557 105.176 19.7102 105.168 21.3125V29H108.798V20.6648C108.798 17.6136 107.009 15.7386 104.281 15.7386C102.338 15.7386 100.932 16.6932 100.344 18.2188H100.19V15.9091H96.7301V29H100.361V21.4318ZM117.876 29.2557C121.114 29.2557 123.296 27.679 123.808 25.25L120.45 25.0284C120.083 26.0256 119.146 26.5455 117.935 26.5455C116.12 26.5455 114.969 25.3438 114.969 23.392V23.3835H123.884V22.3864C123.884 17.9375 121.191 15.7386 117.731 15.7386C113.879 15.7386 111.381 18.4744 111.381 22.5142C111.381 26.6648 113.844 29.2557 117.876 29.2557ZM114.969 21.1335C115.046 19.642 116.18 18.4489 117.79 18.4489C119.367 18.4489 120.458 19.5739 120.467 21.1335H114.969Z" fill="#5C5C5C"/>
</svg>
